<svg width="66" height="53" viewBox="0 0 66 53" fill="none" xmlns="http://www.w3.org/2000/svg">
<path fill-rule="evenodd" clip-rule="evenodd" d="M27.0625 2.809C27.0625 5.464 24.1615 10.839 24.0945 8.309C24.0765 7.654 24.5125 6.84 25.0625 6.5C26.3725 5.691 26.3585 2 25.0465 2C23.1545 2 20.5285 8.929 21.7085 10.804C23.5395 13.71 25.8815 13.345 28.0325 9.818C30.4645 5.828 30.7795 0 28.5625 0C27.5855 0 27.0625 0.979 27.0625 2.809ZM58.4955 3.462C54.5735 9.447 56.5855 19.271 61.3585 17.44C66.1595 15.598 67.7135 5.312 63.5975 2.615C60.4355 0.543 60.4045 0.548 58.4955 3.462ZM4.89953 7.25C-1.53947 12.46 -1.66847 25.058 4.72953 23.826C8.57553 23.085 13.1575 12.017 11.4545 7.579C10.7295 5.69 7.05653 5.505 4.89953 7.25ZM39.6515 10.077C35.5835 14.912 36.2075 23 40.6495 23C42.4025 23 43.5435 21.977 45.0195 19.083C49.9425 9.433 45.9005 2.651 39.6515 10.077ZM62.0345 11.053C60.9595 13.062 60.7155 13.132 59.8955 11.667C59.2775 10.561 59.3995 9.543 60.2665 8.59C62.1395 6.534 63.4645 8.38 62.0345 11.053ZM7.59053 13.744C6.47353 18.195 3.06253 21.06 3.06253 17.547C3.06253 14.962 5.34353 11 6.83153 11C7.91053 11 8.10453 11.698 7.59053 13.744ZM44.0625 12.889C44.0625 13.378 43.1775 14.841 42.0955 16.139L40.1295 18.5L40.0955 15.823C40.0745 14.096 40.6835 12.984 41.8125 12.689C42.7745 12.438 43.6745 12.18 43.8125 12.116C43.9505 12.052 44.0625 12.4 44.0625 12.889ZM17.1815 19.035C13.4125 25.215 13.0265 32.5 16.4685 32.5C21.1485 32.5 24.5785 22.093 21.2525 17.986L19.2955 15.569L17.1815 19.035ZM18.5975 25.932C17.7255 27.619 16.8295 29 16.6065 29C16.0795 29 17.6805 23.427 18.6665 21.832C20.2365 19.291 20.1765 22.879 18.5975 25.932ZM54.2775 24.98C50.8045 29.419 49.5905 33.67 50.9475 36.646C53.6945 42.676 60.4515 36.385 60.5205 27.733C60.5715 21.331 58.0155 20.203 54.2775 24.98ZM58.0625 27.953C58.0625 30.037 55.6635 34 54.4015 34C52.6145 34 52.7075 31.951 54.6195 29.223C56.2185 26.94 58.0625 26.26 58.0625 27.953ZM27.1165 33.895C24.7195 38.592 24.5115 41.592 26.4475 43.528C28.8245 45.905 31.4765 41.86 31.5235 35.786C31.5735 29.336 29.8245 28.586 27.1165 33.895ZM39.1195 43.603C36.5595 49.392 36.3925 53.277 38.7235 52.823C41.6015 52.263 44.4815 40.995 42.1195 39.535C41.6015 39.215 40.2515 41.046 39.1195 43.603Z" fill="#FACC88"/>
</svg>
