<svg width="59" height="57" viewBox="0 0 59 57" fill="none" xmlns="http://www.w3.org/2000/svg">
<path fill-rule="evenodd" clip-rule="evenodd" d="M18.9266 1.81651C3.28556 7.39851 -4.55444 26.4835 2.76356 41.1675C13.2276 62.1675 45.8026 61.3815 55.8326 39.8875C66.4606 17.1135 43.2256 -6.85449 18.9266 1.81651ZM37.3556 3.55651C42.1896 5.00451 40.6296 6.35051 34.0906 6.37251C27.9996 6.39251 25.6616 8.78351 26.6396 13.9935C27.4406 18.2645 26.3916 19.3485 21.4356 19.3725C14.7146 19.4035 17.4856 25.7025 25.5816 28.7945C30.9986 30.8635 31.9616 34.2575 27.6856 36.2055C23.3286 38.1905 24.7276 43.4255 30.5396 46.8875C31.4636 47.4375 32.6446 49.4015 33.1656 51.2515L34.1116 54.6155L27.8796 54.2185C14.1906 53.3475 8.25556 47.2485 11.7756 37.6715C14.3876 30.5645 13.5236 28.2005 7.52756 26.0515L2.36956 24.2035L3.90156 19.7065C5.49556 15.0285 11.0296 11.3875 16.5456 11.3875C20.1326 11.3875 23.4386 8.49151 22.9246 5.80051C22.6776 4.51151 22.9736 3.25251 23.5806 3.00151C25.7686 2.09851 33.5326 2.41151 37.3556 3.55651ZM20.1856 5.38751C20.1856 5.93751 20.2986 6.69051 20.4356 7.06151C20.5726 7.43251 18.3236 8.26851 15.4356 8.91851C9.08756 10.3485 9.01356 10.2035 14.4356 6.95351C19.0796 4.17051 20.1856 3.86951 20.1856 5.38751ZM48.8776 10.6375C55.6676 17.7925 58.9456 31.3875 53.8796 31.3875C52.0626 31.3875 50.9076 32.1875 49.9906 34.0795C49.1526 35.8085 47.4796 37.0825 45.3146 37.6395C41.6966 38.5705 41.7066 38.5085 43.7536 47.4165C44.2476 49.5675 43.8106 50.1955 40.8376 51.6135C36.9506 53.4675 35.9416 52.9005 34.8306 48.2405C34.4556 46.6695 32.7736 44.7515 30.6926 43.5235C26.6096 41.1155 26.1666 38.8605 29.6056 37.9965C35.1856 36.5965 33.5316 28.4255 27.3616 26.9095C20.7546 25.2865 17.9976 21.3975 23.4356 21.3725C28.5516 21.3485 29.5316 20.2055 29.3296 14.5015C29.1276 8.79551 29.2626 8.70251 38.6856 8.07951C41.4356 7.89651 44.1596 7.66651 44.7396 7.56751C45.3186 7.46851 47.1816 8.84951 48.8776 10.6375ZM7.71756 28.8365C11.5276 30.4285 11.7186 30.9385 10.0476 35.0725C9.42256 36.6205 8.60956 39.4625 8.24256 41.3875L7.57556 44.8875L5.36156 40.6405C2.73056 35.5925 1.31856 27.3875 3.08156 27.3875C3.72456 27.3875 5.81056 28.0395 7.71756 28.8365ZM55.1856 34.3225C55.1856 36.4535 52.9296 40.9235 49.9636 44.6675L46.8026 48.6595L45.6586 44.7735C44.2856 40.1125 44.5636 39.3875 47.7186 39.3875C49.3916 39.3875 50.6116 38.4645 51.6856 36.3875C53.1646 33.5265 55.1856 32.3345 55.1856 34.3225Z" fill="#FFD493"/>
</svg>
