<svg width="67" height="74" viewBox="0 0 67 74" fill="none" xmlns="http://www.w3.org/2000/svg">
<path fill-rule="evenodd" clip-rule="evenodd" d="M0.946998 2.61851C-1.02 7.74351 0.324998 24.0365 2.715 24.0365C5.655 24.0365 6.34 21.2735 6.34 9.41151C6.34 1.02851 3.116 -3.03349 0.946998 2.61851ZM54.261 16.2655C51.812 18.6145 44.057 25.8845 37.027 32.4205C24.475 44.0895 22.185 47.5365 26.985 47.5365C28.284 47.5365 34.071 43.0335 41.971 35.8735C60.563 19.0235 63.023 16.3425 61.747 14.3195C59.991 11.5355 58.893 11.8205 54.261 16.2655ZM54.018 66.6085C44.847 68.2905 42.101 69.5455 42.538 71.8535C43.31 75.9265 66.84 72.2045 66.84 68.0095C66.84 64.8895 64.679 64.6535 54.018 66.6085Z" fill="#B4B9ED"/>
</svg>
