<svg width="54" height="59" viewBox="0 0 54 59" fill="none" xmlns="http://www.w3.org/2000/svg">
<path fill-rule="evenodd" clip-rule="evenodd" d="M11.2398 2.92359C10.6968 5.02059 9.33779 6.54359 6.94479 7.73759C2.49279 9.95859 2.48079 12.1716 6.91279 13.6046C9.53579 14.4526 10.5748 15.4746 11.1788 17.8056C12.5838 23.2286 17.9448 21.6976 17.9448 15.8726C17.9448 14.5506 18.6578 13.9836 20.3228 13.9836C25.6258 13.9836 26.3018 8.66059 21.1428 7.52659C18.9368 7.04259 17.9778 6.08459 17.2918 3.68259C15.9968 -0.85041 12.3368 -1.30941 11.2398 2.92359ZM41.0118 12.8576C40.4248 13.9546 39.9448 15.5676 39.9448 16.4426C39.9448 17.4076 38.7728 18.2676 36.9668 18.6296C30.8848 19.8456 30.7908 24.1316 36.8178 25.4556C38.8008 25.8916 39.8118 26.9386 40.4978 29.2696C41.7838 33.6356 45.0278 33.6776 46.2698 29.3456C46.9338 27.0306 47.9918 25.9736 50.3068 25.3126C54.9438 23.9886 55.1258 20.5286 50.6368 19.0466C48.0658 18.1986 46.9858 17.1196 46.2948 14.7076C45.2168 10.9496 42.5358 10.0106 41.0118 12.8576ZM8.12279 29.4916C7.47479 30.9136 6.94479 32.7316 6.94479 33.5306C6.94479 34.3666 5.98879 34.9906 4.69479 34.9986C-0.890206 35.0366 -1.75921 39.8316 3.53579 41.3946C5.75979 42.0516 6.87679 43.1696 7.53379 45.3946C8.80679 49.7116 12.1098 49.6206 13.4018 45.2336C13.9908 43.2336 15.0058 41.9836 16.0408 41.9836C21.6988 41.9836 23.0738 36.5926 17.7668 35.2176C15.4408 34.6146 14.4118 33.5726 13.5658 30.9636C12.1798 26.6906 9.70479 26.0216 8.12279 29.4916ZM37.5378 39.1536C36.6618 40.4046 35.9448 42.2286 35.9448 43.2066C35.9448 44.4106 35.1788 44.9836 33.5668 44.9836C28.2638 44.9836 27.5878 50.3066 32.7468 51.4406C34.9528 51.9246 35.9118 52.8826 36.5978 55.2846C37.8928 59.8176 41.5528 60.2766 42.6498 56.0436C43.1928 53.9466 44.5518 52.4236 46.9448 51.2296C51.3728 49.0206 51.4108 46.7956 47.0438 45.3846C44.5128 44.5666 43.3618 43.4346 42.5438 40.9596C41.1678 36.7966 39.5888 36.2266 37.5378 39.1536Z" fill="#F8DCB3"/>
</svg>
