<svg id="linkedin" xmlns="http://www.w3.org/2000/svg" viewBox="0 0 24 24" class="icon line" width="48" height="48"><path id="primary" d="M16,17V14a2,2,0,0,0-2-2h0a2,2,0,0,0-2,2v3" style="fill: none; stroke: rgb(255, 255, 255); stroke-linecap: round; stroke-linejoin: round; stroke-width: 2;"></path><path id="primary-2" data-name="primary" d="M20,21H4a1,1,0,0,1-1-1V4A1,1,0,0,1,4,3H20a1,1,0,0,1,1,1V20A1,1,0,0,1,20,21ZM8,12v5m4-3V12" style="fill: none; stroke: rgb(255, 255, 255); stroke-linecap: round; stroke-linejoin: round; stroke-width: 2;"></path><line id="primary-upstroke" x1="7.95" y1="7.5" x2="8.05" y2="7.5" style="fill: none; stroke: rgb(255, 255, 255); stroke-linecap: round; stroke-linejoin: round; stroke-width: 2.6;"></line></svg>