<svg width="168" height="192" viewBox="0 0 168 192" fill="none" xmlns="http://www.w3.org/2000/svg">
<path fill-rule="evenodd" clip-rule="evenodd" d="M68.1471 0.45914C57.0311 2.31864 50.8826 11.1381 50.8736 25.2341L50.8706 29.7906L45.9956 30.1451C22.1226 31.8801 5.96505 45.8296 0.786052 69.1776C-0.421448 74.6206 -0.166448 170.841 1.06455 174.428C4.05855 183.147 9.67055 188.592 18.1206 190.973C21.8476 192.024 145.894 192.024 149.621 190.973C158.071 188.592 163.683 183.147 166.677 174.428C167.908 170.841 168.163 74.6206 166.955 69.1776C161.782 45.8586 145.614 31.8791 121.814 30.1501L117.008 29.8006L116.719 23.2391C116.119 9.58864 110.46 2.28164 99.0391 0.411639C95.5326 -0.162861 71.6446 -0.12586 68.1471 0.45914ZM97.8706 18.9276C98.7371 19.7941 98.8706 20.5941 98.8706 24.9276V29.9276H83.8706H68.8706V24.9276C68.8706 17.4841 67.9206 17.9276 83.8706 17.9276C96.2041 17.9276 96.9221 17.9791 97.8706 18.9276ZM128.367 49.0621C148.637 55.2561 149.871 59.4701 149.871 122.532C149.871 178.144 150.564 173.928 141.416 173.928H137.928L137.741 144.303C137.534 111.428 137.647 112.622 134.062 105.539C131.446 100.372 127.111 96.1366 121.789 93.5491C114.759 90.1311 115.282 90.1776 83.8706 90.1776C52.4591 90.1776 52.9821 90.1311 45.9526 93.5491C40.6306 96.1366 36.2951 100.372 33.6796 105.539C30.0941 112.622 30.2076 111.428 30.0001 144.303L29.813 173.928H26.3256C21.8771 173.928 19.7881 173.067 18.7066 170.789C17.4771 168.197 17.4275 78.4056 18.6525 71.8576C20.942 59.6161 30.2061 50.5816 42.6581 48.4476C47.7756 47.5706 125.305 48.1261 128.367 49.0621ZM51.3706 60.7956C46.3121 63.3451 46.4931 75.2506 51.6196 77.2011C54.4696 78.2851 115.519 78.0781 117.172 76.9786C120.807 74.5601 120.864 63.3186 117.252 60.9266C115.368 59.6796 53.8281 59.5571 51.3706 60.7956ZM111.997 108.641C118.07 110.808 119.552 113.743 119.783 124.053L119.959 131.928H83.8706H47.7826L47.9585 124.053C48.189 113.743 49.6716 110.808 55.7446 108.641C58.4816 107.664 109.26 107.664 111.997 108.641ZM119.871 161.928V173.928H83.8706H47.8706V161.928V149.928H83.8706H119.871V161.928Z" fill="white"/>
</svg>
