<svg width="240" height="191" viewBox="0 0 240 191" fill="none" xmlns="http://www.w3.org/2000/svg">
<path fill-rule="evenodd" clip-rule="evenodd" d="M36.2214 0.484452C33.7264 1.57445 31.5879 3.69995 30.7439 5.92895C29.4004 9.47645 29.8099 133.283 31.1734 135.79C33.2299 139.571 32.3024 139.269 78.8324 151.306L119.943 161.94L161.785 151.087C205.06 139.863 205.347 139.778 207.6 137.524C209.992 135.132 209.966 135.878 209.957 70.04C209.948 -0.655045 210.279 4.96745 205.95 1.83245C202.343 -0.781049 203.582 -0.92805 160.193 7.25795L119.968 14.8475L80.0739 7.31845C37.9444 -0.632049 38.5579 -0.536548 36.2214 0.484452ZM9.56343 12.3195C-0.577071 14.338 -0.121073 10.5455 0.0659272 91.29L0.221426 158.54L1.30042 160.54C2.55442 162.863 4.55893 164.842 6.80993 165.977C8.76193 166.961 117.397 190.79 119.932 190.79C122.812 190.79 231.309 166.893 233.498 165.776C235.841 164.581 237.207 163.19 238.64 160.54L239.721 158.54V89.54V20.54L238.618 18.478C235.899 13.395 230.041 11.0655 223.598 12.506L221.975 12.8685L221.848 81.9545L221.721 151.04L211.471 153.343C205.834 154.61 182.951 159.74 160.62 164.743L120.019 173.84L72.8704 163.285C46.9384 157.479 24.0339 152.344 21.9714 151.874L18.2214 151.018L18.0944 81.9595L17.9679 12.9005L16.0944 12.5779C12.2889 11.9229 11.6769 11.899 9.56343 12.3195ZM73.3214 24.2755C109.94 31.007 110.452 31.1045 110.724 31.3755C110.862 31.5145 110.918 56.272 110.848 86.393L110.721 141.158L80.7214 133.308C64.2214 128.99 50.1024 125.303 49.3464 125.114L47.9714 124.771V72.2805C47.9714 39.465 48.1494 19.79 48.4464 19.79C48.7074 19.79 59.9014 21.8085 73.3214 24.2755ZM191.971 72.2805V124.771L190.596 125.114C189.84 125.303 175.721 128.99 159.221 133.308L129.221 141.158L129.094 86.393C129.024 56.272 129.074 31.5205 129.205 31.3895C129.336 31.2585 140.756 29.071 154.582 26.5285C168.409 23.9859 181.971 21.456 184.721 20.907C187.471 20.358 190.227 19.882 190.846 19.8495L191.971 19.79V72.2805Z" fill="white"/>
</svg>
