<svg width="240" height="192" viewBox="0 0 240 192" fill="none" xmlns="http://www.w3.org/2000/svg">
<path fill-rule="evenodd" clip-rule="evenodd" d="M77.0816 0.456768C65.3851 2.42327 59.2456 11.8278 59.8216 26.8973C60.4856 44.2898 76.9356 43.2528 77.6951 25.7703C77.9381 20.1858 78.1001 19.2623 78.9446 18.6453C80.7486 17.3283 219.401 17.6133 220.724 18.9368C221.713 19.9253 221.724 20.6033 221.724 77.9368C221.724 147.141 223.718 137.937 208.724 137.937H197.724V131.546C197.724 115.358 196.123 114.254 172.327 114.031C145.876 113.784 144.183 114.748 143.804 130.266L143.62 137.845L136.547 138.027C123.091 138.374 117.131 149.092 127.356 154.555L129.474 155.687H175.974C218.774 155.687 222.689 155.618 225.17 154.818C233.001 152.293 237.948 146.436 239.218 138.187C240.194 131.847 239.645 17.2533 238.625 14.3653C235.959 6.82127 229.841 1.72227 221.893 0.420767C218.33 -0.162733 80.5626 -0.128732 77.0816 0.456768ZM55.9741 48.2323C29.0326 51.8253 15.0921 81.2533 29.7526 103.585C49.1871 133.188 95.4146 119.356 95.4146 83.9368C95.4146 62.7508 76.3721 45.5118 55.9741 48.2323ZM63.7976 66.6168C79.5676 70.3288 82.5986 91.4203 68.5181 99.4618C60.0006 104.326 48.7411 101.142 44.0931 92.5533C36.7201 78.9313 48.7641 63.0788 63.7976 66.6168ZM43.7241 132.241C18.2641 135.114 0.383136 154.124 0.0376356 178.687C-0.154364 192.319 -1.65486 191.997 61.2351 191.824L110.974 191.687L113.333 190.525C117.862 188.294 120.108 183.287 119.468 176.845C117.19 153.922 103.856 138.478 81.7241 133.127C78.6026 132.373 48.7326 131.676 43.7241 132.241ZM79.9741 151.156C89.9781 154.048 100.724 165.464 100.724 173.198C100.724 173.844 95.5536 173.937 59.7241 173.937C23.8946 173.937 18.7241 173.844 18.7241 173.198C18.7241 164.038 31.0066 152.583 43.1396 150.427C47.7151 149.614 76.6196 150.186 79.9741 151.156Z" fill="white"/>
</svg>
