<svg width="192" height="192" viewBox="0 0 192 192" fill="none" xmlns="http://www.w3.org/2000/svg">
<path fill-rule="evenodd" clip-rule="evenodd" d="M90.2586 0.252412C19.3011 5.56441 -22.2309 81.6549 12.4611 142.783C57.4406 222.037 176.675 200.083 190.802 109.945C200.071 50.8064 149.658 -4.19409 90.2586 0.252412ZM110.51 19.4394C131.949 23.4999 154.495 39.2849 163.212 56.3369L164.052 57.9784L162.405 58.6559C161.5 59.0284 158.984 60.0674 156.816 60.9644C146.344 65.2959 145.346 69.3444 150.68 85.8629C155.599 101.094 156.071 101.642 166.759 104.492C170.059 105.373 172.847 106.166 172.954 106.256C177.097 109.721 162.693 139.113 151.1 150.853C95.2626 207.395 -1.66993 150.462 21.1111 74.5054L21.7681 72.3154L24.4986 76.9289C29.7796 85.8499 32.1486 87.3399 49.1206 92.4144C70.8861 98.9224 71.0766 99.1294 71.5141 116.695C71.8371 129.668 72.4156 131.498 77.1566 134.54C82.7731 138.144 83.5086 139.809 83.5086 148.916C83.5086 170.334 100.507 171.033 108.547 149.945C111.265 142.816 114.516 139.023 121.301 135.064C135.446 126.812 135.726 107.41 121.827 98.5874C117.795 96.0279 116.55 95.8244 102.759 95.4684C87.4896 95.0749 88.0851 95.2304 77.3021 88.8264C61.0396 79.1684 67.1096 65.9714 85.3021 71.4334C93.8586 74.0024 96.3421 73.8549 98.6866 70.6399C101.167 67.2384 100.444 64.0514 96.0321 58.9379C88.7636 50.5129 88.8216 46.8559 96.3801 37.0324C102.304 29.3334 103.394 25.7284 101.309 20.7379C100.869 19.6849 100.509 18.7384 100.509 18.6344C100.509 18.1244 105.827 18.5524 110.51 19.4394Z" fill="white"/>
</svg>
