<svg width="168" height="144" viewBox="0 0 168 144" fill="none" xmlns="http://www.w3.org/2000/svg">
<path fill-rule="evenodd" clip-rule="evenodd" d="M74.5335 143.468C80.314 141.969 83.4 137.966 83.4415 131.912C83.479 126.442 83.2775 126.194 60.8775 104.057L40.5335 83.9526L98.5495 83.9321C161.287 83.9101 159.805 83.9721 163.414 81.2191C168.896 77.0376 168.896 66.7856 163.414 62.6041C159.805 59.8511 161.287 59.9131 98.5495 59.8911L40.5335 59.8706L60.8775 39.7661C83.2775 17.6296 83.479 17.3811 83.4415 11.9116C83.3795 2.81208 74.3695 -2.72342 66.2835 1.37058C63.0385 3.01308 3.37701 62.6141 1.46401 66.1246C-0.488489 69.7061 -0.488489 74.1171 1.46401 77.6986C3.29501 81.0581 63.044 140.821 66.086 142.336C68.445 143.511 72.35 144.034 74.5335 143.468Z" fill="#525FE1"/>
</svg>
