<svg width="168" height="144" viewBox="0 0 168 144" fill="none" xmlns="http://www.w3.org/2000/svg">
<path fill-rule="evenodd" clip-rule="evenodd" d="M92.9919 0.229188C87.2114 1.72769 84.1254 5.73119 84.0839 11.7852C84.0464 17.2547 84.2479 17.5032 106.648 39.6397L126.992 59.7442L68.9759 59.7647C6.23838 59.7867 7.72088 59.7247 4.11188 62.4777C-1.37063 66.6592 -1.37063 76.9112 4.11188 81.0927C7.72088 83.8457 6.23838 83.7837 68.9759 83.8057L126.992 83.8262L106.648 103.931C84.2479 126.067 84.0464 126.316 84.0839 131.785C84.1459 140.885 93.1559 146.42 101.242 142.326C104.487 140.684 164.148 81.0827 166.061 77.5722C168.014 73.9907 168.014 69.5797 166.061 65.9982C164.23 62.6387 104.481 2.87619 101.439 1.36119C99.0804 0.186188 95.1754 -0.337312 92.9919 0.229188Z" fill="#525FE1"/>
</svg>
