<svg width="224" height="256" viewBox="0 0 224 256" fill="none" xmlns="http://www.w3.org/2000/svg">
<path fill-rule="evenodd" clip-rule="evenodd" d="M33.7983 0.629759C17.6992 3.00153 4.88647 14.7228 0.995055 30.6388C-0.331685 36.0647 -0.331685 220.189 0.995055 225.615C3.78675 237.033 11.3633 246.695 21.3222 251.535C31.0727 256.275 24.6293 255.997 124.625 255.997H215.1L217.929 254.486C228.5 248.838 224.22 233.771 211.676 232.476L208.089 232.106V215.274V198.441L210.87 197.187C217.017 194.415 222.087 187.533 223.462 180.096C223.911 177.668 224.083 149.327 223.963 97.6753L223.78 18.9535L221.685 14.5312C217.93 6.60726 212.305 2.13615 204.159 0.601047C199.81 -0.218255 39.3724 -0.191546 33.7983 0.629759ZM200.076 100.082V176.203H118.738C37.1429 176.203 32.8154 176.315 26.959 178.572C25.5741 179.105 24.2921 179.542 24.1092 179.542C23.9269 179.542 23.8581 147.016 23.9563 107.261L24.1345 34.979L25.6309 32.1799C27.3322 28.9968 30.6474 26.2231 34.3158 24.9144C36.355 24.1865 52.0034 24.0149 118.449 23.9909L200.076 23.9615V100.082ZM73.2072 56.6274C62.8677 59.8278 60.894 73.3146 70.0483 78.2057L72.8774 79.7168H119.951H167.025L169.854 78.2057C171.751 77.1921 173.163 75.7625 174.142 73.8655C177.168 68.0008 175.219 60.7239 169.854 57.8574L167.025 56.3463L120.953 56.2275C95.6129 56.1627 74.1273 56.3423 73.2072 56.6274ZM73.2072 96.6911C62.8677 99.8915 60.894 113.378 70.0483 118.269L72.8774 119.78H119.951H167.025L169.854 118.269C171.751 117.256 173.163 115.826 174.142 113.929C177.168 108.064 175.219 100.788 169.854 97.921L167.025 96.41L120.953 96.2911C95.6129 96.2263 74.1273 96.406 73.2072 96.6911ZM184.051 216.267V232.293L110.77 232.289C63.7378 232.287 36.6234 232.045 35.073 231.614C20.6277 227.602 20.0969 206.269 34.3158 201.194C36.349 200.469 50.6854 200.295 110.436 200.271L184.051 200.242V216.267Z" fill="#525FE1"/>
</svg>
