<svg width="354" height="354" viewBox="0 0 354 354" fill="none" xmlns="http://www.w3.org/2000/svg">
<circle cx="177" cy="177" r="177" fill="#525FE1"/>
<path fill-rule="evenodd" clip-rule="evenodd" d="M174.192 89.4321C173.456 89.6445 162.918 97.5272 150.777 106.949L128.7 124.08L112.907 126.615C85.8302 130.962 81.7316 133.171 77.8766 145.498C76.9273 148.533 76.6405 225.668 77.5625 230.08C79.4462 239.098 86.7587 246.161 95.6608 247.561C99.3814 248.146 253.758 248.146 257.479 247.561C265.916 246.234 273.156 239.61 275.407 231.16C276.223 228.099 276.185 149.354 275.367 146.119C274.036 140.86 270.775 136.076 266.665 133.359C261.888 130.201 260.741 129.908 240.233 126.615L224.439 124.08L202.378 106.96C178.195 88.1943 178.286 88.2514 174.192 89.4321ZM197.196 121.811C221.141 140.522 215.923 138.019 237.892 141.335C264.269 145.315 261.213 139.112 261.213 188.68C261.213 239.432 266.285 233.062 225.87 233.074L196.544 233.083L196.401 218.693C196.261 204.707 196.23 204.232 195.275 201.817C188.279 184.113 164.43 184.179 157.793 201.921C156.958 204.154 156.893 205.2 156.749 218.693L156.596 233.083L127.27 233.074C86.855 233.062 91.9266 239.432 91.9266 188.68C91.9266 148.459 91.9253 148.486 93.8891 146.424C95.865 144.348 96.8417 144.114 115.039 141.347C124.805 139.862 133.413 138.447 134.166 138.203C134.92 137.958 144.695 130.601 155.89 121.854C180.075 102.957 173.074 102.964 197.196 121.811ZM172.588 124.145C155.86 126.785 147.003 144.494 154.61 160.089C163.172 177.643 189.968 177.643 198.53 160.089C207.617 141.46 192.816 120.953 172.588 124.145ZM179.073 134.324C180.89 135.261 181.549 136.908 181.549 140.508V143.634H183.437C186.823 143.634 189.017 145.589 189.017 148.603C189.017 152.431 187.015 153.573 180.304 153.573C172.079 153.573 171.591 153.016 171.591 143.634C171.591 134.656 173.973 131.691 179.073 134.324ZM109.976 158.923C107.421 160.022 107.081 161.024 106.938 167.872C106.73 177.874 107.241 178.42 116.822 178.42C126.407 178.42 126.913 177.878 126.705 167.847L126.572 161.455L125.217 160.102L123.862 158.749L117.333 158.658C113.743 158.607 110.432 158.727 109.976 158.923ZM229.472 158.923C226.918 160.022 226.578 161.024 226.435 167.872C226.227 177.874 226.737 178.42 236.318 178.42C245.903 178.42 246.409 177.878 246.202 167.847L246.069 161.455L244.713 160.102L243.358 158.749L236.83 158.658C233.239 158.607 229.928 158.727 229.472 158.923ZM109.486 189.012C107.039 190.244 106.864 191.199 106.864 203.267C106.864 218.366 106.736 218.175 116.822 218.175C127.012 218.175 126.864 218.407 126.695 202.654L126.572 191.272L125.217 189.919L123.862 188.566L117.333 188.457C112.01 188.368 110.562 188.47 109.486 189.012ZM228.983 189.012C226.536 190.244 226.36 191.199 226.36 203.267C226.36 218.366 226.233 218.175 236.318 218.175C246.508 218.175 246.361 218.407 246.191 202.654L246.069 191.272L244.713 189.919L243.358 188.566L236.83 188.457C231.507 188.368 230.058 188.47 228.983 189.012Z" fill="white"/>
</svg>
