<svg width="192" height="192" viewBox="0 0 192 192" fill="none" xmlns="http://www.w3.org/2000/svg">
<path fill-rule="evenodd" clip-rule="evenodd" d="M30.9205 0.344145C7.58504 3.69265 -6.66346 29.2186 3.13454 50.1216C5.53704 55.2466 2.49304 57.1241 32.7975 31.8266L59.888 9.21264L57.2795 7.24964C50.07 1.82464 39.6415 -0.907355 30.9205 0.344145ZM151.19 0.401144C144.705 1.40414 139.459 3.56464 134.562 7.24964L131.953 9.21264L159.044 31.8266C189.348 57.1241 186.304 55.2466 188.707 50.1216C200.262 25.4706 178.194 -3.77486 151.19 0.401144ZM90.6705 24.1891C25.518 29.2166 -9.52896 100.692 26.6245 154.803C31.2785 161.768 31.824 159.934 22.4425 168.866C10.439 180.296 9.00054 185.274 16.354 189.937C21.5315 193.22 23.9175 192.101 35.5685 180.925L43.467 173.349L46.3185 175.519C74.2425 196.768 116.657 196.834 145.679 175.674L148.687 173.481L156.429 180.952C168.124 192.238 170.659 193.404 175.507 189.733C182.278 184.606 181.179 181 169.001 168.38L161.53 160.638L163.723 157.63C205.199 100.744 160.346 18.8121 90.6705 24.1891ZM107.671 43.0931C185.546 57.3331 175.078 173.576 95.9205 173.576C20.5955 173.576 5.28154 65.3481 77.6705 44.5996C81.1475 43.6031 83.5515 43.1521 90.6705 42.1601C93.366 41.7846 103.58 42.3451 107.671 43.0931ZM93.9175 60.3231C87.192 62.4526 87.201 62.4166 87.019 87.3716C86.8255 113.816 85.577 109.679 97.3355 121.557C110.969 135.329 113.391 136.607 118.507 132.733C125.189 127.674 124.236 124.286 112.743 112.235L105.171 104.295L104.921 85.4586C104.677 67.0891 104.643 66.5691 103.539 64.5031C101.863 61.3666 97.124 59.3076 93.9175 60.3231Z" fill="#525FE1"/>
</svg>
