<svg width="354" height="354" viewBox="0 0 354 354" fill="none" xmlns="http://www.w3.org/2000/svg">
<circle cx="177" cy="177" r="177" fill="#525FE1"/>
<path fill-rule="evenodd" clip-rule="evenodd" d="M147.166 107.577C132.254 110.354 122.592 126.857 128.111 140.125C128.434 140.9 128.698 141.617 128.698 141.718C128.698 141.818 122.769 141.986 115.521 142.09C100.947 142.301 100.138 142.42 94.806 145.131C66.6413 159.452 73.553 221.719 103.847 226.58C106.507 227.007 107.138 226.896 130.984 221.808C144.412 218.944 155.647 216.6 155.951 216.6C156.4 216.6 156.505 219.017 156.507 229.419C156.509 243.989 156.622 244.754 158.969 246.094C161.982 247.815 162.684 247.524 170.508 241.308L176.418 236.613L181.713 240.694C190.598 247.543 191.202 247.804 193.948 245.978C196.296 244.417 196.346 244.072 196.346 229.496C196.346 221.96 196.507 216.183 196.716 216.183C196.92 216.183 203.69 217.692 211.761 219.536C242.373 226.532 244.834 227.042 246.678 226.771C281.4 221.688 287.156 154.793 253.826 143.709C249.789 142.366 245.463 141.979 234.497 141.979C228.807 141.979 224.152 141.879 224.152 141.757C224.152 141.635 224.41 140.914 224.726 140.155C228.578 130.895 224.511 118.059 215.754 111.834C204.348 103.726 191.434 105.884 179.989 117.809L176.31 121.643L175.252 120.243C167.954 110.576 157.172 105.714 147.166 107.577ZM156.375 123.289C160.114 125.138 165.993 131.892 171.646 140.833L172.37 141.979H161.608C149.141 141.979 147.58 141.705 144.667 139.008C136.291 131.252 146.031 118.174 156.375 123.289ZM205.713 123.136C211.977 126.378 213.188 134.541 208.075 139.061C205.058 141.729 203.615 141.979 191.242 141.979H180.48L181.204 140.833C191.394 124.716 198.647 119.48 205.713 123.136ZM156.504 179.081C156.504 191.233 156.398 201.176 156.268 201.176C156.139 201.176 144.711 203.626 130.872 206.622L105.711 212.068L104.112 211.344C90.0462 204.972 87.288 167.13 100.3 159.052C103.514 157.056 103.699 157.044 130.877 157.014L156.504 156.987V179.081ZM247.928 157.606C265.346 162.164 265.141 204.682 247.669 211.385L245.894 212.066L222.054 206.803C208.941 203.908 197.793 201.437 197.28 201.312L196.346 201.085V179.036V156.987H220.952C241.391 156.987 245.96 157.092 247.928 157.606Z" fill="white"/>
</svg>
