<svg width="3220" height="2597" viewBox="0 0 3220 2597" fill="none" xmlns="http://www.w3.org/2000/svg">
<g clip-path="url(#clip0_25_266)">
<path d="M2166.2 72L2364.1 263L2563 1339.7H697.3L2166.2 72Z" fill="#FFCF2D"/>
<path d="M2365.8 261.5L2167.3 69.8999L2200.5 35.3998C2249.4 -15.4002 2337.5 -9.60015 2388.3 39.1998C2439.1 88.0998 2448 176.2 2399.1 227L2365.8 261.5Z" fill="white" stroke="#FFCF2D" stroke-width="6" stroke-miterlimit="10" stroke-linecap="round"/>
<path d="M2399 226.999L2200.4 35.3994" stroke="#FFCF2D" stroke-width="6" stroke-miterlimit="10" stroke-linecap="round"/>
<path d="M2399.2 47.8997L2421.4 30.8997C2451.2 8.09974 2494 14.0997 2516.3 44.3997L3061.9 708.6L2782.6 1331.5" stroke="#3FB1B5" stroke-width="6" stroke-miterlimit="10" stroke-linecap="round"/>
<path d="M3053 742.5C3069.9 742.5 3083.6 728.8 3083.6 711.9C3083.6 695 3069.9 681.3 3053 681.3C3036.1 681.3 3022.4 695 3022.4 711.9C3022.4 728.8 3036.1 742.5 3053 742.5Z" fill="white" stroke="#FFCF2D" stroke-width="6" stroke-miterlimit="10" stroke-linecap="round"/>
<path d="M2705 1261.9H2854.1C2897 1261.9 2931.7 1296.7 2931.7 1339.5V1341.7H2627.3V1339.5C2627.4 1296.7 2662.1 1261.9 2705 1261.9Z" fill="white" stroke="#FFCF2D" stroke-width="6" stroke-miterlimit="10" stroke-linecap="round"/>
<path d="M1982.7 1114.6H1038.8C1003.3 1114.6 974.6 1085.9 974.6 1050.4V390.2C974.6 354.7 1003.3 326 1038.8 326H1982.7C2018.2 326 2046.9 354.7 2046.9 390.2V1050.3C2047 1085.8 2018.2 1114.6 1982.7 1114.6Z" fill="white" stroke="#3FB1B5" stroke-width="6" stroke-miterlimit="10" stroke-linecap="round"/>
<path d="M1983.3 1053.2H1048.5C1034.6 1053.2 1023.4 1041.9 1023.4 1028.1V396.5C1023.4 382.6 1034.7 371.4 1048.5 371.4H1983.3C1997.2 371.4 2008.4 382.7 2008.4 396.5V1028C2008.5 1041.9 1997.2 1053.2 1983.3 1053.2Z" fill="#66B0F0" stroke="#66B0F0" stroke-width="6" stroke-miterlimit="10" stroke-linejoin="round"/>
<path d="M1082 430.4H1067.2C1062.4 430.4 1058.4 426.5 1058.4 421.6V406.8C1058.4 402 1062.3 398 1067.2 398H1082C1086.8 398 1090.8 401.9 1090.8 406.8V421.6C1090.7 426.5 1086.8 430.4 1082 430.4Z" stroke="white" stroke-width="6" stroke-miterlimit="10" stroke-linecap="round"/>
<path d="M1149.3 430.4H1134.5C1129.7 430.4 1125.7 426.5 1125.7 421.6V406.8C1125.7 402 1129.6 398 1134.5 398H1149.3C1154.1 398 1158.1 401.9 1158.1 406.8V421.6C1158.1 426.5 1154.1 430.4 1149.3 430.4Z" stroke="white" stroke-width="6" stroke-miterlimit="10" stroke-linecap="round"/>
<path d="M1216.6 430.4H1201.8C1197 430.4 1193 426.5 1193 421.6V406.8C1193 402 1196.9 398 1201.8 398H1216.6C1221.4 398 1225.4 401.9 1225.4 406.8V421.6C1225.4 426.5 1221.5 430.4 1216.6 430.4Z" stroke="white" stroke-width="6" stroke-miterlimit="10" stroke-linecap="round"/>
<path d="M1710 1339.7H1343.6L1415.5 1114.6H1638L1710 1339.7Z" fill="white" stroke="#3FB1B5" stroke-width="6" stroke-miterlimit="10" stroke-linecap="round"/>
<path d="M1372.4 1249.6L1415.5 1114.6H1638L1372.4 1249.6Z" fill="#3FB1B5"/>
<path d="M1928.9 578.5H1750.8C1734.1 578.5 1720.6 565 1720.6 548.3V433.3C1720.6 416.6 1734.1 403.1 1750.8 403.1H1928.9C1945.6 403.1 1959.1 416.6 1959.1 433.3V548.3C1959.1 565 1945.6 578.5 1928.9 578.5Z" stroke="white" stroke-width="6" stroke-miterlimit="10" stroke-linecap="round"/>
<path d="M1771.5 444.1H1907.4" stroke="white" stroke-width="6" stroke-miterlimit="10" stroke-linecap="round"/>
<path d="M1771.5 475.1H1907.4" stroke="white" stroke-width="6" stroke-miterlimit="10" stroke-linecap="round"/>
<path d="M1771.5 506.1H1907.4" stroke="white" stroke-width="6" stroke-miterlimit="10" stroke-linecap="round"/>
<path d="M1771.5 537.1H1907.4" stroke="white" stroke-width="6" stroke-miterlimit="10" stroke-linecap="round"/>
<path d="M1978.1 1053.2H1270.2L1228.7 1112.7C1181.8 1179.9 1082.7 1180.9 1034.5 1114.6L781.7 766.9C792.3 780.1 840.8 765.4 887 735C933.9 704.1 964.2 665.2 954.7 650.8L1130 874.2L1183.7 779.4C1198.4 754.3 1222.8 736.3 1251.2 729.7L1433.9 691H1591.4L1765 729.3C1795.2 736.2 1820.8 755.9 1835.3 783.2L1978.1 1053.2Z" fill="white" stroke="#3FB1B5" stroke-width="6" stroke-miterlimit="10"/>
<path d="M1783.8 1049.1L1733.5 949.8" stroke="#3FB1B5" stroke-width="6" stroke-miterlimit="10" stroke-linecap="round"/>
<path d="M1266.2 1058.4L1316 960.1" stroke="#3FB1B5" stroke-width="6" stroke-miterlimit="10" stroke-linecap="round"/>
<path d="M1061.8 787.5L1175.9 933.4" stroke="#3FB1B5" stroke-width="6" stroke-miterlimit="10" stroke-linecap="round"/>
<path d="M1532.3 739L1574.3 790.1L1668.3 710.3" stroke="#3FB1B5" stroke-width="6" stroke-miterlimit="10" stroke-linecap="round"/>
<path d="M1500.2 740L1459.4 792.1L1356.1 710.3" stroke="#3FB1B5" stroke-width="6" stroke-miterlimit="10" stroke-linecap="round"/>
<path d="M989.5 695.5C999 710 968.6 749.4 921.4 780.7C875 811.5 825.8 826.3 815.1 813" stroke="#3FB1B5" stroke-width="6" stroke-miterlimit="10" stroke-linecap="round"/>
<path d="M958.1 720.799C964.341 720.799 969.4 715.74 969.4 709.499C969.4 703.258 964.341 698.199 958.1 698.199C951.859 698.199 946.8 703.258 946.8 709.499C946.8 715.74 951.859 720.799 958.1 720.799Z" stroke="#3FB1B5" stroke-width="6" stroke-miterlimit="10" stroke-linecap="round"/>
<path d="M1516.1 791.799C1522.34 791.799 1527.4 786.74 1527.4 780.499C1527.4 774.258 1522.34 769.199 1516.1 769.199C1509.86 769.199 1504.8 774.258 1504.8 780.499C1504.8 786.74 1509.86 791.799 1516.1 791.799Z" stroke="#3FB1B5" stroke-width="6" stroke-miterlimit="10" stroke-linecap="round"/>
<path d="M1516.1 882.799C1522.34 882.799 1527.4 877.74 1527.4 871.499C1527.4 865.258 1522.34 860.199 1516.1 860.199C1509.86 860.199 1504.8 865.258 1504.8 871.499C1504.8 877.74 1509.86 882.799 1516.1 882.799Z" stroke="#3FB1B5" stroke-width="6" stroke-miterlimit="10" stroke-linecap="round"/>
<path d="M1225.1 1117.5L1270.2 1053.2V1117.5H1225.1Z" fill="#3FB1B5"/>
<path d="M885.9 732C839.7 762.4 791.2 777.1 780.6 763.9C780.4 763.7 780.3 763.5 780.1 763.2C777.9 759.9 778.1 755.4 780.1 749.9C787 731.8 815.5 703.8 851.7 680C880.5 661 908.9 647.8 928.6 643.7C940 641.4 948.5 642.1 952.6 646.5L953.6 647.7C963 662.1 932.8 701.1 885.9 732Z" fill="#FE5244"/>
<path d="M885.9 732C859.6 749.3 832.5 761.6 812.1 766.4L720.8 637.6C708.1 619.6 712.3 594.7 730.4 582L812.6 524.2L766 444.9C759.2 433.4 763.1 418.5 774.7 411.8C778.5 409.6 782.6 408.6 786.7 408.6C794.6 408.6 802.4 412.5 807 419.7L952.7 646.3L953.7 647.9C963 662.1 932.8 701.1 885.9 732Z" fill="#E57281"/>
<path d="M812.4 525.1L863.3 604C868 611.4 865.9 621.2 858.5 626L847.2 633.4C839.8 638.3 829.8 636.2 825 628.8L776.9 556.8" stroke="#9A3B82" stroke-width="6" stroke-miterlimit="10" stroke-linecap="round"/>
<path d="M824.8 628.6C829.7 636.1 827.5 646.2 820 651L809.7 657.5C802.3 662.2 792.5 660.1 787.7 652.8" stroke="#9A3B82" stroke-width="6" stroke-miterlimit="10" stroke-linecap="round"/>
<path d="M740.4 582.199L787.5 652.199C792.4 659.699 790.3 669.799 782.6 674.599L773 679.899C765.8 684.499 756.3 682.599 751.3 675.599L724 637.099" stroke="#9A3B82" stroke-width="6" stroke-miterlimit="10" stroke-linecap="round"/>
<path d="M918.7 593.499L894.8 556.399C886.9 544.099 870.4 540.699 858.3 548.899L799 589.099C799 589.099 816.2 619.999 858 595.499L872 617.799C843.4 635.899 835.2 673.999 853.8 702.299L918.7 593.499Z" fill="#E57281"/>
<path d="M915.6 594.499L891.7 557.399C883.8 545.099 867.3 541.699 855.2 549.899L799 589.099C799 589.099 816.2 619.999 858 595.499L872 617.799C843.4 635.899 835.2 673.999 853.8 702.299" stroke="#9A3B82" stroke-width="6" stroke-miterlimit="10" stroke-linecap="round"/>
<path d="M885.9 731.999C859.6 749.299 832.5 761.599 812.1 766.399L789.4 734.399C802.1 717.799 824.8 697.799 851.7 680.099C880.5 661.099 908.9 647.899 928.6 643.799C940 641.499 948.5 642.199 952.6 646.599L953.6 647.799C953.7 647.999 953.8 648.099 953.9 648.299C954 648.399 954 648.499 954.1 648.699C954.2 648.899 954.3 648.999 954.4 649.199C961.2 664.499 931.3 701.999 885.9 731.999Z" fill="#9A3B82"/>
<path d="M1591.3 602.999V690.899C1591.3 716.399 1555.9 736.999 1512.4 736.999C1468.8 736.999 1433.5 716.399 1433.5 690.899V602.999H1591.3Z" fill="#E57281"/>
<path d="M1456.6 723.499C1442.3 715.199 1433.4 703.599 1433.4 690.899V602.999H1591.3V627.399C1591.3 652.699 1575.9 675.399 1552.5 684.899L1456.6 723.499Z" fill="#9A3B82"/>
<path d="M1635.3 597.799V599.299C1635.3 614.499 1623 626.799 1607.8 626.799H1589.7C1583.6 651.399 1561.4 669.699 1534.8 669.699H1490C1463.5 669.699 1441.2 651.499 1435.2 626.799H1417.1C1401.9 626.799 1389.6 614.499 1389.6 599.299V597.799C1389.6 582.599 1401.9 570.299 1417.1 570.299H1433.5V548.599C1433.5 525.399 1450.6 506.199 1472.9 502.999C1477.8 511.199 1492.6 530.799 1522.8 529.699C1537 529.199 1550.2 526.499 1561.1 523.299C1574.2 519.499 1587.3 527.499 1590.6 539.999C1591.1 542.799 1591.4 545.599 1591.4 548.499V570.199H1607.8C1622.9 570.199 1635.3 582.599 1635.3 597.799Z" fill="#E57281"/>
<path d="M1603.9 570.199H1591.3V546.099C1591.3 543.999 1591 541.899 1590.5 539.999C1587.2 527.499 1574.1 519.499 1561 523.299C1550.1 526.499 1537 529.199 1522.7 529.699C1492.5 530.799 1477.7 511.199 1472.8 502.999C1450.5 506.199 1433.4 525.399 1433.4 548.599V570.299H1417.7C1417.7 570.299 1399.7 505.199 1413.2 486.799C1426.5 468.699 1442.5 476.599 1442.5 476.599C1442.5 476.599 1432.9 422.399 1486.5 423.399C1540 424.399 1609.6 486.499 1614.7 497.899C1622.7 515.399 1603.9 570.199 1603.9 570.199Z" fill="#9A3B82"/>
<path d="M1597.4 602.9C1597.4 592.2 1606.1 583.6 1616.7 583.6" stroke="#9A3B82" stroke-width="5" stroke-miterlimit="10" stroke-linecap="round"/>
<path d="M1427.6 602.9C1427.6 592.2 1418.9 583.6 1408.3 583.6" stroke="#9A3B82" stroke-width="5" stroke-miterlimit="10" stroke-linecap="round"/>
<path d="M1566.1 548.599C1566.1 548.599 1551.9 538.2 1533.8 545.7" stroke="#9A3B82" stroke-width="5" stroke-miterlimit="10" stroke-linecap="round"/>
<path d="M1457.7 548.599C1457.7 548.599 1471.9 538.2 1490 545.7" stroke="#9A3B82" stroke-width="5" stroke-miterlimit="10" stroke-linecap="round"/>
<path d="M1537.3 622.399C1537.3 622.399 1529.6 638.999 1506 630.299" stroke="#9A3B82" stroke-width="5" stroke-miterlimit="10" stroke-linecap="round"/>
<path d="M1504.9 613.8C1511 614.2 1520.3 613.8 1520.3 613.8" stroke="#9A3B82" stroke-width="5" stroke-miterlimit="10" stroke-linecap="round"/>
<path d="M1550 590.3C1552.76 590.3 1555 586.539 1555 581.9C1555 577.261 1552.76 573.5 1550 573.5C1547.24 573.5 1545 577.261 1545 581.9C1545 586.539 1547.24 590.3 1550 590.3Z" fill="#9A3B82"/>
<path d="M1478.3 590.3C1481.06 590.3 1483.3 586.539 1483.3 581.9C1483.3 577.261 1481.06 573.5 1478.3 573.5C1475.54 573.5 1473.3 577.261 1473.3 581.9C1473.3 586.539 1475.54 590.3 1478.3 590.3Z" fill="#9A3B82"/>
<path d="M1490.2 610.199H1458.7C1452.6 610.199 1447.7 605.299 1447.7 599.199V567.699C1447.7 561.599 1452.6 556.699 1458.7 556.699H1490.2C1496.3 556.699 1501.2 561.599 1501.2 567.699V599.199C1501.3 605.199 1496.3 610.199 1490.2 610.199Z" stroke="white" stroke-width="5" stroke-miterlimit="10"/>
<path d="M1567.3 610.199H1535.8C1529.7 610.199 1524.8 605.299 1524.8 599.199V567.699C1524.8 561.599 1529.7 556.699 1535.8 556.699H1567.3C1573.4 556.699 1578.3 561.599 1578.3 567.699V599.199C1578.3 605.199 1573.4 610.199 1567.3 610.199Z" stroke="white" stroke-width="5" stroke-miterlimit="10"/>
<path d="M1501.3 577.499H1524.8" stroke="white" stroke-width="5" stroke-miterlimit="10"/>
<path d="M1575.6 1014.4H1466.3C1456.4 1014.4 1448.3 1006.4 1448.3 996.4V938.3C1448.3 928.4 1456.3 920.3 1466.3 920.3H1575.6C1585.5 920.3 1593.6 928.3 1593.6 938.3V996.4C1593.6 1006.3 1585.6 1014.4 1575.6 1014.4Z" stroke="#66B0F0" stroke-width="6" stroke-miterlimit="10" stroke-linejoin="round"/>
<path d="M1523.7 990.999H1486.7C1480.8 990.999 1476 986.199 1476 980.299V954.399C1476 948.499 1480.8 943.699 1486.7 943.699H1523.7C1529.6 943.699 1534.4 948.499 1534.4 954.399V980.299C1534.4 986.199 1529.6 990.999 1523.7 990.999Z" fill="#66B0F0"/>
<path d="M1559.7 990.3L1548.3 982.7C1545.2 980.6 1543.3 977 1543.3 973.1V961.7C1543.3 957.8 1545.2 954.2 1548.3 952.1L1559.7 944.5C1562.4 942.7 1565.9 944.7 1565.9 948.1V986.8C1566 990.1 1562.4 992.1 1559.7 990.3Z" fill="#66B0F0"/>
<path d="M3037.4 1341.7H382.7" stroke="#3FB1B5" stroke-width="6" stroke-miterlimit="10" stroke-linecap="round"/>
<path d="M1237.4 1359.2V2593.8H1167.7V2358.8C1167.7 2336.9 1149.9 2319.1 1128 2319.1H629.1C607.2 2319.1 589.4 2336.9 589.4 2358.8V2593.8H519.7V1359.2H1237.4Z" fill="white" stroke="#3FB1B5" stroke-width="6" stroke-miterlimit="10" stroke-linecap="round"/>
<path d="M1239.5 1359.2V1686.8L519.7 2279.5L519.8 1359.2H1239.5Z" fill="#D0F0E4"/>
<path d="M1167.7 1453.2V1677.1C1167.7 1697.9 1150.9 1714.7 1130.1 1714.7H627.1C606.3 1714.7 589.5 1697.9 589.5 1677.1V1453.2C589.5 1432.4 606.3 1415.6 627.1 1415.6H1130.1C1150.9 1415.6 1167.7 1432.4 1167.7 1453.2Z" stroke="#3FB1B5" stroke-width="6" stroke-miterlimit="10" stroke-linecap="round"/>
<path d="M1006.5 1884.3H758.9L748.6 1813.4H996.3L1006.5 1884.3Z" fill="#FFCF2D"/>
<path d="M1138.6 1772.5C1107.7 1772.5 1082.7 1797.5 1082.7 1828.4V1884.3H872V1828.4C872 1797.5 897 1772.5 927.9 1772.5H1138.6Z" fill="white" stroke="#3FB1B5" stroke-width="6" stroke-miterlimit="10" stroke-linecap="round"/>
<path d="M1191.1 1813.4H980.4C973.9 1789.8 952.2 1772.5 926.5 1772.5H1137.2C1162.9 1772.5 1184.5 1789.8 1191.1 1813.4Z" fill="white" stroke="#3FB1B5" stroke-width="6" stroke-miterlimit="10" stroke-linecap="round"/>
<path d="M1167.7 1921.9V2145.8C1167.7 2166.6 1150.9 2183.4 1130.1 2183.4H627.1C606.3 2183.4 589.5 2166.6 589.5 2145.8V1921.9C589.5 1901.1 606.3 1884.3 627.1 1884.3H1130.1C1150.9 1884.3 1167.7 1901.1 1167.7 1921.9Z" stroke="#3FB1B5" stroke-width="6" stroke-miterlimit="10" stroke-linecap="round"/>
<path d="M775.6 1560.7C775.6 1542.9 790 1528.4 807.9 1528.4H949.4C967.2 1528.4 981.7 1542.8 981.7 1560.7" stroke="#3FB1B5" stroke-width="6" stroke-miterlimit="10" stroke-linecap="round"/>
<path d="M775.6 2029.4C775.6 2011.6 790 1997.1 807.9 1997.1H949.4C967.2 1997.1 981.7 2011.5 981.7 2029.4" stroke="#3FB1B5" stroke-width="6" stroke-miterlimit="10" stroke-linecap="round"/>
<path d="M2931.7 1359.2H2857.4V2596.5H2931.7V1359.2Z" fill="white" stroke="#3FB1B5" stroke-width="6" stroke-miterlimit="10" stroke-linecap="round"/>
<path d="M1669 2596.5H3219.6" stroke="#3FB1B5" stroke-width="6" stroke-miterlimit="10" stroke-linecap="round"/>
<path d="M730.7 1172H685.8C685.8 1172 621.7 904.899 565.4 896.199C509.1 887.499 506.2 990.3 506.2 990.3C506.2 990.3 507.2 833.999 647.9 855.399C788.7 876.799 730.7 1172 730.7 1172Z" fill="white" stroke="#3FB1B5" stroke-width="6" stroke-miterlimit="10" stroke-linecap="round"/>
<path d="M576.9 862.2C576.9 862.2 705.2 814.8 711 1168" stroke="#3FB1B5" stroke-width="6" stroke-miterlimit="10" stroke-linecap="round"/>
<path d="M853 1168H642.1V1339.7H853V1168Z" fill="#FE5244"/>
<path d="M897.4 1253.9C884 1259.7 868 1259 853.1 1252.5C842.1 1247.7 831.7 1239.8 823.3 1229C811.7 1214 803.9 1193.5 803.9 1168C803.9 1106.2 754.7 1067.4 734.5 1149.2C733.1 1154.9 731.8 1161.1 730.7 1168V1167.8V1167.4C730.7 1167.2 730.7 1166.9 730.8 1166.6V1166.2C731.2 1161.1 732.7 1146 737.3 1127.8C740.7 1114.3 745.8 1099.3 753.4 1085.4C757.2 1078.5 761.6 1071.9 766.8 1066C780.2 1050.6 798.6 1039.8 823.7 1039.8C869.9 1039.8 903.7 1094.2 916.6 1148.4C927.9 1195.5 923.3 1242.6 897.4 1253.9Z" fill="white" stroke="#3FB1B5" stroke-width="6" stroke-miterlimit="10" stroke-linecap="round"/>
<path d="M766.9 1066C766.9 1066 859.5 1000.1 886.7 1255.8" stroke="#3FB1B5" stroke-width="6" stroke-miterlimit="10" stroke-linecap="round"/>
<path d="M503.2 990.299C503.2 1006.8 501.3 1069.9 561.5 1072.8C621.7 1075.7 627.7 984.799 627.7 984.799C627.7 984.799 598.1 904.399 565.4 896.199C510.1 882.299 503.2 990.299 503.2 990.299Z" fill="#3FB1B5"/>
<path d="M803.9 1168H730.7C747.6 1062.1 803.9 1101.9 803.9 1168Z" fill="#3FB1B5"/>
<path opacity="0.4" d="M2047 390.2V1050.3C2047 1085.8 2018.2 1114.5 1982.8 1114.5H1227.3C1179.9 1179.8 1082.2 1180.1 1034.4 1114.5L1034.3 1114.4C1015.3 1113.1 998.5 1103.4 987.7 1089.1L1005.1 1074.1L1449.1 690.9L1871.9 326H1982.8C2018.2 326 2047 354.8 2047 390.2Z" fill="white"/>
<path opacity="0.4" d="M897.4 1256.9C884.1 1262.9 868 1262 853.1 1255.5V1339.7H697.4L823.4 1231L853.2 1205.3L875.9 1185.7L919.8 1148.4C932.6 1203 925.5 1244 897.4 1256.9Z" fill="white"/>
<path d="M77.9 420C76.7 420 75.5 419.2 75.1 418C74.6 416.4 75.4 414.7 76.9 414.2L86.3 410.9C87.9 410.4 89.6 411.2 90.1 412.7C90.6 414.3 89.8 416 88.3 416.5L78.9 419.8C78.5 419.9 78.2 420 77.9 420ZM101.5 411.8C100.3 411.8 99.1 411 98.7 409.8C98.2 408.2 99 406.5 100.5 406L109.9 402.7C111.5 402.2 113.2 403 113.7 404.5C114.2 406.1 113.4 407.8 111.9 408.3L102.5 411.6C102.2 411.7 101.8 411.8 101.5 411.8ZM125.1 403.5C123.9 403.5 122.7 402.7 122.3 401.5C121.8 399.9 122.6 398.2 124.1 397.7L133.5 394.4C135.1 393.9 136.8 394.7 137.3 396.2C137.8 397.8 137 399.5 135.5 400L126.1 403.3C125.8 403.5 125.4 403.5 125.1 403.5ZM148.7 395.3C147.5 395.3 146.3 394.5 145.9 393.3C145.4 391.7 146.2 390 147.7 389.5L157.1 386.2C158.7 385.7 160.4 386.5 160.9 388C161.4 389.6 160.6 391.3 159.1 391.8L149.7 395.1C149.4 395.3 149.1 395.3 148.7 395.3ZM172.3 387.1C171.1 387.1 169.9 386.3 169.5 385.1C169 383.5 169.8 381.8 171.3 381.3L180.7 378C182.3 377.5 184 378.3 184.5 379.8C185 381.4 184.2 383.1 182.7 383.6L173.3 386.9C173 387.1 172.7 387.1 172.3 387.1ZM196 378.9C194.8 378.9 193.6 378.1 193.2 376.9C192.7 375.3 193.5 373.6 195 373.1L204.4 369.8C206 369.3 207.7 370.1 208.2 371.6C208.7 373.2 207.9 374.9 206.4 375.4L197 378.7C196.6 378.9 196.3 378.9 196 378.9ZM219.6 370.7C218.4 370.7 217.2 369.9 216.8 368.7C216.3 367.1 217.1 365.4 218.6 364.9L228 361.6C229.6 361.1 231.3 361.9 231.8 363.4C232.3 365 231.5 366.7 230 367.2L220.6 370.5C220.2 370.6 219.9 370.7 219.6 370.7ZM243.2 362.5C242 362.5 240.8 361.7 240.4 360.5C239.9 358.9 240.7 357.2 242.2 356.7L251.6 353.4C253.2 352.9 254.9 353.7 255.4 355.2C255.9 356.8 255.1 358.5 253.6 359L244.2 362.3C243.8 362.4 243.5 362.5 243.2 362.5ZM266.8 354.3C265.6 354.3 264.4 353.5 264 352.3C263.5 350.7 264.3 349 265.8 348.5L275.2 345.2C276.8 344.7 278.5 345.5 279 347C279.5 348.6 278.7 350.3 277.2 350.8L267.8 354.1C267.5 354.2 267.1 354.3 266.8 354.3ZM290.4 346.1C289.2 346.1 288 345.3 287.6 344.1C287.1 342.5 287.9 340.8 289.4 340.3L298.8 337C300.4 336.5 302.1 337.3 302.6 338.8C303.1 340.4 302.3 342.1 300.8 342.6L291.4 345.9C291.1 346 290.7 346.1 290.4 346.1ZM314 337.9C312.8 337.9 311.6 337.1 311.2 335.9C310.7 334.3 311.5 332.6 313 332.1L322.4 328.8C324 328.3 325.7 329.1 326.2 330.6C326.7 332.2 325.9 333.9 324.4 334.4L315 337.7C314.7 337.8 314.3 337.9 314 337.9ZM337.6 329.6C336.4 329.6 335.2 328.8 334.8 327.6C334.3 326 335.1 324.3 336.6 323.8L346 320.5C347.6 320 349.3 320.8 349.8 322.3C350.3 323.9 349.5 325.6 348 326.1L338.6 329.4C338.3 329.6 338 329.6 337.6 329.6ZM361.2 321.4C360 321.4 358.8 320.6 358.4 319.4C357.9 317.8 358.7 316.1 360.2 315.6L369.6 312.3C371.2 311.8 372.9 312.6 373.4 314.1C373.9 315.7 373.1 317.4 371.6 317.9L362.2 321.2C361.9 321.4 361.6 321.4 361.2 321.4ZM384.9 313.2C383.7 313.2 382.5 312.4 382.1 311.2C381.6 309.6 382.4 307.9 383.9 307.4L393.3 304.1C394.9 303.6 396.6 304.4 397.1 305.9C397.6 307.5 396.8 309.2 395.3 309.7L385.9 313C385.5 313.2 385.2 313.2 384.9 313.2ZM408.5 305C407.3 305 406.1 304.2 405.7 303C405.2 301.4 406 299.7 407.5 299.2L416.9 295.9C418.5 295.4 420.2 296.2 420.7 297.7C421.2 299.3 420.4 301 418.9 301.5L409.5 304.8C409.1 305 408.8 305 408.5 305ZM432.1 296.8C430.9 296.8 429.7 296 429.3 294.8C428.8 293.2 429.6 291.5 431.1 291L440.5 287.7C442.1 287.2 443.8 288 444.3 289.5C444.8 291.1 444 292.8 442.5 293.3L433.1 296.6C432.7 296.8 432.4 296.8 432.1 296.8ZM455.7 288.6C454.5 288.6 453.3 287.8 452.9 286.6C452.4 285 453.2 283.3 454.7 282.8L464.1 279.5C465.7 279 467.4 279.8 467.9 281.3C468.4 282.9 467.6 284.6 466.1 285.1L456.7 288.4C456.4 288.5 456 288.6 455.7 288.6ZM479.3 280.4C478.1 280.4 476.9 279.6 476.5 278.4C476 276.8 476.8 275.1 478.3 274.6L487.7 271.3C489.3 270.8 491 271.6 491.5 273.1C492 274.7 491.2 276.4 489.7 276.9L480.3 280.2C480 280.3 479.6 280.4 479.3 280.4Z" fill="#FFCF2D"/>
<path d="M184.3 420.001C182.6 420.001 181.3 418.701 181.3 417.001C181.3 389.901 172.9 370.201 156.2 358.601C143.7 349.901 131 349.101 130.9 349.101C129.2 349.001 128 347.601 128.1 345.901C128.2 344.201 129.6 343.001 131.2 343.101C131.8 343.101 145.5 343.901 159.4 353.501C182.5 369.501 187.3 396.901 187.3 417.001C187.3 418.601 186 420.001 184.3 420.001Z" fill="#3FB1B5"/>
<path d="M662.1 420H77.9002C76.8002 420 75.7002 419.4 75.2002 418.3C74.7002 417.3 74.8002 416.1 75.5002 415.2L312.9 98.7004C313.4 98.0004 314.2 97.6004 315 97.5004C315.8 97.4004 316.7 97.7004 317.3 98.3004L664.2 414.8C665.1 415.6 665.4 416.9 665 418.1C664.5 419.2 663.4 420 662.1 420ZM83.9002 414H654.4L315.7 104.9L83.9002 414Z" fill="#3FB1B5"/>
<path d="M25.4 440.8C11.1 440.8 -0.5 429.2 -0.5 414.9C-0.5 400.6 11.1 389 25.4 389C39.7 389 51.3 400.6 51.3 414.9C51.3 429.2 39.7 440.8 25.4 440.8ZM25.4 394.9C14.4 394.9 5.5 403.8 5.5 414.8C5.5 425.8 14.4 434.7 25.4 434.7C36.4 434.7 45.3 425.8 45.3 414.8C45.3 403.8 36.4 394.9 25.4 394.9Z" fill="#FFCF2D"/>
<path d="M51.2998 414.9H45.2998V437.8H51.2998V414.9Z" fill="#FFCF2D"/>
<path d="M333 79.0002C318.7 79.0002 307.1 67.4002 307.1 53.1002C307.1 38.8002 318.7 27.2002 333 27.2002C347.3 27.2002 358.9 38.8002 358.9 53.1002C358.9 67.3002 347.3 79.0002 333 79.0002ZM333 33.1002C322 33.1002 313.1 42.0002 313.1 53.0002C313.1 64.0002 322 73.0002 333 73.0002C344 73.0002 352.9 64.1002 352.9 53.1002C352.9 42.1002 344 33.1002 333 33.1002Z" fill="#FFCF2D"/>
<path d="M312.9 13H306.9V75.9H312.9V13Z" fill="#FFCF2D"/>
<path d="M708.8 440.2C694.5 440.2 682.9 428.6 682.9 414.3C682.9 400 694.5 388.4 708.8 388.4V394.4C697.8 394.4 688.9 403.3 688.9 414.3C688.9 425.3 697.8 434.2 708.8 434.2V440.2Z" fill="#FFCF2D"/>
<path d="M2223.3 1701.2V2257.8H2094.7L2012.8 2029.1L1895.5 1701.2H2223.3Z" fill="#A0505A"/>
<path d="M1895.5 1701.2H2223.3V1879.9L1934.5 1810.1L1895.5 1701.2Z" fill="#73325A"/>
<path d="M2223.3 2029.1V2257.8H2094.7L2012.8 2029.1C2012.8 2029.1 2079.1 2065.7 2223.3 2029.1Z" stroke="white" stroke-width="6" stroke-miterlimit="10" stroke-linecap="round"/>
<path d="M2079.7 2082.8C2087.76 2082.8 2094.3 2076.26 2094.3 2068.2C2094.3 2060.14 2087.76 2053.6 2079.7 2053.6C2071.64 2053.6 2065.1 2060.14 2065.1 2068.2C2065.1 2076.26 2071.64 2082.8 2079.7 2082.8Z" stroke="white" stroke-width="6" stroke-miterlimit="10" stroke-linecap="round"/>
<path d="M2149.3 2129.9C2157.36 2129.9 2163.9 2123.36 2163.9 2115.3C2163.9 2107.24 2157.36 2100.7 2149.3 2100.7C2141.24 2100.7 2134.7 2107.24 2134.7 2115.3C2134.7 2123.36 2141.24 2129.9 2149.3 2129.9Z" stroke="white" stroke-width="6" stroke-miterlimit="10" stroke-linecap="round"/>
<path d="M2201.1 2077.6C2209.16 2077.6 2215.7 2071.06 2215.7 2063C2215.7 2054.94 2209.16 2048.4 2201.1 2048.4C2193.04 2048.4 2186.5 2054.94 2186.5 2063C2186.5 2071.06 2193.04 2077.6 2201.1 2077.6Z" stroke="white" stroke-width="6" stroke-miterlimit="10" stroke-linecap="round"/>
<path d="M2180.6 2184.7C2188.66 2184.7 2195.2 2178.16 2195.2 2170.1C2195.2 2162.04 2188.66 2155.5 2180.6 2155.5C2172.54 2155.5 2166 2162.04 2166 2170.1C2166 2178.16 2172.54 2184.7 2180.6 2184.7Z" stroke="white" stroke-width="6" stroke-miterlimit="10" stroke-linecap="round"/>
<path d="M2094.3 2158.1C2102.36 2158.1 2108.9 2151.56 2108.9 2143.5C2108.9 2135.44 2102.36 2128.9 2094.3 2128.9C2086.24 2128.9 2079.7 2135.44 2079.7 2143.5C2079.7 2151.56 2086.24 2158.1 2094.3 2158.1Z" stroke="white" stroke-width="6" stroke-miterlimit="10" stroke-linecap="round"/>
<path d="M2118.1 2238.1C2126.16 2238.1 2132.7 2231.56 2132.7 2223.5C2132.7 2215.44 2126.16 2208.9 2118.1 2208.9C2110.04 2208.9 2103.5 2215.44 2103.5 2223.5C2103.5 2231.56 2110.04 2238.1 2118.1 2238.1Z" stroke="white" stroke-width="6" stroke-miterlimit="10" stroke-linecap="round"/>
<path d="M2284.1 2361.6L2195.9 2544.7C2183.4 2574.2 2154.5 2593.4 2122.4 2593.4H2009.9C1981.1 2593.4 1963.6 2564.2 1974.6 2537.6L2087.7 2264.8C2094 2248.2 2105.1 2234.4 2119 2224.7C2133 2215 2149.8 2209.5 2167.5 2209.5C2192.1 2209.5 2216.5 2226.2 2232.7 2244.7L2271.9 2287C2290 2307.6 2294.7 2336.5 2284.1 2361.6Z" fill="#66B0F0"/>
<path d="M2284.1 2361.6L2195.9 2544.7C2183.4 2574.2 2154.5 2593.4 2122.4 2593.4H2002.8C1991.7 2593.4 1985.4 2586.5 1981.7 2577H2008.3C2040.4 2577 2069.3 2557.8 2081.8 2528.3L2183.5 2316.2C2193 2296.4 2213.1 2283.7 2235.1 2283.7C2263.8 2283.7 2285.6 2304.7 2289.6 2331.3C2290 2341.5 2288.2 2351.8 2284.1 2361.6Z" fill="white" stroke="#66B0F0" stroke-width="6" stroke-miterlimit="10" stroke-linejoin="round"/>
<path d="M2263.8 2278.2C2253.2 2272.4 2240.4 2268.2 2229.2 2268.2C2207.7 2268.2 2187.8 2280.7 2178.5 2300.1L2073.2 2519.7C2059.8 2551.4 2028.8 2571.9 1994.3 2571.9H1974.9C1973.9 2570 1973.2 2568 1972.5 2565.9H1994.3C2026.4 2565.9 2055.2 2546.8 2067.7 2517.3L2067.8 2517.2L2173.2 2297.5C2183.5 2276 2205.5 2262.2 2229.3 2262.2C2236.9 2262.2 2246 2264.7 2253.8 2267.4L2263.8 2278.2Z" fill="white"/>
<path d="M1895.5 1701.2L1870.4 2029.1L1859.2 2176C1859.2 2176 1786.1 2257.4 1702.9 2207.2L1664.4 2029.2L1576.3 1621.9C1552.5 1511.8 1627.7 1404.7 1739.4 1389.8L1895.5 1701.2Z" fill="#A0505A"/>
<path d="M1870.4 2029.1L1859.2 2180C1859.2 2180 1786.1 2261.4 1702.9 2211.2L1664.4 2029.2C1761.1 2058.2 1870.4 2029.1 1870.4 2029.1Z" stroke="white" stroke-width="6" stroke-miterlimit="10" stroke-linecap="round"/>
<path d="M1755.5 2119.8C1763.56 2119.8 1770.1 2113.26 1770.1 2105.2C1770.1 2097.14 1763.56 2090.6 1755.5 2090.6C1747.44 2090.6 1740.9 2097.14 1740.9 2105.2C1740.9 2113.26 1747.44 2119.8 1755.5 2119.8Z" stroke="white" stroke-width="6" stroke-miterlimit="10" stroke-linecap="round"/>
<path d="M1848.3 2097.4C1856.36 2097.4 1862.9 2090.86 1862.9 2082.8C1862.9 2074.74 1856.36 2068.2 1848.3 2068.2C1840.24 2068.2 1833.7 2074.74 1833.7 2082.8C1833.7 2090.86 1840.24 2097.4 1848.3 2097.4Z" stroke="white" stroke-width="6" stroke-miterlimit="10" stroke-linecap="round"/>
<path d="M1699.5 2077.6C1707.56 2077.6 1714.1 2071.06 1714.1 2063C1714.1 2054.94 1707.56 2048.4 1699.5 2048.4C1691.44 2048.4 1684.9 2054.94 1684.9 2063C1684.9 2071.06 1691.44 2077.6 1699.5 2077.6Z" stroke="white" stroke-width="6" stroke-miterlimit="10" stroke-linecap="round"/>
<path d="M1740.9 2199.3C1748.96 2199.3 1755.5 2192.76 1755.5 2184.7C1755.5 2176.64 1748.96 2170.1 1740.9 2170.1C1732.84 2170.1 1726.3 2176.64 1726.3 2184.7C1726.3 2192.76 1732.84 2199.3 1740.9 2199.3Z" stroke="white" stroke-width="6" stroke-miterlimit="10" stroke-linecap="round"/>
<path d="M1809 2170.1C1817.06 2170.1 1823.6 2163.56 1823.6 2155.5C1823.6 2147.44 1817.06 2140.9 1809 2140.9C1800.94 2140.9 1794.4 2147.44 1794.4 2155.5C1794.4 2163.56 1800.94 2170.1 1809 2170.1Z" stroke="white" stroke-width="6" stroke-miterlimit="10" stroke-linecap="round"/>
<path d="M1955.6 2211L1859.2 2596.5H1828.8C1827.4 2596.5 1826.1 2596.4 1824.7 2596.3C1801.7 2594.2 1782.3 2574.8 1777.4 2551.9L1702.8 2207C1786 2257.3 1859.2 2175.9 1859.2 2175.9L1955.6 2211Z" fill="#66B0F0"/>
<path d="M1960.5 2408.8C1980.8 2301.6 1986.4 2219.7 1951.4 2213.1C1916.4 2206.5 1854.1 2277.6 1833.8 2384.8C1813.5 2492 1824.1 2586.8 1859.1 2593.4C1894.1 2600.1 1940.2 2516.1 1960.5 2408.8Z" fill="white" stroke="#66B0F0" stroke-width="6" stroke-miterlimit="10" stroke-linejoin="round"/>
<path d="M1819.8 2383.1C1809.3 2438.7 1806.2 2492.4 1811.2 2534.4C1814.8 2564.6 1822.4 2586.1 1832.8 2596.5H1828.8C1827.4 2596.5 1826.1 2596.4 1824.7 2596.3C1815.3 2583.9 1808.6 2563.1 1805.2 2535.1C1800.1 2492.6 1803.2 2438.2 1813.9 2382C1824 2328.8 1844.4 2278.9 1871.5 2241.4C1887.7 2219 1904.7 2203.3 1920.2 2196.2L1929.2 2199.2C1893.5 2209.8 1839.3 2280.2 1819.8 2383.1Z" fill="white"/>
<path d="M1739.4 1389.7L2195.6 1342.7L2651.6 1470.6L2647.7 1531.2C2641.5 1626.8 2559.1 1701.2 2463.3 1701.2H1895.6L1739.4 1389.7Z" fill="#FE5244"/>
<path d="M2625.6 1466.2C2625.6 1553 2539 1659.2 2443.2 1659.2H1875.5" stroke="white" stroke-width="6" stroke-miterlimit="10" stroke-linecap="round" stroke-linejoin="round"/>
<path d="M2571.5 1448.9C2557.3 1526.4 2481.5 1609.2 2398.5 1609.2H1852.5" stroke="white" stroke-width="6" stroke-miterlimit="10" stroke-linecap="round" stroke-linejoin="round"/>
<path d="M2510 1430.5C2486 1496.3 2420.9 1558.2 2350.4 1558.2H1823.5" stroke="white" stroke-width="6" stroke-miterlimit="10" stroke-linecap="round" stroke-linejoin="round"/>
<path d="M2462.7 1417.6C2431.2 1465.5 2379.5 1503.2 2324.4 1503.2H1797.5" stroke="white" stroke-width="6" stroke-miterlimit="10" stroke-linecap="round" stroke-linejoin="round"/>
<path d="M2409.9 1402.8C2379.6 1433.3 2340.4 1453.2 2299.4 1453.2H1772.5" stroke="white" stroke-width="6" stroke-miterlimit="10" stroke-linecap="round" stroke-linejoin="round"/>
<path d="M2341.2 1382.9C2319.8 1395 2296.4 1402.2 2272.4 1402.2H1745.5" stroke="white" stroke-width="6" stroke-miterlimit="10" stroke-linecap="round" stroke-linejoin="round"/>
<path d="M1894.5 1701.2L1738.4 1389.7" stroke="white" stroke-width="6" stroke-miterlimit="10" stroke-linecap="round" stroke-linejoin="round"/>
<path d="M2676.6 1053.2C2633.6 1065.4 2591.3 1061.8 2586.8 1048.7C2582.6 1036.2 2601.6 1014.8 2640.1 1000.6C2642 999.9 2644 999.2 2646 998.5C2657.6 994.6 2669.2 992.1 2680.1 990.8C2712.4 986.7 2738.7 992.5 2742 1002.3C2746.5 1015.4 2722.1 1040.3 2676.6 1053.2Z" fill="white" stroke="#3FB1B5" stroke-width="6" stroke-miterlimit="10" stroke-linejoin="round"/>
<path d="M2649.4 1344.8H2632.9L2589.6 1052.5V1052.3L2588.5 1045C2590.6 1031.7 2611.4 1012.9 2648.1 1000.7C2666.4 994.6 2684.6 991.9 2700.1 991.6L2715.9 1034.9L2717.4 1039L2767.4 1176.1C2797.4 1258 2736.7 1344.8 2649.4 1344.8Z" fill="#A0505A"/>
<path d="M2716.9 1038C2706.4 1044.6 2692.8 1050.7 2676.6 1055.3C2639.4 1065.8 2601.7 1061.5 2589.6 1052.5V1052.3L2588.5 1045C2590.6 1031.7 2611.4 1012.9 2648.1 1000.7C2666.4 994.6 2684.6 991.9 2700.1 991.6L2716.9 1038Z" fill="#73325A"/>
<path d="M2113.8 1104.3L2061.3 1234.9C2035.4 1299.4 1972.8 1341.7 1903.2 1341.7H1197.5V1277.1C1197.5 1261.5 1207.1 1247.5 1221.7 1242L1294.2 1214.5C1300.8 1212 1307.7 1210.7 1314.7 1210.7H1397L1862.8 1163.7L1943.2 979.601L2113.8 1104.3Z" fill="#A0505A"/>
<path d="M1273.5 1254.2L1218.8 1274.9C1207.8 1279.1 1200.5 1289.6 1200.5 1301.4" stroke="#73325A" stroke-width="6" stroke-miterlimit="10" stroke-linecap="round"/>
<path d="M1273.5 1287.2L1218.8 1307.9C1207.8 1312.1 1200.5 1322.6 1200.5 1334.4" stroke="#73325A" stroke-width="6" stroke-miterlimit="10" stroke-linecap="round"/>
<path d="M1273.5 1319L1218.8 1338.7" stroke="#73325A" stroke-width="6" stroke-miterlimit="10" stroke-linecap="round"/>
<path d="M1267.8 1225.6C1267.8 1225.6 1319 1094.9 1335.4 1097.1C1351.8 1099.3 1290 1217.2 1290 1217.2L1267.8 1225.6Z" fill="#FE5244"/>
<path d="M1943.2 979.7L1931.4 1006.6L2082.5 1182.1L2113.8 1104.3L1943.2 979.7Z" fill="#73325A"/>
<path d="M2589.6 1052.6L2651.6 1470.6L2195.7 1342.7L2113.8 1104.2L1902.4 949.701L1976.6 861.301C2042.8 782.401 2140.5 736.801 2243.5 736.801H2390C2517.4 736.801 2634.7 806.401 2695.8 918.201L2743.3 1000.4C2743.3 1000.4 2729 979.401 2651.9 1000.5C2584 1019.2 2589.6 1052.6 2589.6 1052.6Z" fill="#3FB1B5"/>
<path d="M2113.8 1102.3L2137.5 999.501" stroke="white" stroke-width="6" stroke-miterlimit="10" stroke-linecap="round" stroke-linejoin="round"/>
<path d="M2640.1 1373L2563 893.701" stroke="white" stroke-width="6" stroke-miterlimit="10" stroke-linecap="round" stroke-linejoin="round"/>
<path d="M2195.6 1340.8L2650.6 1470.6" stroke="white" stroke-width="6" stroke-miterlimit="10" stroke-linecap="round" stroke-linejoin="round"/>
<path d="M2220.2 670.001V737.201L2338.8 736.201V617.601L2220.2 670.001Z" fill="#A0505A"/>
<path d="M2348.4 596.901V598.701C2348.4 616.701 2334.8 631.301 2316.8 631.301H2309.8C2305.3 649.101 2265.3 669.901 2236.9 669.901H2203.8C2167.6 669.901 2139.9 637.401 2145.8 601.601L2147.4 591.901L2137.6 586.401C2132 583.201 2130.4 575.901 2134.3 570.701L2155.5 542.701L2160.1 515.101C2163.8 492.401 2178.7 473.901 2198.5 464.801C2206.3 552.701 2283.9 563.101 2304.4 564.301H2315.8C2333.8 564.301 2348.4 578.901 2348.4 596.901Z" fill="#A0505A"/>
<path d="M2295.9 605.501C2295.9 591.301 2307.4 579.801 2321.6 579.801" stroke="#73325A" stroke-width="6" stroke-miterlimit="10" stroke-linecap="round"/>
<path d="M2187.5 565.201C2190.32 565.201 2192.6 559.918 2192.6 553.401C2192.6 546.884 2190.32 541.601 2187.5 541.601C2184.68 541.601 2182.4 546.884 2182.4 553.401C2182.4 559.918 2184.68 565.201 2187.5 565.201Z" fill="#73325A"/>
<path d="M2179.7 516.901C2179.7 516.901 2193.8 515.501 2208.3 535.501" stroke="#73325A" stroke-width="6" stroke-miterlimit="10" stroke-linecap="round"/>
<path d="M2304.4 564.3H2315.8C2333.8 564.3 2348.4 578.9 2348.4 596.9V598.7C2348.4 616.7 2334.8 631.3 2316.8 631.3L2309.1 636.7C2276.7 657.5 2231.9 739.3 2242.9 797.2C2255.3 862.3 2312 876.8 2364.4 866.8C2416.8 856.8 2455 826.3 2442.6 761.1C2441.2 753.4 2438.9 745.7 2436 738.1C2436.9 738.4 2437.7 738.7 2438.6 739C2501.6 756.2 2575.6 758.2 2596 709C2616.4 659.8 2611.8 611.1 2550.5 585.7C2514.9 570.9 2466.5 571 2429 581.2C2447.9 515.5 2414.3 442.4 2352.6 435.1C2255.7 423.6 2200.1 463.6 2198.6 464.7C2198.5 476.3 2206.4 558.6 2304.4 564.3Z" fill="#73325A"/>
<path d="M2431.5 578.9C2423.6 604.6 2407.3 632.1 2380.8 650.8C2380.8 650.8 2427.6 681.7 2438.6 739.1" stroke="white" stroke-width="6" stroke-miterlimit="10" stroke-linecap="round" stroke-linejoin="round"/>
<path d="M2458.7 576.701H2432.2V550.201C2432.2 536.301 2443.4 525.101 2457.3 525.101H2458.7C2472.6 525.101 2483.8 536.301 2483.8 550.201V551.601C2483.9 565.401 2472.6 576.701 2458.7 576.701Z" stroke="#FE5244" stroke-width="6" stroke-miterlimit="10" stroke-linejoin="round"/>
<path d="M2449 603.9L2432 576.9L2459 559.9C2472.5 551.4 2490.4 555.4 2498.9 568.9L2500.5 571.4C2509 584.9 2505 602.8 2491.5 611.3L2489 612.9C2475.3 621.4 2457.5 617.4 2449 603.9Z" stroke="#FE5244" stroke-width="6" stroke-miterlimit="10" stroke-linejoin="round"/>
<path d="M2292.4 652.101L2311.3 634.001L2329.8 654.901C2338.9 665.401 2337.7 681.301 2327.2 690.301L2326.1 691.201C2315.6 700.301 2299.7 699.101 2290.7 688.601L2289.8 687.501C2280.7 677.101 2281.9 661.201 2292.4 652.101Z" stroke="#FE5244" stroke-width="6" stroke-miterlimit="10" stroke-linejoin="round"/>
<path d="M2320 665.101L2311.5 634.401L2342.2 625.901C2357.6 621.601 2373.5 630.601 2377.8 646.001L2378.6 648.901C2382.9 664.301 2373.9 680.201 2358.5 684.501L2355.6 685.301C2340.2 689.501 2324.3 680.401 2320 665.101Z" stroke="#FE5244" stroke-width="6" stroke-miterlimit="10" stroke-linejoin="round"/>
<path d="M2047.1 1778.1L1872.9 2593.4" stroke="#FFCF2D" stroke-width="6" stroke-miterlimit="10" stroke-linecap="round"/>
<path d="M2492.9 1778.1L2667.1 2593.4" stroke="#FFCF2D" stroke-width="6" stroke-miterlimit="10" stroke-linecap="round"/>
<path d="M1911.5 2412.4H2626.1" stroke="#FFCF2D" stroke-width="6" stroke-miterlimit="10" stroke-linecap="round"/>
<path d="M2630 1778.1H1909.9C1900.8 1778.1 1893.4 1770.7 1893.4 1761.6V1717.7C1893.4 1708.6 1900.8 1701.2 1909.9 1701.2H2630C2639.1 1701.2 2646.5 1708.6 2646.5 1717.7V1761.6C2646.5 1770.7 2639.1 1778.1 2630 1778.1Z" fill="white" stroke="#66B0F0" stroke-width="6" stroke-miterlimit="10" stroke-linejoin="round"/>
</g>
<defs>
<clipPath id="clip0_25_266">
<rect width="3220" height="2597" fill="white"/>
</clipPath>
</defs>
</svg>
