<svg width="3911" height="3042" viewBox="0 0 3911 3042" fill="none" xmlns="http://www.w3.org/2000/svg">
<g clip-path="url(#clip0_124_199)">
<path d="M3738.7 2932.8L2559.8 2934.9C2415.3 2935.9 2261.8 2936.4 2102.6 2936.4C1715.1 2936.4 1360.9 2933.2 1090 2927.9H-0.5C-0.5 2735.3 211.5 2819.9 267.4 2853.9C332.4 2893.4 248.7 2683.1 381.4 2683.1C495 2683.1 560 2740.2 560 2740.2C560 2740.2 563.1 2629.2 670.8 2627.6C778.5 2626 846.9 2720.9 931.9 2799C967 2831.2 1009.2 2856.8 1049.1 2876.3C1324.8 2870.5 1695.2 2866.9 2102.6 2866.9C2295.6 2866.9 2480.2 2867.7 2650.5 2869.2C2953.1 2869.2 3230.2 2710.1 3308.8 2670.2C3503 2571.4 3411 2806.9 3411 2806.9C3411 2806.9 3560.7 2743.9 3666 2744.4C3814.7 2745 3738.7 2932.8 3738.7 2932.8Z" fill="#D0F0E4"/>
<path d="M3127 2927C3127 2927 3156.8 2658.8 2962.8 2572.5C2962.8 2572.5 2934.2 2864.3 3031 2845.2C3067.3 2838 2989.4 2767.2 2862.4 2764.2C2862.4 2764.2 2959.7 2927.7 3077.9 2930" stroke="#FFCF2D" stroke-width="6" stroke-miterlimit="10"/>
<path d="M3078.3 2929.6C3078.3 2929.6 3089.5 2806.9 3209.1 2768.7C3317.1 2734.3 3128.1 2926.6 3128.1 2926.6" stroke="#FFCF2D" stroke-width="6" stroke-miterlimit="10"/>
<path d="M392.7 2918.4C392.7 2918.4 221.2 2800.9 172.9 2609.2C172.9 2609.2 324.7 2654.6 389.1 2751.2C389.1 2751.2 415.5 2531.3 479.3 2457.3C479.3 2457.3 513.8 2506.9 518.1 2690.7C518.1 2690.7 596.3 2557.5 654.5 2514.5C654.5 2514.5 646.5 2687.8 604.9 2776.3C604.9 2776.3 665 2729.5 705.6 2775.4C746.2 2821.3 666.6 2888.5 666.6 2888.5" stroke="#FE5244" stroke-width="5" stroke-miterlimit="10"/>
<path d="M479.4 2463.8C479.4 2463.8 481.1 2864.4 462.9 2916.3" stroke="#FE5244" stroke-width="5" stroke-miterlimit="10"/>
<path d="M648.9 2524.6C648.9 2524.6 529.3 2831.9 462.9 2916.3" stroke="#FE5244" stroke-width="5" stroke-miterlimit="10"/>
<path d="M603.1 2777.7C598.7 2793.8 568.4 2838.2 562.4 2819.1C556.5 2800 611 2769.1 624.7 2764" stroke="#FE5244" stroke-width="5" stroke-miterlimit="10"/>
<path d="M389.201 2751.3C397.301 2766.9 424.701 2810.7 397.001 2809.6C378.901 2808.9 394.101 2717 394.101 2717" stroke="#FE5244" stroke-width="5" stroke-miterlimit="10"/>
<path d="M2650.1 2589.1C2582.1 2622.4 2588.5 2686.3 2587.9 2729.2C2587.2 2774.9 2500 2798.8 2500 2798.8C2523.2 2725.7 2506.7 2650.4 2506.7 2650.4L2650.1 2589.1Z" fill="#A0505A"/>
<path d="M2722.2 2757.4L2706.7 2765.8L2674.2 2691.5C2672.5 2687.6 2668.7 2685.3 2664.8 2685.3C2663.5 2685.3 2662.1 2685.6 2660.8 2686.1C2657.5 2687.5 2655.1 2690.6 2654.7 2694.2L2640.4 2801.9L2452.3 2904.3C2446.7 2890.9 2481.6 2857.3 2500.1 2798.8C2500.1 2798.8 2587.4 2774.9 2588 2729.2C2588.6 2686.3 2582.3 2622.3 2650.2 2589.1L2664.5 2583C2742.5 2618.9 2722.2 2757.4 2722.2 2757.4Z" fill="#FFCF2D"/>
<path d="M2664.4 2055.4V2583L2508.8 2650.5L2392.2 2120.8C2444.4 2122.8 2531.4 2111.8 2664.4 2055.4Z" fill="white" stroke="#9A3B82" stroke-width="5" stroke-miterlimit="10"/>
<path d="M2550 2101.8L2580.7 2619.1" stroke="#9A3B82" stroke-width="5" stroke-miterlimit="10"/>
<path d="M2664.4 2055.4V2193.5L2399.6 2155.2L2392.2 2120.8C2444.4 2122.8 2531.4 2111.8 2664.4 2055.4Z" fill="#9A3B82"/>
<path d="M3448.6 1697.4L3348 1718.6C3344.6 1719.3 3341.2 1718.2 3338.8 1715.7C3337.1 1713.8 3336.2 1711.5 3336.2 1709.1C3336.2 1706.5 3337.2 1703.9 3339.3 1702L3395.3 1649.5L3382.9 1638.4C3382.9 1638.4 3252.9 1663.9 3245.5 1745L3255.4 1755.8C3306.5 1806 3361.6 1780.1 3400.1 1767.1C3436.9 1754.7 3480.8 1811.8 3489.5 1823.6C3489.6 1823.6 3489.8 1823.6 3489.9 1823.6C3547.9 1821.7 3589 1842.3 3599.1 1833L3448.6 1697.4Z" fill="#FFCF2D"/>
<path d="M3255.5 1755.8C3306.6 1806 3361.7 1780.1 3400.2 1767.1C3441.2 1753.3 3490.1 1823.6 3490.1 1823.6C3417.5 1825.9 3355.6 1864.4 3355.6 1864.4L3255.5 1755.8Z" fill="#A0505A"/>
<path d="M2634.3 2059.9C2634.3 2059.9 2659.6 2230.8 2853.7 2227.6C3047.8 2224.4 3353.5 1863.4 3353.5 1863.4L3246 1745.6L2634.3 2059.9Z" fill="white" stroke="#9A3B82" stroke-width="5" stroke-miterlimit="10"/>
<path d="M2746.2 2013.5C2752.6 2058.5 2782.8 2100.9 2874.9 2099.4C3011.7 2097.2 3205 1917.7 3307.2 1811.9" stroke="#9A3B82" stroke-width="5" stroke-miterlimit="10"/>
<path d="M3481.5 1397C3463.8 1390.3 3421.7 1413.3 3390 1453.3C3355.9 1496.2 3342.1 1541.8 3357.1 1553.7L2876.8 1298.3C2853.2 1285.8 2826 1307.2 2832.7 1333L2978.1 1883.8C2485.6 2203.4 2327.7 2107.6 2327.7 2107.6V297.6C2327.7 297.7 2327.7 297.7 2327.8 297.8C2332 308.5 2377.1 301 2428.6 280.9C2476 262.5 2512.2 239.9 2514.5 228.1L2514.6 228V798.3C2514.6 834.1 2533.9 867 2565.1 884.5L3481.5 1397Z" fill="#FE5244"/>
<path d="M3481.5 1397C3463.8 1390.3 3421.7 1413.3 3390 1453.3C3355.9 1496.2 3342.1 1541.8 3357.1 1553.7L2876.8 1298.3C2853.2 1285.8 2826 1307.2 2832.7 1333L2978.1 1886C2852.9 1967.3 2749.3 2019.5 2664.4 2055.5C2531.4 2111.8 2444.4 2122.9 2392.2 2120.9C2346.7 2119.2 2327.7 2107.6 2327.7 2107.6V297.6C2327.7 297.7 2327.7 297.7 2327.8 297.8C2332 308.5 2377.1 301 2428.6 280.9C2476 262.5 2512.2 239.9 2514.5 228.1L2514.6 228V798.3C2514.6 834.1 2533.9 867 2565.1 884.5L3481.5 1397Z" fill="#FE5244"/>
<path d="M2792.6 1253.9L3357.1 1560.1" stroke="white" stroke-width="6" stroke-miterlimit="10" stroke-linecap="round"/>
<path d="M2578.5 891.9L2515.2 1259.8L2838.3 1037.3L2578.5 891.9Z" fill="#FFCF2D"/>
<path d="M2578.5 891.9L2515.2 1259.8L2838.3 1037.3" stroke="white" stroke-width="6" stroke-miterlimit="10" stroke-linecap="round"/>
<path d="M2575.9 181.8L2158.8 267.3C2143.4 270.5 2127.5 256.8 2123.4 236.7C2119.3 216.6 2128.5 197.8 2143.9 194.6L2561 109.1L2575.9 181.8Z" fill="white" stroke="#3FB1B5" stroke-width="5" stroke-miterlimit="10" stroke-linecap="round"/>
<path d="M2575.75 181.86C2591.17 178.699 2600.33 159.865 2596.22 139.794C2592.11 119.722 2576.27 106.013 2560.85 109.173C2545.43 112.334 2536.27 131.167 2540.38 151.239C2544.5 171.311 2560.33 185.02 2575.75 181.86Z" fill="white" stroke="#3FB1B5" stroke-width="5" stroke-miterlimit="10" stroke-linecap="round"/>
<path d="M2337.9 218.201C2337.9 218.201 2203 369.8 2217.7 403.201C2236.9 422.301 2252.5 430.7 2250.2 437.8C2247.7 445.5 2215.4 492 2215.4 492L2212.2 457.5L2181.3 467.701C2181.3 467.701 2213.9 420.1 2216 405.5C2202.6 395.3 2175.3 374.1 2176.2 359.3C2177.2 343.6 2225 287.8 2259.7 249.3L2207.4 266.6L2197.1 218.3L2291.2 201L2337.9 218.201Z" fill="#FE5244"/>
<path d="M2319.6 224.8C2335.28 224.8 2348 212.085 2348 196.4C2348 180.716 2335.28 168 2319.6 168C2303.91 168 2291.2 180.716 2291.2 196.4C2291.2 212.085 2303.91 224.8 2319.6 224.8Z" fill="white" stroke="#FE5244" stroke-width="5" stroke-miterlimit="10"/>
<path d="M2514.5 228.1C2512.2 239.9 2476 262.5 2428.6 280.9C2377.1 300.9 2332 308.5 2327.8 297.8C2327.8 297.7 2327.8 297.7 2327.7 297.6C2324.1 286.8 2362.3 262.1 2413.5 242.2C2465 222.2 2510.1 214.6 2514.3 225.3C2514.6 226.1 2514.7 227 2514.5 228.1Z" fill="#9A3B82"/>
<path d="M2479.8 144.1L2474.3 223.5L2471.7 261.5C2459.2 268.1 2444.5 274.7 2428.6 280.9C2401.6 291.4 2376.4 298.4 2357.9 301.3V228.7L2433.8 213.1C2433.8 213.1 2438 186 2446 163.3C2453.9 140.5 2479.8 144.1 2479.8 144.1Z" fill="#A0505A"/>
<path d="M2435.9 209.8C2434.8 214.3 2401.8 224.8 2401.8 248.8" stroke="#73325A" stroke-width="4" stroke-miterlimit="10" stroke-linecap="round"/>
<path d="M2474.3 223.5L2471.7 261.5C2459.2 268.1 2444.5 274.7 2428.6 280.9C2401.6 291.4 2376.4 298.4 2357.9 301.3V268.5C2372.7 259.8 2392 250.6 2413.5 242.2C2435.9 233.4 2457.1 227 2474.3 223.5Z" fill="#73325A"/>
<path d="M2424.6 183.8L2339.9 203.2C2335.4 204.2 2331.2 200.6 2331.2 195.6V144.2C2331.2 137.3 2335.4 131.3 2341.5 129.3L2425.2 102C2430.5 100.3 2435.8 104.5 2435.8 110.4V169C2435.7 176.1 2431.1 182.3 2424.6 183.8Z" fill="#A0505A"/>
<path d="M2361.2 195.2C2356.6 196.2 2352.2 192.7 2352.2 187.9V138.6C2352.2 132 2356.5 126.2 2362.8 124.3" stroke="#73325A" stroke-width="4" stroke-miterlimit="10" stroke-linecap="round"/>
<path d="M2385.6 189.9C2381 190.9 2376.6 187.3 2376.6 182.4V131.6C2376.6 124.8 2380.9 118.8 2387.2 116.9" stroke="#73325A" stroke-width="4" stroke-miterlimit="10" stroke-linecap="round"/>
<path d="M2412.9 184.1C2408.3 185.1 2403.9 181.4 2403.9 176.4V123.8C2403.9 116.8 2408.2 110.6 2414.5 108.6" stroke="#73325A" stroke-width="4" stroke-miterlimit="10" stroke-linecap="round"/>
<path d="M3444.3 1496.4C3410.2 1539.4 3372 1565.5 3357 1553.6C3342 1541.7 3355.8 1496.2 3389.9 1453.2C3421.7 1413.2 3463.7 1390.2 3481.4 1396.9L3484.9 1398.9C3500 1410.9 3478.4 1453.5 3444.3 1496.4Z" fill="#9A3B82"/>
<path d="M3598.6 1568.7L3575.9 1580.7C3566.9 1585.5 3555.7 1582.1 3550.9 1573.1L3527 1528.7L3490.8 1516.3C3494.8 1517.8 3510.4 1525.8 3505.5 1554.9L3420.5 1523.2L3391.3 1512.3L3363.6 1494.6C3370.1 1481.4 3379 1467.2 3390.1 1453.3C3399.4 1441.6 3409.5 1431.4 3419.6 1423L3448.5 1443.2L3478.1 1446.4L3526.2 1451.5C3533.9 1452.3 3541.3 1454.9 3547.8 1459L3586.2 1486.3C3591.8 1490.3 3595.5 1496.3 3596.4 1503.1L3604.2 1557.7C3604.9 1562.2 3602.6 1566.6 3598.6 1568.7Z" fill="#A0505A"/>
<path d="M3542.7 1479.8L3576 1503.5C3580.8 1506.9 3584 1512.2 3584.9 1518.1L3591.7 1562.2C3592.2 1566.1 3590.3 1569.9 3586.8 1571.7" stroke="#73325A" stroke-width="4" stroke-miterlimit="10" stroke-linecap="round"/>
<path d="M3522.1 1487.7L3555.4 1511.4C3560.2 1514.8 3563.4 1520.1 3564.3 1526L3571.1 1570.1C3571.6 1574 3569.7 1577.8 3566.2 1579.6" stroke="#73325A" stroke-width="4" stroke-miterlimit="10" stroke-linecap="round"/>
<path d="M3490.8 1516.2L3466.6 1508" stroke="#73325A" stroke-width="4" stroke-miterlimit="10" stroke-linecap="round"/>
<path d="M3478.1 1446.4C3470 1461.7 3458.2 1479.1 3444.4 1496.5C3436.5 1506.4 3428.5 1515.4 3420.5 1523.2L3391.3 1512.3L3363.6 1494.6C3370.1 1481.4 3379 1467.2 3390.1 1453.3C3399.4 1441.6 3409.5 1431.4 3419.6 1423L3448.5 1443.2L3478.1 1446.4Z" fill="#73325A"/>
<path d="M2604.9 624.9L2818.8 719.8L2895.1 943L2740.1 832.2L2667.8 743.9L2604.9 624.9Z" fill="#FE5244"/>
<path d="M2667.8 743.9C2667.8 743.9 2737.8 755.9 2766 833.9L2780.9 818.9C2780.9 818.9 2753.8 743 2682.2 723.5L2667.8 743.9Z" fill="#9A3B82"/>
<path d="M3085 840.8C3061 827.2 3038.8 819.7 3031.7 822.4C3032.2 821.2 3032.5 819.8 3032.4 818.4C3032 814 3028.4 810.7 3024.1 810.7C3023.9 810.7 3023.7 810.7 3023.4 810.7C3018.8 811.1 3015.4 815.1 3015.7 819.7C3015.7 820 3015.8 820.3 3015.8 820.5L2990.4 836.8C2984.7 840.5 2977.7 840.7 2971.7 837.4C2965.7 834.1 2962.2 828.1 2962.2 821.3V784.8C2962.2 768.9 2954.3 754.2 2941 745.4C2927.7 736.6 2911 735.2 2896.4 741.4L2848 763L2829.6 709.1L2614.6 613.8C2613.3 613.2 2611.7 613.8 2611.1 615.2C2610.5 616.5 2611.1 618.1 2612.5 618.7L2825.3 713.1L2901.2 935.2C2901.6 936.3 2902.6 937 2903.7 937C2904 937 2904.3 936.9 2904.6 936.9C2906 936.4 2906.7 934.9 2906.3 933.5L2849.8 768.1L2898.6 746.3C2911.6 740.7 2926.4 742 2938.1 749.8C2949.9 757.6 2956.9 770.6 2956.9 784.8V821.3C2956.9 830.1 2961.5 837.9 2969.2 842.1C2972.8 844.1 2976.7 845.1 2980.6 845.1C2985 845.1 2989.4 843.8 2993.3 841.3L3018.5 825.2C3020 826.6 3022 827.4 3024.1 827.4C3024.3 827.4 3024.6 827.4 3024.8 827.4C3026.6 827.3 3028.2 826.6 3029.4 825.5C3029.4 832.6 3047.6 848.5 3072.6 862.7C3078 865.8 3083.4 868.6 3088.5 871C3091.6 868.4 3094.2 865.3 3096.3 861.6C3098.4 858 3099.7 854.1 3100.3 850.1C3095.5 847.1 3090.4 843.9 3085 840.8ZM3024.3 823.2C3022 823.4 3020.1 821.7 3019.9 819.5C3019.7 817.3 3021.4 815.3 3023.6 815.1C3025.8 814.9 3027.8 816.6 3028 818.8C3028.2 821 3026.5 823 3024.3 823.2Z" fill="#FFCF2D"/>
<path d="M2653.9 875.4L2616.9 1081.2L2743 984V855.7L2653.9 875.4Z" fill="#A0505A"/>
<path d="M2653.9 875.4L2649.3 901.2L2705.1 1013.2L2743 984V855.7L2653.9 875.4Z" fill="#73325A"/>
<path d="M2669.9 746C2669.9 746 2606.8 730.3 2587.1 766.9C2567.4 803.5 2625 813.6 2627.4 800.8C2628.5 795.2 2523.7 795.3 2541.3 874.6C2559.6 957.2 2642.1 928.8 2642.1 928.8L2651.7 875.4L2669.9 746Z" fill="white" stroke="#9A3B82" stroke-width="4" stroke-miterlimit="10"/>
<path d="M2742 864.4C2742 864.4 2647.8 987.2 2730.6 1039.4C2797 1081.2 2814.1 1022.3 2796.3 1014.2C2777 1005.4 2732.7 1171.4 2869.1 1170.9C3005.8 1170.4 2964 999.7 2895.1 943.1C2862.2 916.1 2752.4 840.6 2752.4 840.6L2742 864.4Z" fill="white" stroke="#9A3B82" stroke-width="4" stroke-miterlimit="10"/>
<path d="M2739.2 833.6L2746.3 838.1C2753.2 842.5 2755.2 851.6 2750.9 858.5L2749.5 860.6C2745.1 867.5 2736 869.6 2729.1 865.2L2721.5 860.4C2713.1 866.4 2662.6 900.1 2631.4 866.6C2601.1 834.1 2671.1 739 2671.1 739C2730.5 757.6 2753.7 810.4 2753.7 810.4L2739.2 833.6Z" fill="#A0505A"/>
<path d="M2651.6 760.6C2651.6 760.6 2668 766.7 2666.4 780.8C2664.8 794.9 2650 817.1 2653.5 820.9C2657 824.7 2661.7 825.4 2661.7 825.4" stroke="#73325A" stroke-width="4" stroke-miterlimit="10" stroke-linecap="round"/>
<path d="M2647.6 833.9C2647.6 833.9 2659.8 840.7 2676.4 838.1" stroke="#73325A" stroke-width="4" stroke-miterlimit="10" stroke-linecap="round"/>
<path d="M2699.9 813.887C2701.31 810.172 2700.83 806.538 2698.82 805.771C2696.8 805.003 2694.02 807.393 2692.61 811.109C2691.19 814.825 2691.67 818.459 2693.69 819.226C2695.7 819.993 2698.48 817.603 2699.9 813.887Z" fill="#73325A"/>
<path d="M2653.72 792.707C2654.9 789.611 2654.48 786.574 2652.78 785.925C2651.07 785.276 2648.74 787.26 2647.56 790.356C2646.37 793.452 2646.8 796.489 2648.5 797.138C2650.2 797.787 2652.54 795.803 2653.72 792.707Z" fill="#73325A"/>
<path d="M2734 850.8C2736.8 846.4 2742.6 845.1 2747 847.9" stroke="#73325A" stroke-width="4" stroke-miterlimit="10" stroke-linecap="round"/>
<path d="M2697.1 787.5C2697.1 787.5 2709.3 790.8 2715.6 805.3" stroke="#73325A" stroke-width="4" stroke-miterlimit="10" stroke-linecap="round"/>
<path d="M2715.3 763.2C2715.3 763.2 2702 807.3 2740.1 837.4C2762.5 855.1 2763.8 833.8 2763.8 833.8C2763.8 833.8 2760.9 790.5 2715.3 763.2Z" fill="white" stroke="#9A3B82" stroke-width="4" stroke-miterlimit="10"/>
<path d="M1831.9 1893.3C1821.4 1855 1648 1890.9 1457 1960.4C1274.3 2026.9 1125.8 2116.6 1124.2 2152.7L1024 1421.8C1022.5 1411.5 1013.7 1403.9 1003.3 1403.9C997.5 1403.9 992.3 1406.2 988.5 1410C984.7 1413.8 982.4 1419 982.4 1424.8V2049C981.2 2031.9 937.1 2018.2 882.9 2018.2C828.7 2018.2 784.7 2031.9 783.4 2049V1347.6C783.4 1288.4 814.4 1233.6 865 1203L930.7 1163.3L1201.3 999.9L1453 846.7V585.2C1453 596.4 1499.3 605.4 1553.9 605.4C1608.4 605.4 1654.8 596.5 1654.8 585.2V868.7C1654.8 931.5 1624.1 990.8 1575.1 1030L1422 1139.4C1395.9 1158 1389.6 1194.2 1407.8 1220.6C1509.3 1367.5 1821.2 1796.2 1831.8 1890.5C1831.9 1891.4 1831.9 1892.4 1831.9 1893.3Z" fill="#3FB1B5"/>
<path d="M1450 824.3V901.3" stroke="white" stroke-width="6" stroke-miterlimit="10" stroke-linecap="round"/>
<path d="M930.9 1163.3L1264.6 1386.5L1201.5 999.9L1129.2 1042.7L1146.2 1201.2L1002.8 1118.3L930.9 1163.3Z" stroke="white" stroke-width="6" stroke-miterlimit="10" stroke-linecap="round"/>
<path d="M1821.2 1902.9C1809.2 1869.8 1650.2 1908 1459.1 1977.5C1268 2047 1121.3 2134.9 1133.4 2168C1145.4 2201.1 1311.7 2166.9 1502.8 2097.4C1693.9 2027.9 1833.3 1936 1821.2 1902.9Z" stroke="#3FB1B5" stroke-width="5" stroke-miterlimit="10" stroke-linecap="round"/>
<path d="M1386 2593.4L1375 2612.6L1362.8 2634C1257.3 2647.2 1238.7 2578.2 1238.7 2578.2L1254.6 2546.6C1297.2 2572.8 1351.2 2586.7 1386 2593.4Z" fill="#E57281"/>
<path d="M1766 2091.3C1691 2220.6 1421.3 2599 1421.3 2599C1421.3 2599 1407.2 2597.5 1386 2593.4C1351.2 2586.6 1297.2 2572.8 1254.5 2546.6C1244.6 2540.5 1235.4 2533.8 1227.1 2526.3L1422.6 2129.3L1472 2025.2L1499.4 1967.4C1502.7 1966.2 1506 1965.1 1509.2 1964C1510.8 1963.4 1512.4 1962.9 1514.1 1962.3C1519 1960.6 1523.8 1959 1528.6 1957.4C1532.6 1956.1 1536.5 1954.8 1540.4 1953.4C1552.3 1949.4 1564 1945.7 1575.4 1942.1C1652 1917.9 1717.5 1901.6 1761.7 1896.6C1771.5 1910.3 1782.7 1930 1789.1 1954.7C1798.4 1990.8 1797.3 2037.4 1766 2091.3Z" fill="white" stroke="#9A3B82" stroke-width="5" stroke-miterlimit="10"/>
<path d="M1438.6 2888.5C1435.2 2903.4 1416.7 2908.7 1405.9 2897.9L1164.2 2657L1239.8 2578.1C1239.8 2578.1 1257.3 2647 1362.9 2633.9C1448.2 2762.7 1448 2847 1438.6 2888.5Z" fill="white" stroke="#FE5244" stroke-width="5" stroke-miterlimit="10"/>
<path d="M1428.7 2903.7C1412.3 2910 1393.8 2906.7 1380.5 2895L1254.3 2784.1C1251.2 2781.3 1250.8 2776.6 1253.4 2773.3C1255.9 2770.2 1255.7 2765.6 1252.8 2762.8L1242.5 2752.8C1239.7 2750 1235.2 2749.9 1232.2 2752.5L1229.8 2754.5C1226.9 2757 1222.7 2757 1219.9 2754.5L1152.1 2695.6C1143.3 2688 1143 2674.4 1151.3 2666.3L1163.1 2654.9L1406.3 2900.4C1413.3 2907.4 1423.4 2907.7 1430.6 2903L1428.7 2903.7Z" fill="#FE5244"/>
<path d="M1395.8 2666.1C1395.8 2666.1 1416.3 2684.3 1367.3 2706.4" stroke="#FE5244" stroke-width="5" stroke-miterlimit="10" stroke-linecap="round"/>
<path d="M1408.7 2688C1408.7 2688 1429.2 2706.2 1380.2 2728.3" stroke="#FE5244" stroke-width="5" stroke-miterlimit="10" stroke-linecap="round"/>
<path d="M1421.6 2709.9C1421.6 2709.9 1442.1 2728.1 1393.1 2750.2" stroke="#FE5244" stroke-width="5" stroke-miterlimit="10" stroke-linecap="round"/>
<path d="M1789.1 1954.7C1724.1 1954.6 1657.5 1965.9 1593.3 1983.7C1588.2 1965.7 1581 1951.4 1575.4 1942.1C1652 1917.9 1717.5 1901.6 1761.7 1896.6C1771.6 1910.4 1782.8 1930.1 1789.1 1954.7Z" fill="#9A3B82"/>
<path d="M1111.3 2583.3L1092 2608L1076.8 2627.4C970.502 2625.3 962.002 2554.4 962.002 2554.4L985.102 2521.3C1025.2 2553.5 1079.4 2573.5 1111.3 2583.3Z" fill="#E57281"/>
<path d="M1595.5 2064.6C1589.7 2089.3 1577.3 2115.9 1554.5 2143.3C1460.9 2256 1137.7 2590.6 1137.7 2590.6C1137.7 2590.6 1011.5 2562.2 957.602 2494.2L1175.2 2185.1L1255.5 2071C1310.9 2041.5 1381.3 2010.2 1459.1 1981.8C1499.7 1967 1538.8 1953.7 1575.4 1942.1C1580.9 1951.4 1588.2 1965.8 1593.3 1983.7C1599.7 2005.9 1602.8 2033.7 1595.5 2064.6Z" fill="white" stroke="#9A3B82" stroke-width="5" stroke-miterlimit="10"/>
<path d="M1115.2 2890.2C1109.7 2904.5 1090.7 2907.1 1081.5 2894.8L876.801 2621.7L962.901 2554.4C962.901 2554.4 970.301 2625.3 1076.7 2627.4C1142.8 2767.1 1130.5 2850.5 1115.2 2890.2Z" fill="white" stroke="#FE5244" stroke-width="5" stroke-miterlimit="10"/>
<path d="M1103.3 2903C1086.2 2906.9 1068.3 2900.9 1056.9 2887.6L947.902 2760C945.202 2756.8 945.502 2752.1 948.502 2749.2C951.502 2746.5 951.802 2741.9 949.402 2738.7L940.602 2727.4C938.202 2724.3 933.802 2723.5 930.402 2725.6L927.802 2727.3C924.602 2729.3 920.502 2728.7 918.002 2725.9L859.002 2658.2C851.402 2649.4 853.002 2636 862.402 2629.2L875.702 2619.6L1081.4 2896.5C1087.3 2904.4 1097.3 2906.1 1105.1 2902.6L1103.3 2903Z" fill="#FE5244"/>
<path d="M1106.9 2664.6C1106.9 2664.6 1124.6 2685.5 1072.9 2700.4" stroke="#FE5244" stroke-width="5" stroke-miterlimit="10" stroke-linecap="round"/>
<path d="M1118.6 2688.1C1118.6 2688.1 1136.3 2709 1084.6 2723.9" stroke="#FE5244" stroke-width="5" stroke-miterlimit="10" stroke-linecap="round"/>
<path d="M1128.2 2711.6C1128.2 2711.6 1145.9 2732.5 1094.2 2747.4" stroke="#FE5244" stroke-width="5" stroke-miterlimit="10" stroke-linecap="round"/>
<path d="M1593.4 1983.7C1551.6 1995.3 1510.8 2009.6 1472.1 2025.1C1305 2092.4 1176.9 2183.8 1175.3 2184.9L1255.6 2070.8C1311 2041.3 1381.4 2010 1459.2 1981.6C1472.8 1976.7 1486.2 1971.9 1499.5 1967.2C1502.8 1966 1506.1 1964.9 1509.3 1963.8C1510.9 1963.2 1512.5 1962.7 1514.2 1962.1C1519.1 1960.4 1523.9 1958.8 1528.7 1957.2C1532.7 1955.9 1536.6 1954.6 1540.5 1953.2C1552.4 1949.2 1564.1 1945.5 1575.5 1941.9C1581 1951.5 1588.2 1965.8 1593.4 1983.7Z" fill="#9A3B82"/>
<path d="M980.201 2062.5C980.201 2079.9 936.701 2094.1 883.001 2094.1C829.301 2094.1 785.801 2080 785.801 2062.5C785.801 2062.3 785.801 2062 785.801 2061.8C787.001 2044.7 830.101 2031 883.001 2031C935.901 2031 979.001 2044.7 980.201 2061.8C980.201 2062 980.201 2062.3 980.201 2062.5Z" fill="white" stroke="#3FB1B5" stroke-width="5" stroke-miterlimit="10" stroke-linecap="round"/>
<path d="M941.001 2039V2121.1C941.001 2147.7 926.301 2172 902.901 2184.5L863.001 2205.7C853.301 2210.9 842.401 2213.6 831.401 2213.6C826.701 2213.6 823.501 2209.7 823.501 2205.6C823.501 2203.9 824.101 2202.1 825.301 2200.6L840.201 2182.6C842.301 2180.1 840.501 2176.4 837.301 2176.4H749.601L733.601 2196.6C725.101 2207.3 712.101 2213.6 698.501 2213.6H693.901C688.201 2213.6 684.701 2207.5 687.501 2202.6L689.301 2199.3C683.801 2201.6 677.801 2202.9 671.701 2202.9H667.101C661.401 2202.9 657.901 2196.8 660.701 2191.9L696.601 2152.3L721.501 2142.5V2142.6L845.201 2094V2035.6C856.901 2034.1 869.601 2033.2 883.001 2033.2C904.701 2033.1 924.701 2035.3 941.001 2039Z" fill="#E57281"/>
<path d="M718.301 2146.7L688.301 2198.2" stroke="#9A3B82" stroke-width="4" stroke-miterlimit="10" stroke-linecap="round"/>
<path d="M832.602 2191.6L851.002 2169.1C854.602 2164.7 851.502 2158.2 845.802 2158.2" stroke="#9A3B82" stroke-width="4" stroke-miterlimit="10" stroke-linecap="round"/>
<path d="M941.001 2039V2090.3C924.701 2094 904.701 2096.2 883.001 2096.2C869.601 2096.2 856.901 2095.4 845.201 2093.8V2035.4C856.901 2033.9 869.601 2033 883.001 2033C904.601 2033.1 924.701 2035.3 941.001 2039Z" fill="#9A3B82"/>
<path d="M1652.7 574.5C1652.7 585.8 1608.5 594.7 1554 594.7C1499.5 594.7 1455.3 585.8 1455.3 574.5C1455.3 563.2 1499.5 553.9 1554 553.9C1608.5 553.9 1652.7 563.3 1652.7 574.5Z" stroke="#3FB1B5" stroke-width="5" stroke-miterlimit="10" stroke-linecap="round"/>
<path d="M1523.9 591C1511.7 590.2 1500.6 589 1491 587.3V490.2C1491 487 1491.7 483.8 1493.1 480.9L1524.5 416.1C1530.3 404.1 1542.5 396.5 1555.8 396.5H1594.3L1510.1 551.4C1509.7 552.1 1509.4 552.8 1509.1 553.5C1504.2 565.6 1510.3 581.1 1523.9 591Z" fill="#E57281"/>
<path d="M1596.3 551.7L1608.7 530.1V588.7C1598.5 590 1587 591.1 1574.7 591.6L1596.3 551.7Z" fill="#9A3B82"/>
<path d="M1777.7 212.6L1572.7 589.8C1565.1 603.8 1544.3 607.1 1526.1 597.2C1507.9 587.3 1499.4 568 1507 554.1L1712 176.9L1777.7 212.6Z" fill="white" stroke="#FE5244" stroke-width="5" stroke-miterlimit="10"/>
<path d="M1777.63 212.738C1785.22 198.763 1776.67 179.439 1758.52 169.576C1740.37 159.713 1719.5 163.046 1711.91 177.021C1704.31 190.996 1712.87 210.32 1731.01 220.183C1749.16 230.046 1770.03 226.713 1777.63 212.738Z" fill="white" stroke="#FE5244" stroke-width="5" stroke-miterlimit="10"/>
<path d="M1652.1 351L1749 270.8L1747.5 300L1778.5 307.7L1704.5 353.4C1761.3 341.2 1863.3 324 1878.8 354C1884.9 365.8 1873.4 389.9 1865.7 407.2C1860.9 443.7 2052.3 398.5 2054.5 398L2025 425.3L2054.5 442.1C2054.5 442.1 1893.9 472.7 1852.5 464.3C1829.1 459.5 1847.7 428.1 1864 405.1C1869 387.4 1829.2 381.6 1663.7 399.6L1652.1 351Z" fill="#FE5244"/>
<path d="M1653.5 399.2C1669.3 399.2 1682.1 386.395 1682.1 370.6C1682.1 354.805 1669.3 342 1653.5 342C1637.71 342 1624.9 354.805 1624.9 370.6C1624.9 386.395 1637.71 399.2 1653.5 399.2Z" fill="white" stroke="#FE5244" stroke-width="5" stroke-miterlimit="10"/>
<path d="M1675.9 466.4L1666.7 488L1655.9 513.2L1650.1 526.9L1641.2 547.8C1641 548.4 1640.7 548.9 1640.4 549.5C1640.4 549.5 1640.4 549.6 1640.3 549.6C1637.4 554.5 1631.9 557.6 1625.9 557.6H1555.3C1546.8 557.6 1540.9 549.5 1544.1 542L1549.2 530L1560.5 503.5L1570.2 480.7L1578.7 460.6C1581.2 454.7 1587.3 450.9 1594 450.9H1664.6C1673.3 450.8 1679.1 458.9 1675.9 466.4Z" fill="#E57281"/>
<path d="M1572.7 480.6C1575.6 477.3 1579.9 475.4 1584.5 475.4H1651.9C1659 475.4 1664.1 481.5 1663.4 488" stroke="#9A3B82" stroke-width="4" stroke-miterlimit="10" stroke-linecap="round"/>
<path d="M1563.5 503.5C1566.4 500.6 1570.4 498.9 1574.7 498.9H1642.1C1649.8 498.9 1655.2 506.1 1653.2 513.2" stroke="#9A3B82" stroke-width="4" stroke-miterlimit="10" stroke-linecap="round"/>
<path d="M1552.9 529.9C1555.8 527.2 1559.7 525.6 1563.8 525.6H1631.2C1639.2 525.6 1644.7 533.3 1642.1 540.6" stroke="#9A3B82" stroke-width="4" stroke-miterlimit="10" stroke-linecap="round"/>
<path d="M1633 396.4V398.2C1633 416.5 1618.2 431.4 1599.8 431.4H1565V396.4H1633Z" fill="#E57281"/>
<path d="M787.901 1178.7C784.701 1183.5 781.401 1188 778.101 1192.1C774.501 1191.2 771.001 1189.7 767.801 1187.5C764.601 1185.3 761.901 1182.7 759.701 1179.6C762.301 1175.1 765.201 1170.3 768.501 1165.5C784.701 1141.5 802.101 1125 807.501 1128.6C812.901 1132.2 804.101 1154.7 787.901 1178.7Z" fill="#FFCF2D"/>
<path d="M935.301 818.4L810.4 1002.8C808.9 1005 811 1007.7 813.5 1007L873.2 987.8C865.9 996.5 861.4 1007.8 861.4 1020V1078.1C861.4 1100.8 843.3 1119.3 820.7 1119.9C819.3 1117.3 816.5 1115.5 813.2 1115.5C810.9 1115.5 808.8 1116.4 807.2 1118C805.6 1119.6 804.701 1121.7 804.801 1124C804.801 1128.6 808.601 1132.4 813.301 1132.4C817.501 1132.4 821 1129.2 821.6 1125.2C846.6 1124.1 866.7 1103.4 866.7 1078.1V1020C866.7 1005.4 873.9 992.1 884.7 984.1L1004.8 945.5L1159 818.4H935.301ZM815.5 1126C814.9 1126.6 814.101 1126.9 813.301 1126.9C812.501 1126.9 811.7 1126.6 811.1 1126C810.5 1125.4 810.2 1124.6 810.2 1123.8C810.2 1123 810.5 1122.2 811.1 1121.6C811.7 1121 812.501 1120.7 813.301 1120.7C814.201 1120.7 814.9 1121 815.5 1121.6C816.1 1122.2 816.4 1122.9 816.4 1123.8C816.5 1124.7 816.1 1125.4 815.5 1126Z" fill="#3FB1B5"/>
<path d="M799.502 1002.4C799.002 1002.4 798.502 1002.3 798.002 1001.9C796.802 1001.1 796.502 999.4 797.302 998.2L927.502 806H1163.3C1164.8 806 1166 807.2 1166 808.7C1166 810.2 1164.8 811.4 1163.3 811.4H930.302L801.702 1001.2C801.202 1002 800.402 1002.4 799.502 1002.4Z" fill="#3FB1B5"/>
<path d="M931.102 971.4L916.102 964.6L916.902 962.3C917.202 961.4 924.502 940.2 942.502 917.7C959.202 896.8 988.502 871.1 1033.6 866.7L1036.2 866.5L1038.8 885.4L1033.5 886.1L1031.6 872.3C989.802 877.1 962.402 901.3 946.702 921C932.602 938.6 925.202 955.8 922.902 961.8L933.402 966.6L931.102 971.4Z" fill="white"/>
<path d="M1007.1 1117.2L976.801 1018.2L1047.7 983.5L1076.9 1005.7L1127.1 1043.8L1142.3 1195.2L1007.1 1117.2Z" fill="#E57281"/>
<path d="M1076.9 1005.7L1022.8 1126.3L1007.1 1117.2L976.801 1018.2L1047.7 983.5L1076.9 1005.7Z" fill="#9A3B82"/>
<path d="M1016.8 1024.7C1011.7 1025.2 1001.4 1020 989.702 1012.6L976.002 1023.7C968.102 1030.1 956.502 1029 950.102 1021.1C947.302 1017.7 945.902 1013.5 945.902 1009.4C945.902 1004.1 948.202 998.8 952.702 995.1L958.302 990.5C943.602 979.5 932.102 970 932.102 970C932.102 970 957.602 893.4 1039.1 885.6C1039.1 885.6 1082.3 974.9 1085.2 983.4C1088.1 992 1045.6 1021.8 1016.8 1024.7Z" fill="#E57281"/>
<path d="M958.302 990.5C943.602 979.5 932.102 970 932.102 970C932.102 970 941.502 941.7 967.302 917.7C940.302 944.6 980.602 974.6 958.302 990.5Z" fill="#FFCF2D"/>
<path d="M972.502 938.9C972.502 938.9 976.802 927.3 987.702 921.3" stroke="#9A3B82" stroke-width="4" stroke-miterlimit="10" stroke-linecap="round"/>
<path d="M1050.5 909.5C1050.5 909.5 1035.4 907.4 1027.9 912C1020.4 916.6 1020.4 940.4 1032.4 955.3" stroke="#9A3B82" stroke-width="4" stroke-miterlimit="10" stroke-linecap="round"/>
<path d="M1039.6 970.2C1039.6 970.2 1030.3 978.5 1014.5 972.4" stroke="#9A3B82" stroke-width="4" stroke-miterlimit="10" stroke-linecap="round"/>
<path d="M1016 968C1016 968 1012.7 972.7 1012.9 978" stroke="#9A3B82" stroke-width="4" stroke-miterlimit="10" stroke-linecap="round"/>
<path d="M996.445 953.865C998.046 953.435 998.658 950.536 997.813 947.389C996.968 944.242 994.986 942.039 993.386 942.469C991.785 942.898 991.173 945.798 992.018 948.945C992.863 952.092 994.845 954.295 996.445 953.865Z" fill="#9A3B82"/>
<path d="M1041.15 934.294C1042.59 933.908 1043.12 931.216 1042.33 928.282C1041.54 925.349 1039.74 923.284 1038.3 923.671C1036.86 924.057 1036.33 926.749 1037.12 929.683C1037.9 932.616 1039.71 934.681 1041.15 934.294Z" fill="#9A3B82"/>
<path d="M994.902 1018.6L971.802 1000.6C969.202 998.6 965.602 998.8 963.202 1001L961.802 1002.3C959.102 1004.9 959.102 1009.1 961.802 1011.7" stroke="#9A3B82" stroke-width="4" stroke-miterlimit="10" stroke-linecap="round"/>
</g>
<defs>
<clipPath id="clip0_124_199">
<rect width="3911" height="3042" fill="white"/>
</clipPath>
</defs>
</svg>
