<svg width="3784" height="2636" viewBox="0 0 3784 2636" fill="none" xmlns="http://www.w3.org/2000/svg">
<g clip-path="url(#clip0_25_1013)">
<path d="M2543.1 0.299805H1237.1V1234.6H2543.1V0.299805Z" stroke="#66B0F0" stroke-width="6" stroke-miterlimit="10"/>
<path d="M1890.1 0.299805H1237.1V1234.6H1890.1V0.299805Z" stroke="#66B0F0" stroke-width="6" stroke-miterlimit="10"/>
<path d="M2543.1 0.299805H1890.1V1234.6H2543.1V0.299805Z" stroke="#66B0F0" stroke-width="6" stroke-miterlimit="10"/>
<path d="M2422.6 119.7H2024.4V517.9H2422.6V119.7Z" stroke="#66B0F0" stroke-width="6" stroke-miterlimit="10"/>
<path d="M2284.5 311.2L2238.2 346.2" stroke="#66B0F0" stroke-width="6" stroke-miterlimit="10" stroke-linecap="round"/>
<path d="M2173.7 395L2024.4 507.9V424.9L2422.5 129.7V206.9L2315.2 288" stroke="#66B0F0" stroke-width="6" stroke-miterlimit="10" stroke-linecap="round"/>
<path d="M1237.1 0.299805H1890.1V95.7998L1237.1 0.299805Z" fill="#66B0F0"/>
<path d="M2053.2 789.2C2048.7 789.2 2044.5 786.8 2042.2 782.8L1946.7 615.8C1941.9 607.4 1948 596.8 1957.7 596.8C1962.2 596.8 1966.4 599.2 1968.7 603.2L2064.2 770.2C2069 778.7 2062.9 789.2 2053.2 789.2Z" stroke="#66B0F0" stroke-width="6" stroke-miterlimit="10"/>
<path d="M1754.2 119.7H1356V517.9H1754.2V119.7Z" stroke="#66B0F0" stroke-width="6" stroke-miterlimit="10"/>
<path d="M1356 424.9L1754.1 129.7" stroke="#66B0F0" stroke-width="6" stroke-miterlimit="10" stroke-linecap="round"/>
<path d="M1725.3 789.2C1729.8 789.2 1734 786.8 1736.3 782.8L1831.8 615.8C1836.6 607.4 1830.5 596.8 1820.8 596.8C1816.3 596.8 1812.1 599.2 1809.8 603.2L1714.3 770.2C1709.5 778.7 1715.6 789.2 1725.3 789.2Z" stroke="#66B0F0" stroke-width="6" stroke-miterlimit="10"/>
<path d="M3564.5 2436.1L200.4 2626.1V2355.8H3564.5V2436.1Z" fill="#D0F0E4"/>
<path d="M3411.2 2146.3L375 2336.3V2066H3411.2V2146.3Z" fill="#D0F0E4"/>
<path d="M3215.7 1857.5L538.9 2047.5V1777.2H3215.7V1857.5Z" fill="#D0F0E4"/>
<path d="M3061.6 1570.7L721.5 1760.7V1490.4H3061.6V1570.7Z" fill="#D0F0E4"/>
<path d="M200.4 2355.8H3564.5V2616.1" stroke="#66B0F0" stroke-width="6" stroke-miterlimit="10"/>
<path d="M375 2065H3411.2V2336.4" stroke="#66B0F0" stroke-width="6" stroke-miterlimit="10"/>
<path d="M538.9 1776.2H3215.7V2047.5" stroke="#66B0F0" stroke-width="6" stroke-miterlimit="10"/>
<path d="M722.5 1489.4H3061.6V1760.7" stroke="#66B0F0" stroke-width="6" stroke-miterlimit="10"/>
<path d="M2851.6 1299.7L931.601 1466.2V1229.3H2851.6V1299.7Z" fill="#D0F0E4"/>
<path d="M932.4 1228.4H2851.6V1466.2" stroke="#66B0F0" stroke-width="6" stroke-miterlimit="10"/>
<path d="M721.7 1771.9V1147.7" stroke="#66B0F0" stroke-width="6" stroke-miterlimit="10"/>
<path d="M1238.4 724.2L63.9002 1686.3C22.8002 1727.4 -0.299805 1783.1 -0.299805 1841.2C-0.299805 1962.2 97.8002 2065.3 218.8 2065.3" stroke="#66B0F0" stroke-width="6" stroke-miterlimit="10"/>
<path d="M372 2336.4V1433.3" stroke="#66B0F0" stroke-width="6" stroke-miterlimit="10"/>
<path d="M3061.6 1773.9V1147.7" stroke="#66B0F0" stroke-width="6" stroke-miterlimit="10"/>
<path d="M2544.9 724.2L3719.5 1686.3C3760.6 1727.4 3783.7 1783.1 3783.7 1841.2C3783.7 1962.2 3685.6 2065.3 3564.6 2065.3" stroke="#66B0F0" stroke-width="6" stroke-miterlimit="10"/>
<path d="M3411.4 2336.4V1433.3" stroke="#66B0F0" stroke-width="6" stroke-miterlimit="10"/>
<path d="M3251.9 2631.6C3251.9 2631.6 3382.8 2396.7 3303.3 2395.4C3266.2 2394.8 3228.2 2521.9 3242.6 2631.6H3251.9Z" fill="#3FB1B5"/>
<path d="M3246.2 2630.3C3246.2 2630.3 3294.8 2410.4 3412.2 2445.9C3529.6 2481.4 3329.2 2630.3 3329.2 2630.3" stroke="#FFCF2D" stroke-width="6" stroke-miterlimit="10" stroke-linecap="round"/>
<path d="M3089.1 2634.1C3048.4 2630.3 3025.4 2557.5 3073.6 2533.2C3142.9 2498.3 3164.6 2571.2 3150.9 2573.6C3137.2 2576.1 3117.9 2483.9 3177.7 2486.4C3237.5 2488.9 3239.7 2630.3 3239.7 2630.3" stroke="#FFCF2D" stroke-width="6" stroke-miterlimit="10" stroke-linecap="round"/>
<path d="M3295.4 2630.3C3295.4 2630.3 3357.9 2478.5 3418.8 2448.2" stroke="#FFCF2D" stroke-width="6" stroke-miterlimit="10" stroke-linecap="round"/>
<path d="M3228.8 2551.5C3228.8 2551.5 3214.1 2470 3213.5 2416.4" stroke="#FFCF2D" stroke-width="6" stroke-miterlimit="10"/>
<path d="M3246.6 2452.7C3243.7 2459.9 3221.3 2477.8 3221.3 2477.8C3221.3 2477.8 3217.7 2449.3 3220.6 2442.1C3223.5 2434.9 3231.7 2431.5 3238.8 2434.4C3246 2437.3 3249.5 2445.5 3246.6 2452.7Z" stroke="#FFCF2D" stroke-width="6" stroke-miterlimit="10"/>
<path d="M3239.1 2395.4C3236.2 2402.6 3213.8 2420.5 3213.8 2420.5C3213.8 2420.5 3210.2 2392 3213.1 2384.8C3216 2377.6 3224.2 2374.2 3231.3 2377.1C3238.5 2380.1 3242 2388.2 3239.1 2395.4Z" stroke="#FFCF2D" stroke-width="6" stroke-miterlimit="10"/>
<path d="M3187.5 2459C3191.7 2465.5 3217.1 2478.8 3217.1 2478.8C3217.1 2478.8 3215.2 2450.2 3211 2443.7C3206.8 2437.2 3198.1 2435.4 3191.6 2439.6C3185.1 2443.9 3183.3 2452.5 3187.5 2459Z" stroke="#FFCF2D" stroke-width="6" stroke-miterlimit="10"/>
<path d="M341.5 2635.7C341.5 2635.7 261.1 2563.1 262.7 2511C264.5 2451.4 321.5 2480.2 324.5 2458.7C327.6 2437.3 264.3 2290.9 352.4 2292C440.5 2293.1 399.5 2433.5 423.4 2446.5C447.3 2459.4 486.9 2444 476.2 2500.8C465.5 2557.7 376.5 2635 376.5 2635L341.5 2635.7Z" fill="#3FB1B5"/>
<path d="M100.1 2633.9C48 2633.9 7.89999 2538.7 88.2 2513.5C168.5 2488.3 177.3 2564.2 159.8 2567.1C142.3 2570 133.6 2421.3 278.1 2441.5C435.8 2463.5 339.4 2633.9 339.4 2633.9C339.4 2633.9 432.4 2477.5 346.9 2294.3" stroke="#FFCF2D" stroke-width="6" stroke-miterlimit="10" stroke-linecap="round"/>
<path d="M448.6 2633.9C448.6 2633.9 530.2 2463.1 608.5 2517.5C686.8 2571.9 503 2633.9 503 2633.9" stroke="#FFCF2D" stroke-width="6" stroke-miterlimit="10" stroke-linecap="round"/>
<path d="M478 2632.4C478 2632.4 557.3 2526.4 609.6 2518.6" stroke="#FFCF2D" stroke-width="6" stroke-miterlimit="10" stroke-linecap="round"/>
<path d="M377.9 2632.9C377.9 2632.9 420.8 2533 458.8 2473.8" stroke="#FFCF2D" stroke-width="6" stroke-miterlimit="10" stroke-linecap="round"/>
<path d="M468.9 2537.4C460.5 2543.2 423 2546.7 423 2546.7C423 2546.7 439.7 2512.9 448 2507.1C456.4 2501.3 467.8 2503.4 473.6 2511.8C479.4 2520.2 477.3 2531.7 468.9 2537.4Z" stroke="#FFCF2D" stroke-width="6" stroke-miterlimit="10"/>
<path d="M502.1 2469.2C493.7 2475 456.2 2478.5 456.2 2478.5C456.2 2478.5 472.9 2444.7 481.2 2438.9C489.6 2433.1 501 2435.2 506.8 2443.6C512.6 2452 510.5 2463.5 502.1 2469.2Z" stroke="#FFCF2D" stroke-width="6" stroke-miterlimit="10"/>
<path d="M516 2411.3C510.6 2419.9 477.5 2437.9 477.5 2437.9C477.5 2437.9 479.4 2400.3 484.9 2391.7C490.3 2383.1 501.7 2380.5 510.3 2385.9C518.9 2391.3 521.4 2402.7 516 2411.3Z" stroke="#FFCF2D" stroke-width="6" stroke-miterlimit="10"/>
<path d="M399.5 2501.6C399.4 2511.8 417.6 2544.8 417.6 2544.8C417.6 2544.8 436.2 2512 436.3 2501.9C436.4 2491.7 428.2 2483.4 418 2483.4C407.9 2483.3 399.6 2491.4 399.5 2501.6Z" stroke="#FFCF2D" stroke-width="6" stroke-miterlimit="10"/>
<path d="M436.7 2434.2C436.6 2444.4 454.8 2477.4 454.8 2477.4C454.8 2477.4 473.4 2444.6 473.5 2434.5C473.6 2424.3 465.4 2416 455.2 2416C445 2416 436.8 2424.1 436.7 2434.2Z" stroke="#FFCF2D" stroke-width="6" stroke-miterlimit="10"/>
<path d="M2836.3 2634.1H3679.1" stroke="#66B0F0" stroke-width="6" stroke-miterlimit="10"/>
<path d="M-29.6001 2634.1H2003.8" stroke="#66B0F0" stroke-width="6" stroke-miterlimit="10"/>
<path d="M1818.8 714.2C1818.8 720.4 1818.1 726.5 1816.8 732.5C1816.5 733.7 1816.2 734.9 1815.9 736.1C1812.7 748.1 1806.9 759.5 1798.6 769.2C1798.5 769.3 1798.4 769.5 1798.3 769.6C1797.4 770.7 1796.4 771.7 1795.4 772.8C1795.2 773.1 1794.9 773.3 1794.7 773.5C1791.4 776.9 1787.7 780.1 1783.7 783C1776.7 788.1 1769.3 791.9 1761.6 794.6C1760.4 795 1759.2 795.4 1758 795.8C1747.2 799 1735.9 800 1724.9 798.8C1723.7 798.7 1722.5 798.5 1721.3 798.3C1709.6 796.5 1698.3 792.4 1688.2 785.9C1687 785.1 1685.8 784.3 1684.6 783.5C1680.2 780.4 1676.1 776.8 1672.3 772.8C1671.2 771.6 1670.1 770.5 1669.1 769.2C1667 766.7 1664.9 764 1663.1 761.2L1656.8 751.7L1662.4 769.2L1663.5 772.8L1674 805.9L1675.1 809.5L1684.6 839.5L1685.6 842.6L1686.7 846.2L1688.2 850.8L1697.2 879.3L1698.3 882.9L1708.8 916L1709.9 919.6L1720.4 952.7L1721.2 955.3L1721.5 956.3L1724.8 966.6L1725.4 968.5C1725.3 968.1 1725.1 967.7 1724.8 967.3C1724.1 966.3 1722.9 965.4 1721.2 964.6C1715.5 961.8 1704.1 959.7 1688.1 958.5C1686.9 958.4 1685.7 958.3 1684.5 958.2C1674.9 957.6 1663.9 957.2 1651.4 957C1650.2 957 1649 957 1647.8 957C1637.6 956.9 1626.6 957 1614.7 957.3C1613.5 957.3 1612.3 957.4 1611.1 957.4C1600.6 957.7 1589.6 958.1 1578 958.6C1576.8 958.7 1575.6 958.7 1574.4 958.8C1563.8 959.3 1552.8 959.9 1541.3 960.6C1540.1 960.7 1538.9 960.7 1537.7 960.8C1527 961.5 1516 962.2 1504.6 963.1C1503.4 963.2 1502.2 963.3 1501 963.4C1490.2 964.2 1479.2 965.1 1467.9 966.1C1466.8 966.2 1465.7 966.3 1464.6 966.4C1464.5 966.4 1464.4 966.4 1464.3 966.4C1453.1 967.4 1442 968.4 1431.2 969.5C1430 969.6 1428.8 969.7 1427.6 969.9C1416.3 971 1405.2 972.2 1394.5 973.5C1393.3 973.6 1392.1 973.8 1390.9 973.9C1379.5 975.2 1368.4 976.6 1357.8 978.1C1356.6 978.3 1355.4 978.4 1354.2 978.6C1342.6 980.2 1331.6 981.8 1321.1 983.4C1319.9 983.6 1318.7 983.8 1317.5 984C1306.1 985.8 1295.5 987.7 1285.6 989.5C1285.2 989.6 1284.8 989.7 1284.4 989.7C1283.2 989.9 1282 990.2 1280.8 990.4C1276.3 991.3 1272 992.2 1267.9 993.1C1260.5 994.7 1253.8 996.3 1247.7 997.9C1246.5 998.2 1245.3 998.5 1244.1 998.9C1223.1 1004.6 1211.2 1010.2 1211.2 1015.2V871.6H1100.9C1099.7 871.6 1098.5 871.6 1097.3 871.5C1085.7 871.1 1074.6 868.9 1064.2 865.3C1063 864.9 1061.8 864.4 1060.6 864C1049.7 859.7 1039.6 853.8 1030.6 846.5C1029.6 845.7 1028.5 844.8 1027.5 843.9C1027.1 843.6 1026.8 843.3 1026.4 842.9C1025.6 842.2 1024.7 841.4 1023.9 840.6C1023.2 840 1022.6 839.3 1021.9 838.6C1013.5 830.2 1006.4 820.5 1001 809.7C1000.4 808.5 999.8 807.3 999.3 806.1C994.5 795.8 991.3 784.7 989.9 773C989.7 771.8 989.6 770.6 989.5 769.4C989.2 766 989 762.6 989 759.1C989 751.4 989.8 743.7 991.3 736.3C991.5 735.1 991.8 733.9 992.1 732.7C994.9 721 999.6 709.9 1006 699.6C1006.6 698.7 1007.2 697.7 1007.8 696.8L1008.3 696L1023.8 672.7L1027.4 667.3L1030.4 662.9L1032.8 659.3L1054.9 626.2L1057.3 622.6L1060.6 617.7L1064.2 612.3L1079.4 589.5L1081.8 585.9L1097.3 562.6L1100.9 557.2L1103.8 552.8L1106.2 549.2L1128.3 516.1L1130.7 512.5L1131.3 511.6C1132.2 510.3 1133.1 509.1 1134 507.8C1135.2 506.2 1136.4 504.7 1137.6 503.1C1144.6 494.3 1152.4 486.4 1161 479.4C1162.5 478.2 1164 477 1165.5 475.8C1167.2 474.5 1169 473.2 1170.7 472C1171.9 471.2 1173.1 470.4 1174.3 469.6C1184.6 462.7 1195.8 457.1 1207.4 452.8C1208.6 452.4 1209.8 451.9 1211 451.5C1221.7 447.8 1232.8 445.3 1244.1 444C1245.3 443.9 1246.5 443.7 1247.7 443.6C1252.7 443.1 1257.8 442.9 1262.9 442.9H1543.2L1543.5 442.8L1552.7 439.2L1574.3 430.8L1577.9 429.4L1611 416.5L1614.6 415.1L1637.9 406.1L1647.1 402.5L1647.7 402.2L1651.3 400.8L1657.5 398.4L1659.7 402.5L1661.7 406.1L1679.8 439.2L1681.8 442.8L1684.4 447.6L1688 454.2L1699.9 475.9L1701.9 479.5L1720 512.6L1721.1 514.7L1721.9 516.2L1724.7 521.2L1740 549.3L1742 552.9L1757.8 581.8L1760.1 586L1761.4 588.3L1762.1 589.6L1780.2 622.7L1782.2 626.3L1794.5 648.8L1798.1 655.4L1800.3 659.4L1802.3 663L1808.2 673.8C1812.1 681 1814.9 688.5 1816.6 696.1C1816.9 697.3 1817.1 698.5 1817.3 699.7C1818.4 704.3 1818.8 709.3 1818.8 714.2Z" fill="#FE5244"/>
<g opacity="0.2">
<g opacity="0.2">
<g opacity="0.2">
<path opacity="0.2" d="M1027.9 667.2V843.6C1027.5 843.3 1027.2 843 1026.8 842.6C1026 841.9 1025.1 841.1 1024.3 840.3V672.6L1027.9 667.2Z" fill="white"/>
</g>
<g opacity="0.2">
<path opacity="0.2" d="M1101.3 557.101V871.301C1100.1 871.301 1098.9 871.301 1097.7 871.201V562.501L1101.3 557.101Z" fill="white"/>
</g>
<g opacity="0.2">
<path opacity="0.2" d="M1064.6 612.101V864.901C1063.4 864.501 1062.2 864.001 1061 863.601V617.501L1064.6 612.101Z" fill="white"/>
</g>
<g opacity="0.2">
<path opacity="0.2" d="M1174.7 469.4V871.2H1171.1V471.9C1172.3 471.1 1173.5 470.2 1174.7 469.4Z" fill="white"/>
</g>
<g opacity="0.2">
<path opacity="0.2" d="M1138 503V871.2H1134.4V507.7C1135.6 506.1 1136.8 504.6 1138 503Z" fill="white"/>
</g>
<g opacity="0.2">
<path opacity="0.2" d="M1248.1 443.5V997.7C1246.9 998 1245.7 998.3 1244.5 998.7V443.8C1245.7 443.7 1246.9 443.6 1248.1 443.5Z" fill="white"/>
</g>
<g opacity="0.2">
<path opacity="0.2" d="M1211.4 451.4V871.3H1207.8V452.6C1209 452.2 1210.2 451.8 1211.4 451.4Z" fill="white"/>
</g>
<g opacity="0.2">
<g opacity="0.2">
<path opacity="0.2" d="M1284.7 442.601V989.501C1283.5 989.701 1282.3 990.001 1281.1 990.201V442.601H1284.7Z" fill="white"/>
</g>
</g>
<g opacity="0.2">
<path opacity="0.2" d="M1358.1 442.601V977.901C1356.9 978.101 1355.7 978.201 1354.5 978.401V442.601H1358.1Z" fill="white"/>
</g>
<g opacity="0.2">
<path opacity="0.2" d="M1321.4 442.601V983.201C1320.2 983.401 1319 983.601 1317.8 983.801V442.601H1321.4Z" fill="white"/>
</g>
<g opacity="0.2">
<path opacity="0.2" d="M1431.5 442.601V969.401C1430.3 969.501 1429.1 969.601 1427.9 969.801V442.601H1431.5Z" fill="white"/>
</g>
<g opacity="0.2">
<path opacity="0.2" d="M1394.8 442.601V973.301C1393.6 973.401 1392.4 973.601 1391.2 973.701V442.601H1394.8Z" fill="white"/>
</g>
<g opacity="0.2">
<path opacity="0.2" d="M1504.9 442.601V963.001C1503.7 963.101 1502.5 963.201 1501.3 963.301V442.601H1504.9Z" fill="white"/>
</g>
<g opacity="0.2">
<path opacity="0.2" d="M1468.2 442.601V966.001C1467.1 966.101 1466 966.201 1464.9 966.301C1464.8 966.301 1464.7 966.301 1464.6 966.301V442.601H1468.2Z" fill="white"/>
</g>
<g opacity="0.2">
<g opacity="0.2">
<path opacity="0.2" d="M1541.5 442.601V960.601C1540.3 960.701 1539.1 960.701 1537.9 960.801V442.601H1541.5Z" fill="white"/>
</g>
</g>
<g opacity="0.2">
<path opacity="0.2" d="M1614.9 415V957.4C1613.7 957.4 1612.5 957.5 1611.3 957.5V416.4L1614.9 415Z" fill="white"/>
</g>
<g opacity="0.2">
<path opacity="0.2" d="M1578.2 429.2V958.6C1577 958.7 1575.8 958.7 1574.6 958.8V430.6L1578.2 429.2Z" fill="white"/>
</g>
<g opacity="0.2">
<path opacity="0.2" d="M1688.3 454V785.9C1687.1 785.1 1685.9 784.3 1684.7 783.5V447.5L1688.3 454Z" fill="white"/>
<path opacity="0.2" d="M1688.3 850.8V958.5C1687.1 958.4 1685.9 958.3 1684.7 958.2V839.4L1685.7 842.5L1686.8 846.1L1688.3 850.8Z" fill="white"/>
</g>
<g opacity="0.2">
<path opacity="0.2" d="M1651.6 400.2V400.7L1648 402.1V400.2H1651.6Z" fill="white"/>
<path opacity="0.2" d="M1651.6 400.7V957.1C1650.4 957.1 1649.2 957.1 1648 957.1V402.1L1651.6 400.7Z" fill="white"/>
</g>
<g opacity="0.2">
<path opacity="0.2" d="M1761.7 588.101V794.601C1760.5 795.001 1759.3 795.401 1758.1 795.801V581.601L1760.4 585.801L1761.7 588.101Z" fill="white"/>
</g>
<g opacity="0.2">
<path opacity="0.2" d="M1725 966.6V967.4C1724.3 966.4 1723.1 965.5 1721.4 964.7V955.3L1721.7 956.3L1725 966.6Z" fill="white"/>
<path opacity="0.2" d="M1725 521V798.7C1723.8 798.6 1722.6 798.4 1721.4 798.2V514.5L1722.2 516L1725 521Z" fill="white"/>
</g>
<g opacity="0.2">
<g opacity="0.2">
<path opacity="0.2" d="M1798.3 655.101V769.601C1797.4 770.701 1796.4 771.701 1795.4 772.801C1795.2 773.101 1794.9 773.301 1794.7 773.501V648.601L1798.3 655.101Z" fill="white"/>
</g>
</g>
</g>
<g opacity="0.2">
<g opacity="0.2">
<path opacity="0.2" d="M1286 989.3C1285.6 989.4 1285.2 989.5 1284.8 989.5C1283.6 989.7 1282.4 990 1281.2 990.2C1276.7 991.1 1272.4 992 1268.3 992.9H1211.4V989.3H1286V989.3Z" fill="white"/>
</g>
<g opacity="0.2">
<path opacity="0.2" d="M1710.1 919.499H1211.4V915.899H1708.9L1710.1 919.499Z" fill="white"/>
</g>
<g opacity="0.2">
<path opacity="0.2" d="M1721.7 956.2H1211.4V952.6H1720.6L1721.4 955.2L1721.7 956.2Z" fill="white"/>
</g>
<g opacity="0.2">
<g opacity="0.2">
<path opacity="0.2" d="M1698.4 882.8H1211.4V879.3H1697.3L1698.4 882.8Z" fill="white"/>
</g>
</g>
<g opacity="0.2">
<path opacity="0.2" d="M1675.2 809.499H1001.5C1000.9 808.299 1000.3 807.099 999.8 805.899H1674.1L1675.2 809.499Z" fill="white"/>
</g>
<g opacity="0.2">
<path opacity="0.2" d="M1686.8 846.2H1031C1030 845.4 1028.9 844.5 1027.9 843.6C1027.5 843.3 1027.2 843 1026.8 842.6H1685.6L1686.8 846.2Z" fill="white"/>
</g>
<g opacity="0.2">
<path opacity="0.2" d="M1816.9 732.5C1816.6 733.7 1816.3 734.9 1816 736.1H991.8C992 734.9 992.3 733.7 992.6 732.5H1816.9Z" fill="white"/>
</g>
<g opacity="0.2">
<path opacity="0.2" d="M1663.6 772.8H990.3C990.1 771.6 990 770.4 989.9 769.2H1662.4L1663.6 772.8Z" fill="white"/>
<path opacity="0.2" d="M1798.7 769.2C1798.6 769.3 1798.5 769.5 1798.4 769.6C1797.5 770.7 1796.5 771.7 1795.5 772.8H1672.4C1671.3 771.6 1670.2 770.5 1669.2 769.2H1798.7V769.2Z" fill="white"/>
</g>
<g opacity="0.2">
<path opacity="0.2" d="M1802.5 662.7H1030.9L1033.3 659.1H1800.5L1802.5 662.7Z" fill="white"/>
</g>
<g opacity="0.2">
<path opacity="0.2" d="M1817.5 699.4H1006.5C1007.1 698.5 1007.7 697.5 1008.3 696.6L1008.8 695.8H1816.8C1817.1 697 1817.3 698.2 1817.5 699.4Z" fill="white"/>
</g>
<g opacity="0.2">
<g opacity="0.2">
<path opacity="0.2" d="M1782.4 626H1055.4L1057.7 622.5H1780.5L1782.4 626Z" fill="white"/>
</g>
</g>
<g opacity="0.2">
<path opacity="0.2" d="M1742.3 552.7H1104.2L1106.6 549.1H1740.3L1742.3 552.7Z" fill="white"/>
</g>
<g opacity="0.2">
<path opacity="0.2" d="M1762.4 589.4H1079.8L1082.2 585.8H1760.4L1761.7 588.1L1762.4 589.4Z" fill="white"/>
</g>
<g opacity="0.2">
<path opacity="0.2" d="M1702.1 479.3H1161.3C1162.8 478.1 1164.3 476.9 1165.8 475.7H1700.1L1702.1 479.3Z" fill="white"/>
</g>
<g opacity="0.2">
<path opacity="0.2" d="M1722.2 515.999H1128.7L1131.1 512.399H1720.2L1721.4 514.499L1722.2 515.999Z" fill="white"/>
</g>
<g opacity="0.2">
<path opacity="0.2" d="M1662 405.9H1638.2L1647.4 402.3H1660L1662 405.9Z" fill="white"/>
</g>
<g opacity="0.2">
<path opacity="0.2" d="M1682.1 442.6H1543.9L1553.1 439H1680.1L1682.1 442.6Z" fill="white"/>
</g>
</g>
</g>
<path d="M1473.7 1039C1304.5 1052.1 1211.7 1036.1 1211.6 1014.9C1211.6 999.7 1323.3 978.6 1464.9 966.3C1614.4 953.4 1721 954 1725.6 968.5C1732 988.7 1648.9 1025.4 1473.7 1039Z" fill="#E57281"/>
<path d="M1465.8 844.4L1523.4 961.7" stroke="white" stroke-width="6" stroke-miterlimit="10"/>
<path d="M1446.7 890.2C1451.62 890.2 1455.6 886.216 1455.6 881.3C1455.6 876.385 1451.62 872.4 1446.7 872.4C1441.78 872.4 1437.8 876.385 1437.8 881.3C1437.8 886.216 1441.78 890.2 1446.7 890.2Z" stroke="white" stroke-width="5" stroke-miterlimit="10"/>
<path d="M1543.6 442.7L1669.2 778.4" stroke="white" stroke-width="5" stroke-miterlimit="10"/>
<path d="M989.9 741.6C1015.3 726.9 1051.9 742.7 1071.6 776.9C1091.3 811 1086.7 850.6 1061.3 865.3" stroke="white" stroke-width="5" stroke-miterlimit="10" stroke-linecap="round"/>
<path d="M1815.7 737.1C1810.7 755 1799.8 771.4 1783.8 783C1760 800.3 1730.3 803.3 1704.8 794C1699.1 771.6 1715.7 744.8 1744.7 731.3C1771.5 718.9 1800.5 721.9 1815.7 737.1Z" stroke="white" stroke-width="5" stroke-miterlimit="10"/>
<path d="M1465.8 964L1464.6 442.6" stroke="white" stroke-width="6" stroke-miterlimit="10"/>
<path d="M1495.1 560.3C1500.02 560.3 1504 556.315 1504 551.4C1504 546.485 1500.02 542.5 1495.1 542.5C1490.18 542.5 1486.2 546.485 1486.2 551.4C1486.2 556.315 1490.18 560.3 1495.1 560.3Z" stroke="white" stroke-width="5" stroke-miterlimit="10"/>
<path d="M1495.1 670.1C1500.02 670.1 1504 666.115 1504 661.2C1504 656.284 1500.02 652.3 1495.1 652.3C1490.18 652.3 1486.2 656.284 1486.2 661.2C1486.2 666.115 1490.18 670.1 1495.1 670.1Z" stroke="white" stroke-width="5" stroke-miterlimit="10"/>
<path d="M1495.1 779.9C1500.02 779.9 1504 775.915 1504 771C1504 766.084 1500.02 762.1 1495.1 762.1C1490.18 762.1 1486.2 766.084 1486.2 771C1486.2 775.915 1490.18 779.9 1495.1 779.9Z" stroke="white" stroke-width="5" stroke-miterlimit="10"/>
<path d="M1335.5 440.9L1465.4 515.4L1534.6 440" stroke="white" stroke-width="5" stroke-miterlimit="10"/>
<path d="M1768.1 1777.8L1536.9 1777.9L1552.4 1728.4H1767.1L1768.1 1777.8Z" fill="white" stroke="#FE5244" stroke-width="5" stroke-miterlimit="10"/>
<path d="M1822.1 1205.4C1857.9 1264.6 1868.2 1335.8 1850.8 1402.7L1776 1690L1766 1728.4H1552.5L1568.3 1678.1L1657.2 1390L1402.7 972.401C1422.5 970.201 1443.3 968.101 1464.8 966.301C1553 958.701 1626.2 955.801 1672.4 957.601L1822.1 1205.4Z" fill="white" stroke="#9A3B82" stroke-width="6" stroke-miterlimit="10" stroke-linecap="round"/>
<path d="M2078.9 1777.8L1768.1 1777.9L1767.1 1728.1L1767.3 1728.4L1938.3 1649.1C2034.8 1679 2076.5 1722.5 2094.1 1750.5C2101.5 1762.4 2092.9 1777.8 2078.9 1777.8Z" fill="white" stroke="#FE5244" stroke-width="5" stroke-miterlimit="10"/>
<path d="M1938.3 1649.1L1767.3 1728.4L1312.7 1106.2C1297.7 1085.7 1286 1063.3 1277.8 1039.6C1272.6 1024.6 1268.8 1009.1 1266.5 993.301C1312.6 983.201 1383.9 973.301 1464.9 966.301C1485.3 964.501 1504.8 963.001 1523.4 961.801L1564 1029L1938.3 1649.1Z" fill="white" stroke="#9A3B82" stroke-width="6" stroke-miterlimit="10" stroke-linecap="round"/>
<path d="M1437.6 1026.2L1839 1691.3" stroke="#9A3B82" stroke-width="6" stroke-miterlimit="10" stroke-linecap="round"/>
<path d="M1409.2 1000.4C1409.2 1000.4 1406.2 1073.8 1342.8 1099.7" stroke="#9A3B82" stroke-width="6" stroke-miterlimit="10" stroke-linecap="round"/>
<path d="M1672.5 957.601L1695.5 995.801C1669 1007.6 1625.3 1019.8 1563.9 1028.9C1537.2 1032.9 1507.1 1036.3 1473.6 1038.9C1456.7 1040.2 1440.6 1041.2 1425.3 1042C1362.9 1045.1 1313.3 1043.7 1277.7 1039.6C1272.5 1024.6 1268.7 1009.1 1266.4 993.301C1266.4 993.301 1366.3 974.301 1469.5 965.901C1572.7 957.501 1672.5 957.601 1672.5 957.601Z" fill="#9A3B82"/>
<path d="M1208.9 1015.8C1208.9 1000.6 1316.2 978.401 1464.9 965.401C1614.4 952.301 1723.7 954.001 1728.3 968.501" stroke="white" stroke-width="5" stroke-miterlimit="10" stroke-linecap="round"/>
<path d="M1475.2 442.7H1340.9L1359.4 345.2H1475.2V442.7Z" fill="#FFCF2D"/>
<path d="M1374.3 442.7H1340.9L1359.4 345.2H1475.2V379.6L1374.3 442.7Z" fill="#E57281"/>
<path d="M1358.9 359.8C1358.9 359.8 1377.3 255.2 1379.7 249.3C1383.8 239.3 1468.5 207.1 1481.5 219C1494.5 230.9 1468.2 241.5 1482.3 240.4C1496.4 239.3 1538.9 207.7 1556.7 231.8C1567.5 246.5 1532.7 267.7 1510.4 272C1488.1 276.3 1425.4 309.9 1423.9 321.8C1422.4 333.7 1402.3 357.5 1358.9 359.8Z" fill="white" stroke="#FFCF2D" stroke-width="5" stroke-miterlimit="10"/>
<path d="M1510.4 270.2V358.8C1510.4 372.6 1499.2 383.7 1485.5 383.7H1453.8C1437.3 383.7 1424 370.3 1424 353.8V345.1H1408.6C1403.6 345.1 1399.1 343.1 1395.8 339.8C1392.5 336.5 1390.5 332 1390.5 327C1390.5 317 1398.6 308.9 1408.6 308.9H1426C1430.6 294.5 1442.7 283.3 1458.2 280.3L1510.4 270.2Z" fill="#FFCF2D"/>
<path d="M1420.4 330.901C1420.4 322.701 1415.5 316.601 1407.4 317.901" stroke="#E57281" stroke-width="4" stroke-miterlimit="10" stroke-linecap="round"/>
<path d="M1477.8 302.3C1477.8 302.3 1488.2 296.4 1499.9 295.3" stroke="#E57281" stroke-width="4" stroke-miterlimit="10" stroke-linecap="round"/>
<path d="M1492.2 321.601C1494.41 321.601 1496.2 318.69 1496.2 315.101C1496.2 311.511 1494.41 308.601 1492.2 308.601C1489.99 308.601 1488.2 311.511 1488.2 315.101C1488.2 318.69 1489.99 321.601 1492.2 321.601Z" fill="#E57281"/>
<path d="M1415 761.301L1391.4 770.301L1389.3 771.101L1373.1 777.201V732.601H1177.2L1220.8 658.501L1222.6 655.401L1244.1 647.301L1248.3 645.701L1264.8 639.401L1268 638.201L1293.4 628.501L1297.6 626.901L1313.8 620.801L1317.8 619.301L1335.2 612.701C1335.6 612.501 1336 612.401 1336.4 612.301C1337.7 611.901 1339 611.601 1340.3 611.501C1341.9 611.301 1343.5 611.301 1345 611.401C1349.8 611.801 1354.3 613.901 1357.8 617.201C1360.2 619.401 1362.1 622.201 1363.3 625.401L1415 761.301Z" fill="white"/>
<path d="M1384.7 675.1L1365.6 624.6C1364.3 621.2 1362.3 618.2 1359.9 615.9C1355.9 612 1350.5 609.6 1344.9 609.2C1343.1 609.1 1341.3 609.1 1339.6 609.4C1337.9 609.6 1336.2 610.1 1334.6 610.7L1317.2 617.301L1313 618.9L1297 625L1292.8 626.6L1267.8 636.1L1263.6 637.7L1247.5 643.801L1243.3 645.4L1224.4 652.6L1222.6 655.7L1220.8 658.801L1245.1 649.6L1249.3 648L1294.4 630.9L1298.6 629.301L1334.7 615.6L1336 615.1C1336.6 614.9 1337.2 614.7 1337.8 614.5C1339 614.2 1340.1 614 1341.3 613.9C1341.9 613.9 1342.4 613.801 1343 613.801C1350.9 613.801 1358.4 618.6 1361.4 626.5L1412.1 760.301L1392.6 767.7L1390.5 768.5L1388.4 769.301L1373 775.1V779.9L1390 773.5L1417.8 762.9L1384.7 675.1Z" fill="#3FB1B5"/>
<path d="M1415 761.3L1391.3 770.3L1336.5 625.8C1334 619.3 1337.3 612 1343.8 609.5C1350.3 607 1357.6 610.3 1360.1 616.8L1415 761.3Z" fill="#3FB1B5"/>
<path d="M1390 773.1L1334.4 626.5C1331.5 618.8 1335.4 610.2 1343 607.3C1346.7 605.9 1350.8 606 1354.4 607.6C1358 609.2 1360.8 612.2 1362.2 615.9L1417.8 762.5L1390 773.1ZM1348.4 610.9C1347.2 610.9 1345.9 611.1 1344.7 611.6C1339.3 613.6 1336.6 619.7 1338.7 625L1392.7 767.4L1412.2 760L1358.2 617.6C1357.2 615 1355.3 612.9 1352.7 611.8C1351.3 611.2 1349.8 610.9 1348.4 610.9Z" fill="#3FB1B5"/>
<path d="M1308.4 641.001C1306 641.001 1303.4 640.101 1301 638.401C1297.6 636.001 1294.9 632.301 1293.2 627.901C1291.5 623.501 1291.1 618.801 1292.1 614.801C1293.1 610.501 1295.6 607.401 1299 606.101C1305.9 603.501 1314.1 609.001 1317.7 618.601C1318.1 619.801 1317.6 621.101 1316.4 621.501C1315.2 621.901 1313.9 621.401 1313.5 620.201C1310.8 613.201 1304.9 608.701 1300.5 610.301C1298.5 611.101 1297 613.001 1296.4 615.801C1295.7 618.901 1296 622.601 1297.4 626.201C1298.8 629.801 1301 632.801 1303.6 634.701C1306 636.401 1308.4 636.901 1310.4 636.101C1311.6 635.701 1312.9 636.201 1313.3 637.401C1313.7 638.601 1313.2 639.901 1312 640.301C1310.8 640.801 1309.6 641.001 1308.4 641.001Z" fill="#3FB1B5"/>
<path d="M1258.7 659.1C1256.3 659.1 1253.7 658.2 1251.3 656.5C1247.9 654.1 1245.2 650.4 1243.5 646C1241.8 641.6 1241.4 636.9 1242.4 632.9C1243.4 628.6 1245.9 625.5 1249.3 624.2C1252.7 622.9 1256.6 623.6 1260.2 626.1C1263.6 628.5 1266.3 632.2 1268 636.6C1268.4 637.8 1267.9 639.1 1266.7 639.5C1265.5 639.9 1264.2 639.4 1263.8 638.2C1262.4 634.6 1260.2 631.6 1257.6 629.7C1255.2 628 1252.8 627.5 1250.8 628.3C1248.8 629.1 1247.3 631 1246.7 633.8C1246 636.9 1246.3 640.6 1247.7 644.2C1249.1 647.8 1251.3 650.8 1253.9 652.7C1256.3 654.4 1258.7 654.9 1260.7 654.1C1261.9 653.7 1263.2 654.2 1263.6 655.4C1264 656.6 1263.5 657.9 1262.3 658.3C1261.1 658.9 1259.9 659.1 1258.7 659.1Z" fill="#3FB1B5"/>
<path d="M1373.3 871.202C1387.33 871.202 1398.7 840.175 1398.7 801.902C1398.7 763.628 1387.33 732.602 1373.3 732.602C1359.27 732.602 1347.9 763.628 1347.9 801.902C1347.9 840.175 1359.27 871.202 1373.3 871.202Z" fill="#73325A"/>
<path d="M1464.5 746.801V821.801C1464.5 827.801 1461.4 833.401 1456.3 836.601L1424.3 855.601H1357.1C1351.4 842.901 1347.8 823.601 1347.8 802.101C1347.8 786.601 1349.7 772.201 1352.8 760.701H1417.2L1407.3 734.501C1404.4 727.001 1411.4 719.401 1419.1 721.501L1451.7 730.101C1459.3 732.101 1464.5 738.901 1464.5 746.801Z" fill="#FFCF2D"/>
<path d="M1462.7 798.401C1462.7 804.401 1459.6 810.001 1454.5 813.201L1424.3 832.201" stroke="#73325A" stroke-width="4" stroke-miterlimit="10" stroke-linecap="round"/>
<path d="M1462.7 770.701C1462.7 776.701 1459.6 782.301 1454.5 785.501L1424.3 804.501" stroke="#73325A" stroke-width="4" stroke-miterlimit="10" stroke-linecap="round"/>
<path d="M1462.7 744.701C1462.7 750.701 1459.6 756.301 1454.5 759.501L1424.3 778.501" stroke="#73325A" stroke-width="4" stroke-miterlimit="10" stroke-linecap="round"/>
<path d="M1432.2 751.102L1417.1 760.502" stroke="#73325A" stroke-width="4" stroke-miterlimit="10" stroke-linecap="round"/>
<path d="M1398.7 801.901C1398.7 823.501 1395.1 842.801 1389.4 855.501H1357.1C1351.4 842.801 1347.8 823.501 1347.8 801.901C1347.8 786.401 1349.7 772.001 1352.8 760.501H1393.6C1396.8 772.001 1398.7 786.401 1398.7 801.901Z" fill="#E57281"/>
<path d="M1252.6 609.801L1180.7 730.901" stroke="white" stroke-width="5" stroke-miterlimit="10"/>
<path d="M1372.4 730.9C1358.4 730.9 1347 765 1347 803.8C1347 842.6 1358.4 874 1372.4 874H1211.4" stroke="white" stroke-width="5" stroke-miterlimit="10" stroke-linecap="round"/>
<path d="M1546.9 312.9L1641.7 430.6L1587.9 485.2L1468.8 392.2C1465.3 388.8 1468.1 379.8 1475.3 368.6C1480.5 360.4 1488 351.1 1497.1 341.9C1506.2 332.7 1515.4 325 1523.5 319.7C1534.5 312.5 1543.4 309.6 1546.9 312.9Z" fill="#3FB1B5" stroke="#3FB1B5" stroke-width="5" stroke-miterlimit="10" stroke-linecap="round"/>
<path d="M1624.82 468.149C1639.66 453.08 1647.13 436.371 1641.51 430.83C1635.88 425.288 1619.29 433.011 1604.44 448.08C1589.6 463.149 1582.13 479.858 1587.76 485.4C1593.38 490.941 1609.98 483.218 1624.82 468.149Z" fill="white" stroke="#3FB1B5" stroke-width="6" stroke-miterlimit="10"/>
<path d="M1569.9 422.5V430.1C1569.9 436.3 1554.1 439.3 1549.8 434.8L1512.4 395.6C1509.6 392.6 1508 388.7 1508 384.6V362C1508 356.2 1510.7 350.8 1515.3 347.3L1528.6 337.2C1531.8 334.7 1535.8 333.4 1539.8 333.4H1575.9C1585.9 333.4 1595.1 338.9 1599.7 347.7L1631.5 407.6H1584.6C1576.5 407.7 1569.9 414.3 1569.9 422.5Z" fill="#FFCF2D"/>
<path d="M1630.8 407.7H1585.7C1577.5 407.7 1570.8 414.4 1570.8 422.6V430.2C1570.8 436.4 1556.8 439.4 1552.5 434.9L1511 391.7" stroke="#73325A" stroke-width="4" stroke-miterlimit="10" stroke-linecap="round"/>
<path d="M1526.3 407.7C1523.5 404.8 1522 401 1522 397V375C1522 369.3 1524.6 364 1529.1 360.6L1542.1 350.7C1545.3 348.3 1549.1 347 1553.1 347H1578.5" stroke="#73325A" stroke-width="4" stroke-miterlimit="10" stroke-linecap="round"/>
<path d="M1540.7 422.9C1537.9 420 1536.4 416.2 1536.4 412.2V390.2C1536.4 384.5 1539 379.2 1543.5 375.8L1556.5 365.9C1559.7 363.5 1563.5 362.2 1567.5 362.2H1590.2" stroke="#73325A" stroke-width="4" stroke-miterlimit="10" stroke-linecap="round"/>
<path d="M1556.4 435.501C1553.8 432.801 1552.4 429.301 1552.4 425.601V405.201C1552.4 400.001 1554.8 395.001 1559 391.901L1571 382.701C1573.9 380.501 1577.5 379.301 1581.1 379.301H1596.3" stroke="#73325A" stroke-width="4" stroke-miterlimit="10" stroke-linecap="round"/>
<path d="M2330.2 1184.9H2722C2801.2 1184.9 2875.2 1223.9 2920 1289.1L3099.5 1553.5C3114.3 1575 3100.9 1604.3 3074.8 1604.3H2875L2795.2 1500C2785.8 1486.8 2765 1492.6 2763.7 1508.8L2747.6 1705.2H2320.3L2284.3 1505.5C2282.1 1489.9 2261.9 1485.1 2252.8 1498L2179.5 1592.4H1940.6L2127 1297C2171.1 1227.2 2247.8 1184.9 2330.2 1184.9Z" fill="white" stroke="#3FB1B5" stroke-width="6" stroke-miterlimit="10" stroke-linecap="round"/>
<path d="M2568.9 1286.9L2632.4 1497.8H2475.5L2545.2 1286.9H2568.9Z" fill="#FE5244"/>
<g opacity="0.2">
<g opacity="0.2">
<g opacity="0.2">
<path opacity="0.2" d="M2518.3 1368.4V1497.8H2514.1V1381.1L2515.5 1376.8L2518.3 1368.4Z" fill="white"/>
</g>
<g opacity="0.2">
<path opacity="0.2" d="M2563 1287.4H2558.8V1497.8H2563V1287.4Z" fill="white"/>
</g>
<g opacity="0.2">
<path opacity="0.2" d="M2607.7 1415.7V1497.8H2603.5V1401.7L2607.7 1415.7Z" fill="white"/>
</g>
</g>
<g opacity="0.2">
<g opacity="0.2">
<path opacity="0.2" d="M2624.2 1470.5H2484.5L2485.9 1466.2H2622.9L2624.2 1470.5Z" fill="white"/>
</g>
<g opacity="0.2">
<path opacity="0.2" d="M2610.7 1425.8H2499.3L2500.7 1421.5H2609.4L2610.7 1425.8Z" fill="white"/>
</g>
<g opacity="0.2">
<path opacity="0.2" d="M2597.3 1381.1H2514.1L2515.5 1376.8H2596L2597.3 1381.1Z" fill="white"/>
</g>
<g opacity="0.2">
<path opacity="0.2" d="M2583.8 1336.4H2528.9L2530.3 1332.1H2582.5L2583.8 1336.4Z" fill="white"/>
</g>
<g opacity="0.2">
<path opacity="0.2" d="M2570.3 1291.7H2543.7L2545.1 1287.4H2569.1L2570.3 1291.7Z" fill="white"/>
</g>
</g>
</g>
<path d="M2597.3 1284.7L2622.9 1312.2L2705.4 1184.9H2632.3L2597.3 1284.7Z" fill="white" stroke="#3FB1B5" stroke-width="6" stroke-miterlimit="10" stroke-linecap="round"/>
<path d="M2521.4 1284.7L2495.7 1312.2L2406.3 1184.9H2486.3L2521.4 1284.7Z" fill="white" stroke="#3FB1B5" stroke-width="6" stroke-miterlimit="10" stroke-linecap="round"/>
<path d="M3130.9 1628.5C3130.9 1678.3 3095.4 1725.5 3040.2 1733.6L2813.9 1766.9L2764.2 1774.2V1581.8L2779.5 1578.2L3000.3 1525.8C3042.9 1515.7 3087.3 1532.8 3112.1 1568.9C3125 1587.5 3130.9 1608.2 3130.9 1628.5Z" fill="#A0505A"/>
<path d="M2813.9 1766.9L2764.2 1774.2V1581.8L2779.5 1578.2L2813.9 1766.9Z" fill="#73325A"/>
<path d="M2764.2 1823.4H2288.5V1537.9C2288.5 1515.7 2306.5 1497.8 2328.6 1497.8H2724C2746.2 1497.8 2764.1 1515.8 2764.1 1537.9V1823.4H2764.2Z" fill="#FFCF2D"/>
<path d="M2555.7 1683.4H2497C2491 1683.4 2486.2 1678.6 2486.2 1672.6V1648C2486.2 1642 2491 1637.2 2497 1637.2H2555.7C2561.7 1637.2 2566.5 1642 2566.5 1648V1672.6C2566.5 1678.6 2561.6 1683.4 2555.7 1683.4Z" stroke="white" stroke-width="5" stroke-miterlimit="10"/>
<path d="M2455.6 1820.3L2959.2 1745C3057.2 1730.1 3145.5 1806 3145.5 1905.2C3145.5 1994.7 3073 2067.2 2983.5 2067.2H2458.9L2455.6 1820.3Z" fill="#0096A0"/>
<path d="M2387.5 2111.3L2084.4 2169.8C2045.8 2178 2007 2145.8 2005.3 2104.2L2000.8 1993.6C1998.5 1937.6 2052.2 1903.9 2102.8 1927.9L2387.5 2111.3Z" fill="white" stroke="#FE5244" stroke-width="6" stroke-miterlimit="10"/>
<path d="M2104.9 2165.8C2067.6 2173.6 2029.9 2142.3 2028.1 2101.8L2023.4 1994.4C2021 1940 2072.8 1907.6 2121.8 1931" stroke="#FE5244" stroke-width="6" stroke-miterlimit="10"/>
<path d="M2102.8 1927.8L2387.5 2111.3L2322.6 2123.8L2102.8 1927.8Z" fill="#FE5244"/>
<path d="M2212.5 2008.2L2175 2082.9L2137.9 1995.1L2095 2093.7" stroke="#FE5244" stroke-width="6" stroke-miterlimit="10" stroke-linejoin="round"/>
<path d="M2092.9 1981.4L2134.9 2086.2L2176 2002.5L2207.9 2072.3" stroke="#FE5244" stroke-width="6" stroke-miterlimit="10" stroke-linejoin="round"/>
<path d="M2622.9 1974.2C2606.1 1960.4 2557.5 1991.8 2514.3 2044.3C2471.1 2096.8 2449.7 2150.6 2466.5 2164.4C2464 2162.9 2148.3 1964.9 1952.4 1829.8C1902.6 1795.5 1876.3 1740.5 1876.3 1684.8C1876.3 1646 1889.1 1606.9 1915.6 1574.2C1982 1492.3 2105 1486.8 2178.5 1562.4L2622.9 1974.2Z" fill="#3FB1B5"/>
<path d="M2575 2094.24C2618.18 2041.74 2639.57 1987.97 2622.76 1974.15C2605.96 1960.32 2557.33 1991.68 2514.14 2044.19C2470.96 2096.7 2449.57 2150.46 2466.38 2164.29C2483.18 2178.11 2531.81 2146.75 2575 2094.24Z" fill="#FE5244" stroke="white" stroke-width="6" stroke-miterlimit="10"/>
<path d="M2761.9 2147L2705.7 2242.4C2677.2 2290.7 2612.8 2291.6 2583.3 2244L2488.7 2091.6C2496.8 2078.2 2506.8 2064.2 2518.3 2050.2C2539.1 2024.9 2561.2 2004.5 2580.4 1991.7L2731 2049C2767.8 2063.1 2783 2111.1 2761.9 2147Z" fill="white" stroke="#FE5244" stroke-width="6" stroke-miterlimit="10"/>
<path d="M2715.1 2042.8C2749.9 2056.3 2762.2 2101.4 2742.3 2135.9L2689.3 2227.4C2662.5 2273.8 2601.8 2274.6 2573.9 2229" stroke="#FE5244" stroke-width="6" stroke-miterlimit="10"/>
<path d="M2530.3 2091.7L2606.9 2052.9L2583.9 2145.2L2675.5 2089" stroke="#FE5244" stroke-width="6" stroke-miterlimit="10" stroke-linejoin="round"/>
<path d="M2613 2182.2L2636.8 2074.7L2558.7 2113.2L2570.7 2041.8" stroke="#FE5244" stroke-width="6" stroke-miterlimit="10" stroke-linejoin="round"/>
<path d="M2672.7 1202.2C2672.3 1208.6 2669.5 1214.3 2665.1 1218.4C2660.7 1222.5 2654.9 1225 2648.5 1225H2626.4L2625 1248.3C2623.8 1267.5 2604.7 1287.1 2584.8 1287.1H2528.9C2509.1 1287.1 2489.9 1267.5 2488.7 1248.3L2487.3 1225H2464.9C2458.5 1225 2452.6 1222.5 2448.3 1218.4C2443.9 1214.3 2441.1 1208.6 2440.7 1202.1C2439.9 1188.1 2451.4 1176.5 2465.4 1176.5H2484.3L2482.2 1141C2481.8 1133.5 2487.7 1127.2 2495.2 1127.2H2618.6C2626.1 1127.2 2632 1133.5 2631.6 1141L2629.5 1176.5H2648.6C2662.4 1176.6 2673.5 1188.3 2672.7 1202.2Z" fill="#A0505A"/>
<path d="M2629.4 1176.5H2649.5C2649.5 1176.5 2668.7 1106.8 2650.2 1088.9C2631.7 1071 2518.1 1029.8 2481.4 1055.5C2454.6 1074.3 2469.2 1176.5 2469.2 1176.5H2484C2484 1176.5 2543.7 1133.7 2553.1 1137.4C2562.5 1141.1 2526.1 1159.1 2533.4 1162.6C2560.7 1175.7 2609.8 1128.2 2621.1 1128.2C2632.4 1128.2 2629.4 1176.5 2629.4 1176.5Z" fill="#73325A"/>
<path d="M2604.1 1193.8C2604.1 1193.8 2591 1183.2 2574.2 1190.1" stroke="#73325A" stroke-width="4" stroke-miterlimit="10" stroke-linecap="round"/>
<path d="M2577.3 1250.8C2577.3 1250.8 2570.1 1266.2 2548.3 1258.2" stroke="#73325A" stroke-width="4" stroke-miterlimit="10" stroke-linecap="round"/>
<path d="M2504.5 1190.3C2504.5 1190.3 2531 1184.4 2539 1200.8C2543.9 1210.9 2541.5 1246.2 2547.2 1246.6C2552.9 1247 2561.5 1246.6 2561.5 1246.6" stroke="#73325A" stroke-width="4" stroke-miterlimit="10" stroke-linecap="round"/>
<path d="M2586.2 1221C2588.8 1221 2590.9 1217.51 2590.9 1213.2C2590.9 1208.89 2588.8 1205.4 2586.2 1205.4C2583.6 1205.4 2581.5 1208.89 2581.5 1213.2C2581.5 1217.51 2583.6 1221 2586.2 1221Z" fill="#73325A"/>
<path d="M2525.4 1221C2527.99 1221 2530.1 1217.51 2530.1 1213.2C2530.1 1208.89 2527.99 1205.4 2525.4 1205.4C2522.8 1205.4 2520.7 1208.89 2520.7 1213.2C2520.7 1217.51 2522.8 1221 2525.4 1221Z" fill="#73325A"/>
<path d="M2479.4 1205.8C2478.8 1196 2470.7 1188.4 2460.9 1188.4" stroke="#73325A" stroke-width="4" stroke-miterlimit="10" stroke-linecap="round"/>
<path d="M2632.9 1206.3C2633.5 1195.9 2642.1 1187.8 2652.4 1187.8" stroke="#73325A" stroke-width="4" stroke-miterlimit="10" stroke-linecap="round"/>
<path d="M1154.4 1399.9C1154.4 1393.4 1154.1 1387.1 1153.6 1381.2C1147.5 1378.5 1109 1360 1099.3 1326.7C1099.3 1326.7 1070.1 1385.8 1026.7 1379C1026.6 1379 1026.5 1379 1026.4 1378.9C1026.4 1378.9 1026.4 1378.9 1026.3 1378.9L1015.8 1373.5C1015.6 1373.4 1015.5 1373.3 1015.3 1373.3C1003.4 1367.6 989.701 1375 987.301 1387.4C984.501 1379.6 982.501 1371.3 981.301 1362.6C973.601 1304.4 1005.7 1255.7 1059 1255.7C1107.6 1255.7 1154.3 1301.4 1161.7 1349.7C1164.7 1368 1161.6 1385.1 1154.4 1399.9Z" fill="#FFCF2D"/>
<path d="M995.901 1406.9C991.201 1434.5 888.201 1396 865.301 1442.1C850.401 1472.2 873.4 1508.5 808.701 1511.6C731.601 1515.2 700.301 1557.4 712.801 1655.2L923.401 1543.5L982.201 1491.1L1007.8 1412.4L995.901 1406.9Z" fill="#FFCF2D"/>
<path d="M1115.9 1471.9V1499.3L1050.8 1538.7L982.2 1491.2L1007.8 1412.5L1115.9 1471.9Z" fill="#E57281"/>
<path d="M1019.6 1418.7L1050.8 1538.7L1115.9 1499.3V1471.9L1019.6 1418.7Z" fill="#9A3B82"/>
<path d="M1154.4 1400.5C1154.4 1445.2 1125.7 1481.5 1090.3 1481.5C1061.3 1481.5 1035.6 1457.2 1027.2 1423.8L997.901 1408.8C994.601 1407.1 991.901 1404.6 990.001 1401.5C988.101 1398.5 987.101 1394.9 987.101 1391.2C987.101 1376.4 1002.7 1366.9 1015.9 1373.6L1026.8 1379.1V1379C1070.2 1385.7 1099.4 1326.7 1099.4 1326.7C1109.1 1360 1147.6 1378.4 1153.7 1381.2C1154.2 1387.3 1154.4 1393.7 1154.4 1400.5Z" fill="#E57281"/>
<path d="M1154.2 1391.2C1154.2 1391.2 1138.1 1384.5 1128.2 1394.5C1115.9 1406.9 1118.6 1442.5 1118.6 1442.5" stroke="#9A3B82" stroke-width="4" stroke-miterlimit="10" stroke-linecap="round"/>
<path d="M1096.4 1389.1C1096.4 1389.1 1083.1 1388.1 1069.9 1395.1" stroke="#9A3B82" stroke-width="4" stroke-miterlimit="10" stroke-linecap="round"/>
<path d="M1017.7 1399C1016.6 1392.4 1011.8 1387 1005.4 1385" stroke="#9A3B82" stroke-width="4" stroke-miterlimit="10" stroke-linecap="round"/>
<path d="M1092.03 1413.2C1093.16 1409.04 1092.04 1405.12 1089.54 1404.44C1087.03 1403.76 1084.09 1406.58 1082.96 1410.74C1081.83 1414.9 1082.95 1418.82 1085.45 1419.5C1087.96 1420.18 1090.9 1417.36 1092.03 1413.2Z" fill="#9A3B82"/>
<path d="M1141.03 1415.2C1142.16 1411.04 1141.04 1407.12 1138.53 1406.44C1136.03 1405.76 1133.08 1408.58 1131.96 1412.74C1130.83 1416.89 1131.95 1420.82 1134.45 1421.5C1136.96 1422.17 1139.9 1419.35 1141.03 1415.2Z" fill="#9A3B82"/>
<path d="M1113.7 1454.5C1113.7 1454.5 1096.4 1459.1 1091.4 1444.5" stroke="#9A3B82" stroke-width="4" stroke-miterlimit="10" stroke-linecap="round"/>
<path d="M854.2 1543.8H1243.7C1297.1 1543.8 1345.6 1575.3 1367.2 1624.2L1440.8 1775.6L780.1 2095.5L567.2 2004.3L683.1 1665.1C708.7 1592.4 777.2 1543.8 854.2 1543.8Z" fill="white" stroke="#FE5244" stroke-width="5" stroke-miterlimit="10"/>
<path d="M1036.8 1610.6L1004.5 1591.5L1049.3 1540.5H1052.5L1097.9 1588.1L1066.4 1607.2L1201.6 1885.8L944.9 2011.3L1036.8 1610.6Z" fill="#FE5244"/>
<g opacity="0.2">
<g opacity="0.2">
<g opacity="0.2">
<path opacity="0.2" d="M983.2 1844.3V1957.7H979.2V1861.7L983.2 1844.3Z" fill="white"/>
</g>
<g opacity="0.2">
<path opacity="0.2" d="M1025.3 1660.4V1957.6H1021.3V1677.8L1023.8 1667L1024.7 1663L1025.3 1660.4Z" fill="white"/>
<path opacity="0.2" d="M1025.3 1567.7V1603.8L1021.3 1601.5V1572.3L1025.3 1567.7Z" fill="white"/>
</g>
<g opacity="0.2">
<path opacity="0.2" d="M1067.5 1556.3V1951.4L1063.5 1953.3V1552.1L1067.5 1556.3Z" fill="white"/>
</g>
<g opacity="0.2">
<path opacity="0.2" d="M1109.7 1696.4V1930.7L1105.7 1932.7V1688.2L1109.7 1696.4Z" fill="white"/>
</g>
<g opacity="0.2">
<path opacity="0.2" d="M1151.9 1783.3V1910.1L1147.9 1912.1V1775L1151.9 1783.3Z" fill="white"/>
</g>
<g opacity="0.2">
<path opacity="0.2" d="M1194 1870.2V1889.5L1190 1891.4V1862L1194 1870.2Z" fill="white"/>
</g>
</g>
<g opacity="0.2">
<g opacity="0.2">
<path opacity="0.2" d="M1053.6 1958.2L1045.4 1962.2H956.2L957.1 1958.2H1053.6Z" fill="white"/>
</g>
<g opacity="0.2">
<path opacity="0.2" d="M1139.8 1916L1131.6 1920H965.8L966.8 1916H1139.8Z" fill="white"/>
</g>
<g opacity="0.2">
<path opacity="0.2" d="M1197.7 1877.8H975.5L976.4 1873.8H1195.8L1197.7 1877.8Z" fill="white"/>
</g>
<g opacity="0.2">
<path opacity="0.2" d="M1177.3 1835.7H985.2L986.1 1831.7H1175.3L1177.3 1835.7Z" fill="white"/>
</g>
<g opacity="0.2">
<path opacity="0.2" d="M1156.8 1793.5H994.8L995.8 1789.5H1154.9L1156.8 1793.5Z" fill="white"/>
</g>
<g opacity="0.2">
<path opacity="0.2" d="M1136.3 1751.3H1004.5L1005.4 1747.3H1134.4L1136.3 1751.3Z" fill="white"/>
</g>
<g opacity="0.2">
<path opacity="0.2" d="M1115.9 1709.2H1014.2L1015.1 1705.2H1113.9L1115.9 1709.2Z" fill="white"/>
</g>
<g opacity="0.2">
<path opacity="0.2" d="M1095.4 1667H1023.8L1024.7 1663H1093.5L1095.4 1667Z" fill="white"/>
</g>
<g opacity="0.2">
<path opacity="0.2" d="M1075 1624.8H1033.5L1034.4 1620.8H1073L1075 1624.8Z" fill="white"/>
</g>
<g opacity="0.2">
<path opacity="0.2" d="M1092.7 1582.7H1012.2L1015.7 1578.7H1088.9L1092.7 1582.7Z" fill="white"/>
</g>
</g>
</g>
<path d="M840.3 1760.8L808.9 1866.8" stroke="#FE5244" stroke-width="5" stroke-miterlimit="10"/>
<path d="M1170.9 1543.6L1096.8 1586L1052.5 1540.5H1049.3L1005.5 1589.5L923.4 1543.6L983.2 1491.2L1050.8 1538.7L1115.9 1499.3L1170.9 1543.6Z" fill="white" stroke="#FE5244" stroke-width="5" stroke-miterlimit="10" stroke-linejoin="round"/>
<path d="M1567.5 1667.8L1489.9 1914.4H1017.9L1095.5 1667.8H1567.5Z" fill="#3FB1B5"/>
<path d="M1268.9 1914.4L1346.5 1667.8" stroke="white" stroke-width="6" stroke-miterlimit="10"/>
<path d="M1104.4 1667.8C1104.4 1667.8 1163.5 1632.7 1249.1 1638.1C1334.7 1643.4 1346.7 1667.8 1346.7 1667.8H1104.4Z" fill="white" stroke="#3FB1B5" stroke-width="5" stroke-miterlimit="10" stroke-linecap="round"/>
<path d="M1550.4 1667.8C1550.4 1667.8 1439 1618.6 1346.7 1667.8H1550.4Z" fill="white" stroke="#3FB1B5" stroke-width="5" stroke-miterlimit="10" stroke-linecap="round"/>
<path d="M1334.4 2172.2L1105 2353.4C1077.6 2375 1074 2415.2 1097.1 2441.3L1254.7 2620.1C1254.7 2620.1 1269.7 2609 1264.7 2564.4C1257.7 2502.7 1274.7 2445 1274.7 2445L1614.2 2202.9C1666.7 2165.5 1698.3 2105.3 1699.2 2040.8C1700.5 1953.2 1594.3 1908.8 1532.8 1971.1L1334.4 2172.2Z" fill="#E57281"/>
<path d="M1274.6 2444.9C1274.6 2444.9 1257.7 2502.6 1264.6 2564.3C1269.6 2609 1254.6 2620.1 1254.6 2620.1L1097 2441.3C1073.9 2415.1 1077.6 2375 1104.9 2353.4L1178.5 2295.2C1180.7 2293.6 1182.9 2291.9 1185.1 2290.2L1278.7 2216.2L1334.3 2172.2C1334.3 2172.2 1331.2 2245.3 1365.6 2380L1274.6 2444.9Z" fill="white" stroke="#9A3B82" stroke-width="6" stroke-miterlimit="10" stroke-linecap="round"/>
<path d="M1268.3 2570.3C1270.2 2587.6 1269 2600.1 1266.7 2608.9C1266.2 2611 1265.6 2612.8 1264.9 2614.5C1261 2624.8 1255.9 2628.2 1255.9 2628.2L1092.5 2442.9C1071.3 2418.8 1071.9 2383.3 1092.2 2360C1094.7 2357.1 1097.6 2354.3 1100.8 2351.8L1106.1 2347.6L1152.1 2311.3C1149.1 2331.3 1162 2364.8 1186.8 2396.4C1218.2 2436.4 1259.9 2457.7 1278.1 2446.7C1275.2 2457.3 1261.9 2513.2 1268.3 2570.3Z" fill="#FFCF2D"/>
<path d="M1266.8 2608.9C1266.3 2611 1265.7 2612.8 1265 2614.5L1102.8 2430.5C1090.8 2416.9 1085.1 2399.4 1086.7 2381.3C1087.4 2373.8 1089.3 2366.5 1092.3 2359.9C1094.8 2357 1097.7 2354.2 1100.9 2351.7L1106.2 2347.5C1097.9 2357 1092.8 2368.8 1091.7 2381.7C1090.2 2398.4 1095.5 2414.6 1106.6 2427.2L1266.8 2608.9Z" fill="white"/>
<path d="M1271.5 2477.1C1271.5 2477.1 1227.5 2459.6 1221.6 2477.1C1215.8 2494.6 1268.2 2505.7 1268.2 2505.7L1271.5 2477.1Z" fill="white"/>
<path d="M1552.4 1934.9V2482.8C1488.7 2547.5 1404.1 2512.7 1404.1 2512.7C1329.4 2297.7 1334.4 2178.3 1334.4 2178.3L1278.8 2222.2C1136.6 2133.4 1125 1929.1 1124.7 1924.2L1356.4 1812.1C1447.1 1768.2 1552.4 1834.2 1552.4 1934.9Z" fill="#E57281"/>
<path d="M1356.5 1812C1447.1 1768.2 1552.4 1834.2 1552.4 1934.8V2482.7C1488.7 2547.4 1404.1 2512.6 1404.1 2512.6C1329.5 2297.6 1334.4 2178.1 1334.4 2178.1" stroke="#9A3B82" stroke-width="6" stroke-miterlimit="10" stroke-linecap="round"/>
<path d="M1278.8 2222.1L1185.2 2296.1C1017.4 2428.8 770.6 2309.3 770.6 2095.4L1124.7 1924C1124.7 1924 1124.7 1924 1124.7 1924.1C1125 1929.1 1136.7 2133.4 1278.8 2222.1Z" fill="#FE5244"/>
<g opacity="0.2">
<g opacity="0.2">
<g opacity="0.2">
<path opacity="0.2" d="M814.8 2074.1V2240.2C813.4 2238.2 812.1 2236.2 810.8 2234.2V2076L814.8 2074.1Z" fill="white"/>
</g>
<g opacity="0.2">
<path opacity="0.2" d="M857 2053.7V2287.4C855.7 2286.2 854.3 2285 853 2283.8V2055.6L857 2053.7Z" fill="white"/>
</g>
<g opacity="0.2">
<path opacity="0.2" d="M899.1 2033.3V2317.4C897.8 2316.6 896.4 2315.9 895.1 2315.1V2035.2L899.1 2033.3Z" fill="white"/>
</g>
<g opacity="0.2">
<path opacity="0.2" d="M941.3 2012.9V2336.8C940 2336.3 938.6 2335.9 937.3 2335.4V2014.9L941.3 2012.9Z" fill="white"/>
</g>
<g opacity="0.2">
<path opacity="0.2" d="M983.5 1992.5V2348C982.2 2347.8 980.8 2347.5 979.5 2347.3V1994.5L983.5 1992.5Z" fill="white"/>
</g>
<g opacity="0.2">
<path opacity="0.2" d="M1025.6 1972V2351.8C1024.3 2351.8 1022.9 2351.8 1021.6 2351.7V1974L1025.6 1972Z" fill="white"/>
</g>
<g opacity="0.2">
<path opacity="0.2" d="M1067.8 1951.6V2348.6C1066.5 2348.8 1065.1 2349 1063.8 2349.2V1953.6L1067.8 1951.6Z" fill="white"/>
</g>
<g opacity="0.2">
<path opacity="0.2" d="M1110 1931.2V2337.9C1108.7 2338.4 1107.3 2338.8 1106 2339.3V1933.2L1110 1931.2Z" fill="white"/>
</g>
<g opacity="0.2">
<path opacity="0.2" d="M1152.1 2052.1V2318.6C1150.8 2319.4 1149.4 2320.1 1148.1 2320.8V2040.4C1148.3 2041.1 1148.5 2041.8 1148.8 2042.4C1149.2 2043.7 1149.7 2045.1 1150.1 2046.4C1150.8 2048.3 1151.5 2050.2 1152.1 2052.1Z" fill="white"/>
</g>
<g opacity="0.2">
<path opacity="0.2" d="M1194.3 2138.1V2289L1190.3 2292.2V2131.9C1191.6 2133.9 1192.9 2136 1194.3 2138.1Z" fill="white"/>
</g>
<g opacity="0.2">
<path opacity="0.2" d="M1236.5 2189.1V2257.3H1234.4L1232.5 2258.8V2185.1C1233.8 2186.5 1235.1 2187.8 1236.5 2189.1Z" fill="white"/>
</g>
</g>
<g opacity="0.2">
<g opacity="0.2">
<path opacity="0.2" d="M1110.7 2337.6C1110.4 2337.7 1110.2 2337.8 1109.9 2337.9C1108.6 2338.4 1107.2 2338.8 1105.9 2339.3C1103.4 2340.1 1100.9 2340.9 1098.3 2341.7H956.1C951.9 2340.5 947.7 2339.1 943.5 2337.7H1110.7V2337.6Z" fill="white"/>
</g>
<g opacity="0.2">
<path opacity="0.2" d="M1186.1 2295.4L1185.2 2296.1C1183.8 2297.2 1182.4 2298.3 1181 2299.4H871.801C870.001 2298.1 868.301 2296.8 866.601 2295.4H1186.1Z" fill="white"/>
</g>
<g opacity="0.2">
<path opacity="0.2" d="M1239.4 2253.3L1236.4 2255.6V2257.3H827.6C826.5 2256 825.4 2254.6 824.4 2253.3H1239.4Z" fill="white"/>
</g>
<g opacity="0.2">
<path opacity="0.2" d="M1268.2 2215.1H799.701C799.001 2213.8 798.301 2212.4 797.601 2211.1H1262.6C1264.4 2212.5 1266.3 2213.8 1268.2 2215.1Z" fill="white"/>
</g>
<g opacity="0.2">
<path opacity="0.2" d="M1221 2172.9H782.2C781.8 2171.6 781.4 2170.2 781 2168.9H1217.6C1218.6 2170.3 1219.8 2171.6 1221 2172.9Z" fill="white"/>
</g>
<g opacity="0.2">
<path opacity="0.2" d="M1189.6 2130.8H772.9C772.7 2129.5 772.6 2128.1 772.4 2126.8H1187.1C1188 2128.1 1188.8 2129.4 1189.6 2130.8Z" fill="white"/>
</g>
<g opacity="0.2">
<path opacity="0.2" d="M1167 2088.6H784.9L793.2 2084.6H1165.2C1165.7 2085.9 1166.3 2087.3 1167 2088.6Z" fill="white"/>
</g>
<g opacity="0.2">
<path opacity="0.2" d="M1150.2 2046.4H872L880.301 2042.4H1148.9C1149.2 2043.8 1149.7 2045.1 1150.2 2046.4Z" fill="white"/>
</g>
<g opacity="0.2">
<path opacity="0.2" d="M1137.8 2004.3H959L967.301 2000.3H1136.8C1137.2 2001.6 1137.5 2002.9 1137.8 2004.3Z" fill="white"/>
</g>
<g opacity="0.2">
<path opacity="0.2" d="M1129.2 1962.1H1046.1L1054.4 1958.1H1128.6C1128.8 1959.4 1129 1960.7 1129.2 1962.1Z" fill="white"/>
</g>
</g>
</g>
<path d="M1124.7 1924.1C1125 1929.1 1136.6 2133.4 1278.8 2222.2" stroke="white" stroke-width="6" stroke-miterlimit="10"/>
<path d="M1552.4 2287V2482.8C1488.7 2547.5 1404.1 2512.7 1404.1 2512.7C1371.4 2418.5 1354 2342.6 1344.7 2287.1H1552.4V2287Z" fill="white"/>
<path d="M1404 2512.6C1371.3 2418.4 1353.9 2342.5 1344.6 2287H1552.3V2482.8" stroke="#9A3B82" stroke-width="6" stroke-miterlimit="10" stroke-linecap="round"/>
<path d="M1701.7 2626.1H1406.2C1392.4 2626.1 1381.9 2613.8 1384.1 2600.2L1384.6 2597.2L1386.4 2586.4L1399.2 2508C1399.2 2508 1489.3 2544.3 1555.7 2476.9C1555.7 2476.9 1576.5 2530.5 1663.3 2569.9C1683.7 2579.2 1693.3 2593 1697.8 2604.7C1698.5 2606.4 1699 2608.1 1699.5 2609.7C1702.2 2619.1 1701.7 2626.1 1701.7 2626.1Z" fill="#FFCF2D"/>
<path d="M1699.5 2609.6H1406.2C1398.9 2609.6 1392 2606.4 1387.3 2600.8C1386.3 2599.6 1385.4 2598.4 1384.7 2597.1L1386.5 2586.3C1386.8 2590.4 1388.4 2594.4 1391.2 2597.6C1395 2602 1400.5 2604.6 1406.3 2604.6H1697.9C1698.5 2606.3 1699.1 2608 1699.5 2609.6Z" fill="white"/>
<path d="M1601.5 2532.4C1568.7 2555.8 1518.2 2549.1 1514.8 2539C1511.3 2529 1563.7 2521.7 1570.6 2500.9C1577.9 2510 1587.3 2521 1601.5 2532.4Z" fill="white"/>
<path d="M1334.4 2178.2C1334.4 2060.7 1365.4 1992.5 1365.4 1992.5" stroke="#9A3B82" stroke-width="6" stroke-miterlimit="10" stroke-linecap="round"/>
<path d="M1050.8 1809.9L640.4 1906.4C588.4 1918.6 551.7 1965 551.7 2018.4C551.7 2103.3 640.6 2159 717 2121.9L1114.1 1929.1C1120.9 1925.8 1126.3 1920 1129 1912.9L1173 1800C1174.8 1795.5 1171 1790.7 1166.1 1791.4L1159.1 1792.4C1148 1794 1138 1800.1 1131.5 1809.3L1113.6 1836.1C1110.3 1841 1104.8 1843.9 1098.9 1843.9H1057C1048.5 1843.9 1042.4 1835.6 1045 1827.5L1050.8 1809.9Z" fill="#E57281"/>
<path d="M1046.8 1810.9L640.4 1907.4C588.4 1919.6 551.7 1966 551.7 2019.4C551.7 2104.3 640.6 2160 717 2122.9L1114.1 1930.1C1120.9 1926.8 1126.3 1921 1129 1913.9L1173 1801C1174.8 1796.5 1171 1791.7 1166.1 1792.4L1159.1 1793.4C1148 1795 1138 1801.1 1131.5 1810.3L1113.6 1837.1C1110.3 1842 1104.8 1844.9 1098.9 1844.9H1053C1044.5 1844.9 1038.4 1836.6 1041 1828.5L1046.8 1810.9Z" stroke="white" stroke-width="6" stroke-miterlimit="10"/>
<path d="M1063 1876.9H1124.3C1134.4 1876.9 1143.6 1871.4 1148.5 1862.5" stroke="white" stroke-width="5" stroke-miterlimit="10" stroke-linecap="round"/>
<path d="M1049 1912.9H1110.3C1120.4 1912.9 1129.6 1907.4 1134.5 1898.5" stroke="white" stroke-width="5" stroke-miterlimit="10" stroke-linecap="round"/>
</g>
<defs>
<clipPath id="clip0_25_1013">
<rect width="3784" height="2636" fill="white"/>
</clipPath>
</defs>
</svg>
