<svg width="3476" height="2505" viewBox="0 0 3476 2505" fill="none" xmlns="http://www.w3.org/2000/svg">
<path d="M3249.9 2115V2444.9H2753.6L2850.3 1938.3C2847.2 1958.3 2909.1 1995.8 2993.8 2033.4C3024.2 2046.9 3058.1 2060.3 3094.3 2073C3152.7 2093.6 3206.5 2107.6 3249.9 2115C3249.9 2115 3249.8 2115 3249.9 2115Z" fill="#9A3B82"/>
<path d="M3249.9 2015.8V2104.1C3206.5 2096.7 3152.8 2082.8 3094.2 2062.2C2956.1 2013.7 2849.8 1953.8 2855.8 1926.9C2855.9 1926.5 2856 1926.1 2856.1 1925.8C2865.4 1899.5 2987.7 1917.7 3127.7 1966.8C3172.7 1982.6 3213.3 1998.9 3247.4 2014.6C3248.2 2015 3249 2015.4 3249.9 2015.8Z" fill="#FFCF2D"/>
<path d="M3181.8 1251.4C3133.4 1251.4 3094.2 1290.6 3094.2 1338.9V1578.7C3094.2 1627 3055 1666.2 3006.7 1666.2H2655.9C2704.3 1666.2 2743.4 1627 2743.4 1578.7V1338.9C2743.4 1290.5 2782.6 1251.4 2830.9 1251.4H3181.8V1251.4Z" fill="white" stroke="#FFCF2D" stroke-width="5" stroke-miterlimit="10"/>
<path d="M3028.4 1375.5H2805V1582.8H3028.4V1375.5Z" fill="white" stroke="#FFCF2D" stroke-width="5" stroke-miterlimit="10"/>
<path d="M3028.3 1405.1H2805" stroke="#FFCF2D" stroke-width="5" stroke-miterlimit="10"/>
<path d="M3028.3 1434.7H2805" stroke="#FFCF2D" stroke-width="5" stroke-miterlimit="10"/>
<path d="M3028.3 1464.4H2805" stroke="#FFCF2D" stroke-width="5" stroke-miterlimit="10"/>
<path d="M3028.3 1494H2805" stroke="#FFCF2D" stroke-width="5" stroke-miterlimit="10"/>
<path d="M3028.3 1523.7H2805" stroke="#FFCF2D" stroke-width="5" stroke-miterlimit="10"/>
<path d="M3028.3 1553.3H2805" stroke="#FFCF2D" stroke-width="5" stroke-miterlimit="10"/>
<path d="M3094.2 1338.9C3094.2 1290.8 3133 1251.8 3180.9 1251.4C3228.9 1251.8 3267.6 1290.8 3267.6 1338.9H3094.2Z" fill="#66B0F0" stroke="#FFCF2D" stroke-width="5" stroke-miterlimit="10"/>
<path d="M3007.1 1668.4C3007 1668.4 3006.8 1668.4 3006.7 1668.4H2657.2C2657 1668.4 2656.8 1668.4 2656.6 1668.4C2620.7 1667.9 2590 1645.7 2577 1614.3H2927.2C2940.3 1645.7 2971 1667.9 3007.1 1668.4Z" fill="#FFCF2D"/>
<path d="M2819.6 1351.7H2779.2V1319.3H2798.2V1337.3C2798.2 1337.7 2798.4 1338 2798.6 1338.1L2798.7 1338.2L2819.6 1351.7Z" fill="#FE5244"/>
<path d="M2835.3 1330.5V1334.8C2835.3 1335.6 2835.2 1336.4 2835.2 1337.2C2835.2 1337.4 2835.1 1337.7 2835.1 1337.9C2835 1338.3 2835 1338.7 2834.9 1339.1C2833.8 1344.6 2830.5 1349.1 2826.4 1350.8C2826.1 1350.9 2825.8 1351 2825.5 1351.1C2825 1351.3 2824.4 1351.4 2823.9 1351.5C2823.7 1351.5 2823.5 1351.6 2823.3 1351.6L2800.4 1336.7C2800.6 1333.2 2802.8 1330.4 2805.4 1330.4H2835.3V1330.5Z" fill="#FE5244"/>
<path d="M3058.4 1319.3V1351.7H3018L3038.8 1338.2L3038.9 1338.1C3039 1338 3039 1338 3039.1 1338C3039.1 1337.9 3039.2 1337.9 3039.2 1337.8C3039.2 1337.8 3039.2 1337.7 3039.3 1337.7C3039.3 1337.6 3039.3 1337.6 3039.4 1337.6C3039.4 1337.6 3039.4 1337.6 3039.4 1337.5C3039.4 1337.4 3039.4 1337.4 3039.4 1337.3V1319.3H3058.4V1319.3Z" fill="#FE5244"/>
<path d="M3037.4 1336.8L3014.5 1351.7C3013.9 1351.6 3013.3 1351.5 3012.7 1351.4C3012.5 1351.3 3012.3 1351.3 3012.1 1351.2C3011.8 1351.1 3011.6 1351 3011.3 1350.9C3011.1 1350.8 3010.8 1350.7 3010.6 1350.6C3007.5 1348.9 3004.9 1345.6 3003.6 1341.5C3003.4 1340.9 3003.2 1340.3 3003.1 1339.7C3003 1339.5 3003 1339.2 3002.9 1338.9C3002.7 1337.6 3002.5 1336.3 3002.5 1334.9V1330.6H3032.5C3035 1330.5 3037.2 1333.3 3037.4 1336.8Z" fill="#FE5244"/>
<path d="M3037.4 1302.9V1331.1C3037.2 1330.9 3037 1330.6 3036.8 1330.4C3036.4 1330 3036 1329.7 3035.6 1329.4C3034.6 1328.8 3033.5 1328.4 3032.4 1328.4H2805.3C2804.1 1328.4 2803 1328.8 2802.1 1329.4C2801.7 1329.7 2801.3 1330 2800.9 1330.4C2800.7 1330.6 2800.5 1330.8 2800.3 1331.1V1302.9C2800.3 1299.1 2802.5 1296.1 2805.3 1296.1H3032.4C3035.1 1296.1 3037.4 1299.2 3037.4 1302.9Z" fill="#FE5244"/>
<path d="M3249.9 1712.1V2104.1H3249.8C3206.4 2096.7 3152.7 2082.8 3094.1 2062.2C3057.9 2049.5 3024 2036 2993.6 2022.6L3009.9 1931.6L3037.6 1777.1C2950.7 1749.9 2936.6 1666.3 2936.6 1666.3H3006.5C3054.9 1666.3 3094 1627.1 3094 1578.8V1550H3049.1C3017.6 1550 2992 1519 2992 1487.5V1477.3H3091.8C3110.3 1477.3 3127.7 1486 3138.8 1500.8L3211.8 1598.3C3236.6 1631.1 3249.9 1671 3249.9 1712.1Z" fill="#A0505A"/>
<path d="M3249.9 2015.8V2104.1H3249.8C3206.4 2096.7 3152.7 2082.8 3094.1 2062.2C3057.9 2049.5 3024 2036 2993.6 2022.6L3009.9 1931.6C3045.9 1940.4 3085.9 1952.3 3127.5 1966.9C3172.5 1982.7 3213.1 1999 3247.1 2014.7C3248.2 2015 3249 2015.4 3249.9 2015.8Z" fill="#73325A"/>
<path d="M3098.6 1550H3050.4C3018.9 1550 2993.3 1519 2993.3 1487.5V1477.3H3098.6V1550Z" fill="#A0505A"/>
<path d="M3068.3 1647.4C3068.3 1647.4 3137.8 1673.5 3144.1 1763.2" stroke="#73325A" stroke-width="5" stroke-miterlimit="10"/>
<path d="M3037.8 1779.2H3085.1" stroke="#73325A" stroke-width="5" stroke-miterlimit="10"/>
<path d="M2993.7 658L3025.4 637C3066.7 609.7 3122 636.7 3125.9 686L3132.8 773.3C3136.6 821.2 3189.3 848.5 3230.6 824L3250.6 812.1" stroke="#FFCF2D" stroke-width="6" stroke-miterlimit="10"/>
<path d="M2533 333.7L2940.3 570.1L3145.4 1030.6L2910.1 872.1L2654.4 572.5L2533 333.7Z" fill="#9A3B82"/>
<path d="M2534.1 317.8L2950 559.3L3159.5 1029.5" stroke="#FFCF2D" stroke-width="6" stroke-miterlimit="10"/>
<path d="M2905.85 882.271C2924.88 866.203 2882.11 784.244 2810.32 699.211C2738.53 614.177 2664.91 558.27 2645.87 574.338C2626.84 590.407 2669.61 672.365 2741.4 757.399C2813.19 842.432 2886.82 898.339 2905.85 882.271Z" fill="white"/>
<path d="M2894.28 887.186C2912.93 871.438 2870.98 791.074 2800.58 707.686C2730.18 624.299 2657.99 569.466 2639.34 585.214C2620.69 600.961 2662.64 681.326 2733.04 764.713C2803.44 848.1 2875.63 902.933 2894.28 887.186Z" fill="white" stroke="#FFCF2D" stroke-width="5" stroke-miterlimit="10"/>
<path d="M2943.9 849.9L2905.1 882.6C2912.3 876.5 2910.7 861.1 2902 839.6C2887.7 804.2 2854.2 752.5 2809.6 699.5C2764.9 646.6 2719.5 604.9 2687 584.9C2667.3 572.7 2652.3 568.5 2645.1 574.6L2683.9 541.9C2702.9 525.8 2779.9 578.4 2851.7 663.5C2923.5 748.6 2963 833.9 2943.9 849.9Z" fill="#FFCF2D"/>
<path d="M3358.4 724.8C3369.4 719.5 3380.1 714.8 3390.4 710.9C3396.5 717.3 3401.8 724.8 3405.9 733.2C3410 741.6 3412.6 750.4 3413.8 759.1C3404.3 764.7 3394 770.3 3383.1 775.6C3328.4 802.1 3278.6 812.2 3271.8 798.2C3264.9 784.1 3303.7 751.3 3358.4 724.8Z" fill="#FFCF2D"/>
<path d="M3261.8 817.2C3268.48 817.2 3273.9 811.783 3273.9 805.1C3273.9 798.417 3268.48 793 3261.8 793C3255.12 793 3249.7 798.417 3249.7 805.1C3249.7 811.783 3255.12 817.2 3261.8 817.2Z" stroke="#9A3B82" stroke-width="6" stroke-miterlimit="10"/>
<path d="M2547.7 2021.5V2444.9H2065.4L2127.2 1985.1C2127.2 2003.7 2221.3 2026.9 2337.4 2036.9C2453.5 2047 2547.7 2040.1 2547.7 2021.5Z" fill="#66B0F0"/>
<path d="M2545.5 2010.6C2545.5 2029.2 2452.2 2036.1 2337.2 2026C2222.2 2015.9 2128.9 1992.7 2128.9 1974.2C2128.9 1955.6 2222.2 1948.7 2337.2 1958.8C2452.3 1968.8 2545.5 1992 2545.5 2010.6Z" fill="#3FB1B5"/>
<path d="M2612.4 1072L2641.6 1090.9C2670.8 1113.5 2630.4 1214.5 2551.4 1316.3C2472.4 1418.2 2384.7 1482.4 2355.5 1459.8L2341.1 1446.2" stroke="#66B0F0" stroke-width="6" stroke-miterlimit="10"/>
<path d="M2206.9 1546.4L2538.4 1243L2654.3 890.1L2300.5 1211.6L2206.9 1546.4Z" fill="#66B0F0"/>
<path d="M2190 1583.2L2550.8 1253L2668.5 894.5" stroke="#FE5244" stroke-width="6" stroke-miterlimit="10" stroke-linecap="round"/>
<path d="M2380.8 1242L2066 1543.1C2050.7 1557.7 2025.7 1543.9 2030 1523.1L2038.8 1480.4C2042.8 1461.1 2020.9 1447 2005 1458.6L1901 1534.3" stroke="#FE5244" stroke-width="6" stroke-miterlimit="10"/>
<path d="M1816.3 1642.1C1807 1649.9 1797.7 1657.1 1788.7 1663.4C1781.2 1658.7 1774.3 1652.8 1768.2 1645.6C1762.2 1638.4 1757.5 1630.6 1754.2 1622.4C1762 1614.6 1770.6 1606.7 1779.9 1598.8C1826.4 1559.7 1872.2 1537.6 1882.3 1549.6C1892.3 1561.6 1862.8 1603 1816.3 1642.1Z" fill="#FFCF2D"/>
<path d="M1891.3 1553.7C1897.98 1553.7 1903.4 1548.28 1903.4 1541.6C1903.4 1534.92 1897.98 1529.5 1891.3 1529.5C1884.62 1529.5 1879.2 1534.92 1879.2 1541.6C1879.2 1548.28 1884.62 1553.7 1891.3 1553.7Z" stroke="#FE5244" stroke-width="6" stroke-miterlimit="10"/>
<path d="M2395.7 1702.8V2029.8C2377.2 2029 2357.5 2027.8 2337.2 2026C2262.3 2019.5 2196.7 2007.3 2160 1994.5L2165.5 1958.3L2183.9 1836.8H2160.1C2126.2 1836.8 2098.8 1809.4 2098.8 1775.5V1655.1C2098.8 1631.3 2107.4 1608.4 2123.1 1590.5L2201.4 1501C2206.5 1495.2 2216.1 1498.8 2216.1 1506.5V1628.2C2216.1 1642.8 2210.9 1656.9 2201.4 1668L2194.4 1676.2H2279.4C2291.7 1676.2 2298.9 1662.5 2292 1652.3C2281.5 1637 2267.7 1615.2 2254.6 1590C2228.5 1540.1 2273.8 1512.2 2273.8 1512.2L2377.5 1646.7C2389.3 1663 2395.7 1682.7 2395.7 1702.8Z" fill="#FFCF2D"/>
<path d="M2216.1 1500V1628.2C2216.1 1642.8 2210.9 1656.9 2201.4 1668L2194.4 1676.2" stroke="white" stroke-width="5" stroke-miterlimit="10" stroke-linecap="round"/>
<path d="M2194.4 1676.1L2138.2 1739.2" stroke="white" stroke-width="5" stroke-miterlimit="10" stroke-linecap="round"/>
<path d="M2216.1 1572.5C2216.1 1587.1 2210.9 1601.2 2201.4 1612.3L2194.4 1620.5L2138.3 1683.5" stroke="white" stroke-width="5" stroke-miterlimit="10" stroke-linecap="round"/>
<path d="M2216.1 1516.9C2216.1 1531.5 2210.9 1545.6 2201.4 1556.7L2194.4 1564.9L2138.3 1627.9" stroke="white" stroke-width="5" stroke-miterlimit="10" stroke-linecap="round"/>
<path d="M2183.9 1840.1H2227" stroke="white" stroke-width="5" stroke-miterlimit="10" stroke-linecap="round"/>
<path d="M2395.7 1965.2V2029.8C2377.2 2029 2357.5 2027.8 2337.2 2026C2262.3 2019.5 2196.7 2007.3 2160 1994.5L2165.5 1958.3C2203.1 1952.8 2266 1952.5 2337.3 1958.7C2357.5 1960.6 2377.1 1962.7 2395.7 1965.2Z" fill="#FE5244"/>
<path d="M1911.7 2444.9H1354V1892C1354 1915.6 1445.7 1934.7 1558.9 1934.7C1672.1 1934.7 1763.8 1915.6 1763.8 1892V1891.9L1911.7 2444.9Z" fill="#3FB1B5"/>
<path d="M1762.3 1881C1762.3 1904.7 1671.6 1923.8 1559.6 1923.8C1447.6 1923.8 1356.9 1904.7 1356.9 1881.1V1881C1357.2 1857.5 1447.8 1838.4 1559.6 1838.4C1671.4 1838.4 1762.1 1857.5 1762.3 1881Z" fill="#66B0F0"/>
<path d="M1762.3 1881.4C1761.6 1904.8 1671.1 1923.8 1559.6 1923.8C1538.1 1923.8 1517.5 1923.1 1498.1 1921.8V1716.1H1392.3C1378.8 1716.1 1367.9 1705.2 1367.9 1691.7V1675.2C1367.9 1667.8 1371.2 1661.2 1376.4 1656.7C1371.2 1652.2 1367.9 1645.6 1367.9 1638.2V1621.7C1367.9 1615.2 1370.5 1609.2 1374.7 1604.9C1370.5 1600.5 1367.9 1594.6 1367.9 1588.1V1571.6C1367.9 1564.9 1370.6 1558.8 1375 1554.3C1370.6 1549.9 1367.9 1543.8 1367.9 1537.1V1507.2C1367.9 1493.7 1378.8 1482.8 1392.3 1482.8H1527.4C1531.9 1480.2 1539.2 1471 1526.8 1465.6L1497.8 1458.8C1474.8 1447.3 1460.2 1428.2 1460.2 1402.4H1562.2C1579.3 1402.4 1594.6 1413.2 1600.4 1429.3L1759.8 1874.3L1762.3 1881.4Z" fill="#E57281"/>
<path d="M1762.8 1881.6C1762.5 1881.3 1762.3 1881.1 1762.3 1881.1C1762.3 1904.7 1671.6 1923.8 1559.6 1923.8C1538.1 1923.8 1517.5 1923.1 1498.1 1921.8V1840.5C1517.5 1839.2 1538.2 1838.5 1559.6 1838.5C1660.6 1838.5 1744.4 1854.1 1759.8 1874.4C1760.2 1874.9 1761.3 1877.6 1762.8 1881.6Z" fill="#9A3B82"/>
<path d="M1529.7 1204.8V1285.9C1529.7 1330 1494 1365.7 1449.9 1365.7C1405.8 1365.7 1370.1 1330 1370.1 1285.9V1204.8C1370.1 1224.6 1405.8 1240.6 1449.9 1240.6C1494 1240.6 1529.7 1224.6 1529.7 1204.8Z" fill="white"/>
<path d="M1449.9 1240.6C1493.97 1240.6 1529.7 1224.57 1529.7 1204.8C1529.7 1185.03 1493.97 1169 1449.9 1169C1405.83 1169 1370.1 1185.03 1370.1 1204.8C1370.1 1224.57 1405.83 1240.6 1449.9 1240.6Z" fill="#FFCF2D"/>
<path d="M1529.7 1066.2V1285.8C1529.7 1315.4 1513.6 1341.2 1489.7 1355C1489.7 1355 1489.7 1355 1489.6 1355C1477.9 1361.7 1464.3 1365.6 1449.9 1365.6C1435.5 1365.6 1422 1361.8 1410.3 1355.1C1410.2 1355.1 1410.2 1355 1410.1 1355C1386.2 1341.2 1370.1 1315.4 1370.1 1285.8V1066.2H1529.7Z" stroke="#FFCF2D" stroke-width="6" stroke-miterlimit="10"/>
<path d="M1449.9 1102C1494.47 1102 1530.6 1085.97 1530.6 1066.2C1530.6 1046.43 1494.47 1030.4 1449.9 1030.4C1405.33 1030.4 1369.2 1046.43 1369.2 1066.2C1369.2 1085.97 1405.33 1102 1449.9 1102Z" fill="white" stroke="#FFCF2D" stroke-width="5" stroke-miterlimit="10"/>
<path d="M1449.9 1071.6C1456.42 1071.6 1461.7 1066.32 1461.7 1059.8C1461.7 1053.28 1456.42 1048 1449.9 1048C1443.38 1048 1438.1 1053.28 1438.1 1059.8C1438.1 1066.32 1443.38 1071.6 1449.9 1071.6Z" fill="#FFCF2D"/>
<path d="M1423.9 1312.6C1429.64 1312.6 1434.3 1307.94 1434.3 1302.2C1434.3 1296.46 1429.64 1291.8 1423.9 1291.8C1418.16 1291.8 1413.5 1296.46 1413.5 1302.2C1413.5 1307.94 1418.16 1312.6 1423.9 1312.6Z" fill="white" stroke="#FFCF2D" stroke-width="5" stroke-miterlimit="10"/>
<path d="M1486.3 1213.4C1491.05 1213.4 1494.9 1209.55 1494.9 1204.8C1494.9 1200.05 1491.05 1196.2 1486.3 1196.2C1481.55 1196.2 1477.7 1200.05 1477.7 1204.8C1477.7 1209.55 1481.55 1213.4 1486.3 1213.4Z" fill="white"/>
<path d="M1403.1 1277.9C1407.85 1277.9 1411.7 1274.05 1411.7 1269.3C1411.7 1264.55 1407.85 1260.7 1403.1 1260.7C1398.35 1260.7 1394.5 1264.55 1394.5 1269.3C1394.5 1274.05 1398.35 1277.9 1403.1 1277.9Z" fill="#FFCF2D"/>
<path d="M1526.6 1772.1H1373.2C1370.4 1772.1 1369.6 1768.4 1372 1767.1L1425.6 1746.8C1434 1743.6 1439.6 1735.5 1439.6 1726.5V1406.9C1439.6 1385.7 1428.6 1365.8 1410.3 1355.1C1422 1361.8 1435.5 1365.6 1449.9 1365.6C1464.4 1365.6 1477.9 1361.7 1489.6 1355C1471.2 1365.6 1460.2 1385.6 1460.2 1406.8V1726.4C1460.2 1735.4 1465.8 1743.5 1474.2 1746.7L1527.8 1767C1530.2 1768.4 1529.4 1772.1 1526.6 1772.1Z" fill="white" stroke="#FFCF2D" stroke-width="5" stroke-miterlimit="10"/>
<path d="M1393.1 946.1C1400.61 946.1 1406.7 940.011 1406.7 932.5C1406.7 924.989 1400.61 918.9 1393.1 918.9C1385.59 918.9 1379.5 924.989 1379.5 932.5C1379.5 940.011 1385.59 946.1 1393.1 946.1Z" fill="#FFCF2D"/>
<path d="M1486.3 968C1492.82 968 1498.1 962.717 1498.1 956.2C1498.1 949.683 1492.82 944.4 1486.3 944.4C1479.78 944.4 1474.5 949.683 1474.5 956.2C1474.5 962.717 1479.78 968 1486.3 968Z" fill="white" stroke="#FFCF2D" stroke-width="5" stroke-miterlimit="10"/>
<path d="M1428.5 1014C1433.25 1014 1437.1 1010.15 1437.1 1005.4C1437.1 1000.65 1433.25 996.8 1428.5 996.8C1423.75 996.8 1419.9 1000.65 1419.9 1005.4C1419.9 1010.15 1423.75 1014 1428.5 1014Z" fill="white" stroke="#FFCF2D" stroke-width="5" stroke-miterlimit="10"/>
<path d="M1424 909.3C1427.92 909.3 1431.1 906.121 1431.1 902.2C1431.1 898.279 1427.92 895.1 1424 895.1C1420.08 895.1 1416.9 898.279 1416.9 902.2C1416.9 906.121 1420.08 909.3 1424 909.3Z" fill="#FFCF2D"/>
<path d="M1552.7 1514.9V1716.2H1392.3C1378.8 1716.2 1367.9 1705.3 1367.9 1691.8V1675.3C1367.9 1667.9 1371.2 1661.3 1376.4 1656.8C1371.2 1652.3 1367.9 1645.7 1367.9 1638.3V1621.8C1367.9 1615.3 1370.5 1609.3 1374.7 1605C1370.5 1600.6 1367.9 1594.7 1367.9 1588.2V1571.7C1367.9 1565 1370.6 1558.9 1375 1554.4C1370.6 1550 1367.9 1543.9 1367.9 1537.2V1515H1552.7V1514.9Z" fill="#E57281"/>
<path d="M1370.7 1636.9C1370.7 1652.2 1383.1 1664.6 1398.4 1664.6H1528.2C1543.5 1664.6 1555.9 1652.2 1555.9 1636.9" stroke="#9A3B82" stroke-width="5" stroke-miterlimit="10" stroke-linecap="round"/>
<path d="M1370.7 1587C1370.7 1602.3 1383.1 1614.7 1398.4 1614.7H1528.2C1543.5 1614.7 1555.9 1602.3 1555.9 1587" stroke="#9A3B82" stroke-width="5" stroke-miterlimit="10" stroke-linecap="round"/>
<path d="M1370.7 1537.1C1370.7 1552.4 1383.1 1564.8 1398.4 1564.8H1528.2C1543.5 1564.8 1555.9 1552.4 1555.9 1537.1" stroke="#9A3B82" stroke-width="5" stroke-miterlimit="10" stroke-linecap="round"/>
<path d="M1397.1 1714.5H1528.2C1543.5 1714.5 1555.9 1702.1 1555.9 1686.8V1499.7" stroke="#9A3B82" stroke-width="5" stroke-miterlimit="10" stroke-linecap="round"/>
<path d="M1433.3 1498.9H1420C1415.6 1498.9 1412 1502.5 1412 1506.9C1412 1511.3 1415.6 1514.9 1420 1514.9H1494.4C1502.4 1514.9 1509 1508.4 1509 1500.3C1509 1490.7 1516.8 1482.9 1526.4 1482.9H1538.5C1548.1 1482.9 1555.9 1490.7 1555.9 1500.3V1532.7" stroke="#9A3B82" stroke-width="5" stroke-miterlimit="10" stroke-linecap="round"/>
<path d="M2341.3 468.3L2008.4 809.7L1624.6 386.6L2043.5 91.8L2341.3 468.3Z" fill="#3FB1B5"/>
<path d="M1995.4 826.1L1592.7 384.7L2034.3 75.1" stroke="#FFCF2D" stroke-width="6" stroke-miterlimit="10"/>
<path d="M2001.9 450.7L2027 447C2068.3 440.9 2106.6 469.5 2112.7 510.7L2134.6 659.9C2142 710.2 2196 739 2241.9 717L2346.6 666.9" stroke="#FFCF2D" stroke-width="6" stroke-miterlimit="10"/>
<path d="M2480.1 695.5C2490.8 701.3 2500.9 707.3 2510.1 713.3C2508.5 722 2505.5 730.6 2501.1 738.9C2496.7 747.1 2491.1 754.4 2484.7 760.5C2474.6 756.1 2464 751 2453.3 745.2C2399.8 716.3 2362.5 681.8 2369.9 668.1C2377.3 654.4 2426.6 666.6 2480.1 695.5Z" fill="#FFCF2D"/>
<path d="M2358.5 676.2C2365.18 676.2 2370.6 670.783 2370.6 664.1C2370.6 657.417 2365.18 652 2358.5 652C2351.82 652 2346.4 657.417 2346.4 664.1C2346.4 670.783 2351.82 676.2 2358.5 676.2Z" stroke="#66B0F0" stroke-width="6" stroke-miterlimit="10"/>
<path d="M1168.7 2070.3V2444.9H735.801V2224.2C745.201 2248.8 855.401 2233.1 973.001 2188.1C1078.8 2147.6 1160.5 2097.8 1168.7 2070.3Z" fill="#FE5244"/>
<path d="M1168.7 2059.4C1160.4 2086.9 1078.8 2136.7 972.901 2177.2C855.401 2222.2 745.201 2237.9 735.701 2213.3C726.201 2188.7 821.201 2133 938.801 2088C1056.3 2043 1159.3 2026.5 1168.7 2051.1C1169.7 2053.6 1169.7 2056.4 1168.7 2059.4Z" fill="#66B0F0"/>
<path d="M1077 1811V2128.4L1053.1 2140.5C1028.9 2152.3 1001.8 2164 973 2175C920.1 2195.3 868.6 2209.6 827.2 2217L851 2123.5L889.8 1970.9C871.4 1970.9 854 1962.7 842.3 1948.5L683 1767.3C710.3 1742.4 751.1 1776.3 751.1 1776.3L735.8 1698.2C732.2 1679.7 737.6 1660.5 750.3 1646.6L798.7 1593.5C808.3 1583 825.6 1587.1 829.6 1600.7L864 1719.4C864 1719.4 949.4 1784.6 965.4 1784.6C983.5 1784.6 989.8 1769.9 956 1721.6C930.6 1685.3 956 1658.8 956 1658.8L1038.7 1728.4C1063 1749 1077 1779.2 1077 1811Z" fill="white" stroke="#FFCF2D" stroke-width="5" stroke-miterlimit="10"/>
<path d="M894.7 1792.5L834.2 1744.1L801.1 1629.9C797.3 1616.8 781.2 1612.9 772 1623" stroke="#FFCF2D" stroke-width="5" stroke-miterlimit="10"/>
<path d="M855.1 1813.8L802.5 1771L771.2 1662.9C767.6 1650.5 751.8 1646.8 743.1 1656.4" stroke="#FFCF2D" stroke-width="5" stroke-miterlimit="10"/>
<path d="M808.6 1824.7L751 1776.4" stroke="#FFCF2D" stroke-width="5" stroke-miterlimit="10"/>
<path d="M889.799 1970.9H957.099" stroke="#FFCF2D" stroke-width="5" stroke-miterlimit="10"/>
<path d="M1077 2046.6V2130.5C1047.2 2146.3 1011.7 2162.3 973 2177.2C920 2197.5 868.5 2211.8 827 2219.2L851 2125.6C877.6 2112.8 907.4 2100 938.9 2088C989.8 2068.6 1038 2054.4 1077 2046.6Z" fill="#FFCF2D"/>
<path d="M1009.2 990L1039.6 1056.7C1042.5 1081.4 1024.9 1103.7 1000.2 1106.7C975.501 1109.6 957.901 1132 960.801 1156.7L965.201 1193.7" stroke="#FFCF2D" stroke-width="6" stroke-miterlimit="10"/>
<path d="M1361 775.7L1521.2 525.7L970.201 521.3L789.701 1001.9L1087.7 987.9L1361 775.7Z" fill="#FE5244"/>
<path d="M1527.8 506.9L951.7 500.4L760.4 1004.8" stroke="#FFCF2D" stroke-width="6" stroke-miterlimit="10"/>
<path d="M1351.1 738.2C1383.1 793.1 1328.7 884.5 1229.5 942.3C1130.3 1000.1 1024 1002.4 992.001 947.5C987.601 940 984.901 931.9 983.601 923.2C975.601 868.3 1027.9 793.3 1113.6 743.4C1199.3 693.5 1290.3 684.9 1334.1 718.9C1341 724.3 1346.7 730.7 1351.1 738.2Z" fill="#66B0F0" stroke="white" stroke-width="6" stroke-miterlimit="10"/>
<path d="M1325.7 694.6L1351.1 738.2C1346.7 730.7 1341 724.3 1334.1 718.9C1290.3 684.9 1199.3 693.5 1113.6 743.4C1027.9 793.3 975.7 868.3 983.6 923.2C984.8 931.9 987.6 940 992 947.5L966.6 903.9C934.6 849 989 757.6 1088.2 699.8C1187.3 642.1 1293.7 639.7 1325.7 694.6Z" stroke="white" stroke-width="5" stroke-miterlimit="10" stroke-linecap="round"/>
<path d="M956.601 1328.5C952.701 1340 948.501 1351 944.101 1361.1C935.201 1361 926.201 1359.5 917.401 1356.5C908.501 1353.5 900.501 1349.3 893.301 1344C895.901 1333.3 899.101 1322 903.001 1310.5C922.401 1252.9 950.001 1210.3 964.801 1215.2C979.601 1220.2 975.901 1270.9 956.601 1328.5Z" fill="#FFCF2D"/>
<path d="M966.801 1215.4C973.484 1215.4 978.901 1209.98 978.901 1203.3C978.901 1196.62 973.484 1191.2 966.801 1191.2C960.119 1191.2 954.701 1196.62 954.701 1203.3C954.701 1209.98 960.119 1215.4 966.801 1215.4Z" stroke="#66B0F0" stroke-width="6" stroke-miterlimit="10"/>
<path d="M450.5 2035.6V2444.9H0.900391V1842.5C9.70039 1872 103.8 1933.5 220.6 1984.9C344.9 2039.8 447.9 2062.4 450.5 2035.6Z" fill="#66B0F0"/>
<path d="M450.5 2024.7C447.8 2051.5 344.9 2028.8 220.6 1974C103.8 1922.5 9.69964 1861 0.89964 1831.6C0.29964 1829.7 0.0996037 1827.9 0.299604 1826.3C2.8996 1799.5 105.9 1822.2 230.2 1877C354.5 1931.8 453.2 1997.9 450.5 2024.7Z" fill="#9A3B82"/>
<path d="M184.4 1437.6C195.1 1415.6 217.4 1401.6 241.9 1401.6H312.6L316.3 1685.8L365.6 1947L381.3 2030C339.7 2020.8 282.9 2001.5 220.7 1974.1C185.5 1958.6 141.4 1935.6 112 1919.4V1573.6C112 1568.9 112.9 1564.2 114.5 1559.8L184.4 1437.6Z" fill="#A0505A"/>
<path d="M381.2 2030C339.6 2020.8 282.8 2001.5 220.6 1974.1C185.4 1958.6 141.3 1935.6 111.9 1919.4V1832.5C144 1842.8 191.5 1860 230.2 1877C282.4 1900 328 1923.7 365.6 1947L381.2 2030Z" fill="#73325A"/>
<path d="M644.499 1082.1L268.399 1774.1C254.499 1799.7 216.199 1805.8 182.899 1787.7C149.599 1769.6 133.899 1734.2 147.799 1708.5L523.9 1016.5L644.499 1082.1Z" fill="white" stroke="#FFCF2D" stroke-width="5" stroke-miterlimit="10"/>
<path d="M644.43 1082.27C658.354 1056.65 642.657 1021.21 609.37 1003.12C576.082 985.031 537.81 991.135 523.886 1016.76C509.962 1042.38 525.658 1077.81 558.946 1095.9C592.233 1113.99 630.505 1107.89 644.43 1082.27Z" fill="#66B0F0" stroke="#FFCF2D" stroke-width="5" stroke-miterlimit="10"/>
<path d="M398.799 1347L576.499 1201.9L573.699 1253.5L630.599 1267.7L500.999 1347.7C535.799 1341.7 577.699 1336.8 612.199 1339.5C653.299 1342.7 639.499 1390.8 624.099 1431.9C660.099 1428.4 780.799 1355.3 826.299 1369.1C854.099 1377.5 844.099 1434.2 836.099 1465.5C847.699 1466.1 906.399 1465.4 906.399 1465.4L875.399 1493.7L892.399 1522C826.399 1524.9 825.599 1514.5 833.899 1467.7C835.299 1416.8 778.899 1465.7 658.799 1494.4C599.299 1508.6 606.999 1469.9 621.699 1429.6C615.799 1411.1 571.699 1391 429.999 1428L398.799 1347Z" fill="#FE5244"/>
<path d="M401.4 1435.4C430.395 1435.4 453.9 1411.89 453.9 1382.9C453.9 1353.91 430.395 1330.4 401.4 1330.4C372.405 1330.4 348.9 1353.91 348.9 1382.9C348.9 1411.89 372.405 1435.4 401.4 1435.4Z" fill="white" stroke="#FE5244" stroke-width="5" stroke-miterlimit="10"/>
<path d="M383.298 1401.6V1404.9C383.298 1438.5 356.098 1465.8 322.398 1465.8H258.498V1401.6H383.298Z" fill="#A0505A"/>
<path d="M461.099 1524.9L444.199 1564.5L424.499 1610.8L413.799 1635.9L397.499 1674.2C397.099 1675.2 396.499 1676.3 395.999 1677.2C395.999 1677.3 395.899 1677.3 395.899 1677.4C390.699 1686.4 380.599 1692 369.499 1692H239.999C224.299 1692 213.599 1677.1 219.399 1663.4L228.799 1641.3L249.499 1592.7L267.299 1550.8L282.999 1514C287.599 1503.2 298.699 1496.1 311.099 1496.1H440.599C456.199 1496.3 466.899 1511.2 461.099 1524.9Z" fill="#A0505A"/>
<path d="M272.697 1551C278.097 1545 285.897 1541.4 294.297 1541.4H417.997C430.997 1541.4 440.397 1552.6 439.097 1564.5" stroke="#73325A" stroke-width="5" stroke-miterlimit="10" stroke-linecap="round"/>
<path d="M255.898 1592.9C261.198 1587.6 268.498 1584.5 276.398 1584.5H400.098C414.298 1584.5 424.098 1597.7 420.498 1610.7" stroke="#73325A" stroke-width="5" stroke-miterlimit="10" stroke-linecap="round"/>
<path d="M236.498 1641.4C241.798 1636.4 248.898 1633.5 256.498 1633.5H380.198C394.798 1633.5 404.898 1647.7 400.198 1661.1" stroke="#73325A" stroke-width="5" stroke-miterlimit="10" stroke-linecap="round"/>
<path d="M683.8 361.8C692.1 352.9 700.4 344.6 708.6 337.2C716.6 340.9 724.2 346 731.1 352.4C737.9 358.8 743.6 366 747.9 373.7C741.1 382.4 733.5 391.3 725.2 400.2C683.8 444.7 641.1 472.2 629.6 461.6C618.2 451 642.4 406.3 683.8 361.8Z" fill="#FFCF2D"/>
<path d="M393.201 714.2L380.001 722.4C332.101 752.1 238.801 688.2 171.701 579.7C104.501 471.2 88.9007 359.3 136.701 329.6L150.301 321.2L231.201 559.2L393.201 714.2Z" fill="#66B0F0"/>
<path d="M527.2 842.5L393.2 714.2L231.1 559.1L150.2 321.2L77.9004 108.5L414.6 379.8L527.2 842.5Z" fill="#66B0F0" stroke="white" stroke-width="6" stroke-miterlimit="10"/>
<path d="M537.7 829.8L425.9 367.9L85 99.4" stroke="#9A3B82" stroke-width="6" stroke-miterlimit="10"/>
<path d="M349.3 515.4C340.7 479.8 362.6 443.9 398.2 435.3C432 427.1 466.3 446.4 476.9 479.4L505 570.1C520.5 620.3 592.8 616.4 602.9 564.8L619.1 481.5" stroke="#FFCF2D" stroke-width="6" stroke-miterlimit="10"/>
<path d="M622.901 483.8C629.583 483.8 635.001 478.383 635.001 471.7C635.001 465.017 629.583 459.6 622.901 459.6C616.218 459.6 610.801 465.017 610.801 471.7C610.801 478.383 616.218 483.8 622.901 483.8Z" stroke="#66B0F0" stroke-width="6" stroke-miterlimit="10"/>
</svg>
