<svg width="3652" height="2852" viewBox="0 0 3652 2852" fill="none" xmlns="http://www.w3.org/2000/svg">
<g clip-path="url(#clip0_25_1436)">
<path d="M2878.1 2847H333.1L1373.1 377.6H1838.1L2878.1 2847Z" fill="#D0F0E4"/>
<path d="M1561.5 191.8L1605.6 147.7L1649.7 191.8" stroke="#FFCF2D" stroke-width="6" stroke-miterlimit="10"/>
<path d="M1605.6 147.7V0" stroke="#FFCF2D" stroke-width="6" stroke-miterlimit="10"/>
<path d="M1605.6 454.6C1644.81 454.6 1676.6 422.812 1676.6 383.6C1676.6 344.387 1644.81 312.6 1605.6 312.6C1566.39 312.6 1534.6 344.387 1534.6 383.6C1534.6 422.812 1566.39 454.6 1605.6 454.6Z" fill="#FFCF2D" stroke="white" stroke-width="6" stroke-miterlimit="10"/>
<path d="M1838.1 377.6H1373.2L1379.4 349.3C1399.8 256.1 1494.9 188.5 1605.7 188.5C1661.1 188.5 1712.6 205.4 1752.7 233.9C1792.9 262.4 1821.7 302.6 1831.9 349.2L1838.1 377.6Z" stroke="#9A3B82" stroke-width="6" stroke-miterlimit="10" stroke-linecap="round"/>
<path d="M2322.1 1970.2H2274.9V2268.2H2322.1V1970.2Z" fill="#66B0F0"/>
<path d="M3179.2 2268.2H2910.5C2900.8 2268.2 2893.3 2259.8 2894.5 2250.2L2931.9 1934.5C2932.9 1926.4 2939.8 1920.3 2947.9 1920.3H3216.6C3226.3 1920.3 3233.8 1928.7 3232.6 1938.3L3195.2 2254C3194.2 2262.1 3187.3 2268.2 3179.2 2268.2Z" fill="#9A3B82"/>
<path d="M3032.8 2268.2H2820.6C2807.6 2268.2 2797.5 2256.8 2799 2243.9L2826.2 2014C2827.5 2003.1 2836.8 1994.8 2847.8 1994.8H3065.1L3032.8 2268.2Z" fill="white" stroke="#FFCF2D" stroke-width="6" stroke-miterlimit="10"/>
<path d="M3056.6 2268.2H2854.1C2841.1 2268.2 2831 2256.8 2832.5 2243.9L2859.7 2014C2861 2003.1 2870.3 1994.8 2881.3 1994.8H3086.4C3092.9 1994.8 3098 2000.5 3097.2 2007L3067.4 2258.5C3066.8 2264.1 3062.1 2268.2 3056.6 2268.2Z" fill="white" stroke="#FFCF2D" stroke-width="6" stroke-miterlimit="10"/>
<path d="M2407 2015H2325.1V2268.2H2407V2015Z" stroke="#9A3B82" stroke-width="6" stroke-miterlimit="10" stroke-linecap="round"/>
<path d="M2493.8 2015H2378.5V2268.2H2493.8V2015Z" stroke="#9A3B82" stroke-width="6" stroke-miterlimit="10" stroke-linecap="round"/>
<path d="M2633.5 2268.2H2601.6L2482.9 1987.2H2514.8L2633.5 2268.2Z" stroke="#9A3B82" stroke-width="6" stroke-miterlimit="10" stroke-linecap="round"/>
<path d="M2694.3 2268.2H2634.9L2532.7 2029.9H2592.1L2694.3 2268.2Z" stroke="#9A3B82" stroke-width="6" stroke-miterlimit="10" stroke-linecap="round"/>
<path d="M2271.9 2015H2189.3V2268.2H2271.9V2015Z" stroke="#9A3B82" stroke-width="6" stroke-miterlimit="10" stroke-linecap="round"/>
<path d="M2573.5 1820.9H2189.3V1870.3H2573.5V1820.9Z" stroke="#9A3B82" stroke-width="6" stroke-miterlimit="10" stroke-linecap="round"/>
<path d="M2676 1783.1H2189.3V1822.9H2676V1783.1Z" fill="#FE5244"/>
<path d="M2517.8 1725.7H2189.3V1782.1H2517.8V1725.7Z" fill="#FFCF2D"/>
<path d="M2573.5 1682.6H2189.3V1724.7H2573.5V1682.6Z" stroke="#9A3B82" stroke-width="6" stroke-miterlimit="10" stroke-linecap="round"/>
<path d="M3236.4 1571.6L3236.1 1573.3L3190.7 1870.3H2769.5L2814.9 1573.3L2815.5 1569.1C2822.7 1554.5 2866.7 1543.2 2920 1543.2C2978.3 1543.2 3025.5 1556.7 3025.5 1573.3C3025.5 1556.7 3072.7 1543.2 3131 1543.2C3187.3 1543.3 3233.2 1555.8 3236.4 1571.6Z" fill="white" stroke="#FFCF2D" stroke-width="6" stroke-miterlimit="10"/>
<path d="M2980.6 1870.4L3025.6 1573.4" stroke="#FFCF2D" stroke-width="6" stroke-miterlimit="10"/>
<path d="M2980.6 1870.4C2980.6 1853.8 2933.4 1840.3 2875.1 1840.3C2816.8 1840.3 2769.6 1853.8 2769.6 1870.4H2980.6Z" fill="#FFCF2D"/>
<path d="M3191.6 1870.4C3191.6 1853.8 3144.4 1840.3 3086.1 1840.3C3027.8 1840.3 2980.6 1853.8 2980.6 1870.4H3191.6Z" fill="#FFCF2D"/>
<path d="M2982.2 1864.1C2981.6 1847.5 3028.3 1832.4 3086.6 1830.3C3123 1829 3158.9 1834.1 3177.8 1841.4L3222.8 1558.5" stroke="#FFCF2D" stroke-width="6" stroke-miterlimit="10" stroke-linecap="round"/>
<path d="M3202.8 1472.5H2824.6V1388.3C2824.6 1380 2831.3 1373.3 2839.6 1373.3H3187.9C3196.2 1373.3 3202.9 1380 3202.9 1388.3V1472.5H3202.8Z" fill="white" stroke="#9A3B82" stroke-width="6" stroke-miterlimit="10" stroke-linecap="round"/>
<path d="M3233 1369.3H2907.1C2902 1369.3 2898 1365.2 2898 1360.2V1326.7C2898 1321.6 2902.1 1317.6 2907.1 1317.6H3233C3238.1 1317.6 3242.1 1321.7 3242.1 1326.7V1360.2C3242.1 1365.2 3238 1369.3 3233 1369.3Z" fill="#FFCF2D"/>
<path d="M3245.7 1286.2H2859.1V1317.6H3245.7V1286.2Z" fill="#FE5244"/>
<path d="M3238.7 1286.2H2943.6C2939.7 1286.2 2936.6 1283 2936.6 1279.2V1253.9C2936.6 1250 2939.8 1246.9 2943.6 1246.9H3238.7C3242.6 1246.9 3245.7 1250.1 3245.7 1253.9V1279.2C3245.7 1283 3242.6 1286.2 3238.7 1286.2Z" fill="white" stroke="#9A3B82" stroke-width="6" stroke-miterlimit="10" stroke-linecap="round"/>
<path d="M2426.9 1163.6H2313.4V1472.5H2426.9V1163.6Z" stroke="#9A3B82" stroke-width="6" stroke-miterlimit="10" stroke-linecap="round"/>
<path d="M2313.4 1163.6H2267.6V1472.5H2313.4V1163.6Z" fill="white" stroke="#9A3B82" stroke-width="6" stroke-miterlimit="10" stroke-linecap="round"/>
<path d="M2267.6 1163.6H2190.6V1472.5H2267.6V1163.6Z" fill="white" stroke="#9A3B82" stroke-width="6" stroke-miterlimit="10" stroke-linecap="round"/>
<path d="M2541.4 1219.4H2441.9V1472.6H2541.4V1219.4Z" stroke="#9A3B82" stroke-width="6" stroke-miterlimit="10" stroke-linecap="round"/>
<path d="M2449.1 1472.5H2409.9C2406.1 1472.5 2402.9 1469.4 2402.9 1465.5V1226.2C2402.9 1222.4 2406 1219.2 2409.9 1219.2H2449.1C2452.9 1219.2 2456.1 1222.3 2456.1 1226.2V1465.5C2456 1469.4 2452.9 1472.5 2449.1 1472.5Z" fill="white" stroke="#9A3B82" stroke-width="6" stroke-miterlimit="10" stroke-linecap="round"/>
<path d="M2541.4 1219.4V1358.2L2487.5 1219.4H2541.4Z" fill="#9A3B82"/>
<path d="M2771.8 1472.5H2612.6C2609.1 1472.5 2605.9 1470.3 2604.7 1467.1L2501.3 1200.9C2499.1 1195.3 2503.2 1189.3 2509.2 1189.3H2668.4C2671.9 1189.3 2675.1 1191.5 2676.3 1194.7L2779.7 1460.9C2781.9 1466.5 2777.8 1472.5 2771.8 1472.5Z" fill="white" stroke="#FFCF2D" stroke-width="6" stroke-miterlimit="10"/>
<path d="M2797.8 1472.5H2638.6C2635.1 1472.5 2631.9 1470.3 2630.7 1467.1L2527.3 1200.9C2525.1 1195.3 2529.2 1189.3 2535.2 1189.3H2694.4C2697.9 1189.3 2701.1 1191.5 2702.3 1194.7L2805.7 1460.9C2807.9 1466.5 2803.8 1472.5 2797.8 1472.5Z" fill="white" stroke="#FFCF2D" stroke-width="6" stroke-miterlimit="10"/>
<path d="M3077.4 1007.1C3062.5 1011.3 3046.7 1013.6 3030.5 1013.6C2935.8 1013.6 2859.1 936.9 2859.1 842.2C2859.1 764.1 2911.4 698.1 2982.9 677.5L3077.4 1007.1Z" stroke="#FFCF2D" stroke-width="6" stroke-miterlimit="10"/>
<path d="M3030.5 1013.6V1074.7" stroke="#FFCF2D" stroke-width="6" stroke-miterlimit="10"/>
<path d="M3030.5 987.4C3110.69 987.4 3175.7 922.392 3175.7 842.2C3175.7 762.008 3110.69 697 3030.5 697C2950.31 697 2885.3 762.008 2885.3 842.2C2885.3 922.392 2950.31 987.4 3030.5 987.4Z" fill="white" stroke="#3FB1B5" stroke-width="6" stroke-miterlimit="10"/>
<path d="M3091.2 1074.3H2970.3L3030.3 1044.2L3091.2 1074.3Z" fill="white" stroke="#FFCF2D" stroke-width="6" stroke-miterlimit="10"/>
<path d="M3245.7 1074.7V2847H3191V2718C3191 2689.3 3167.7 2666 3139 2666H2295.4C2266.7 2666 2243.4 2689.3 2243.4 2718V2847H2189.3V1074.7H3245.7Z" stroke="#9A3B82" stroke-width="6" stroke-miterlimit="10" stroke-linecap="round"/>
<path d="M3169.8 2616.9H2263.2C2251.7 2616.9 2242.3 2607.6 2242.3 2596V2335.1C2242.3 2323.6 2251.6 2314.2 2263.2 2314.2H3169.8C3181.3 2314.2 3190.7 2323.5 3190.7 2335.1V2596C3190.7 2607.6 3181.3 2616.9 3169.8 2616.9Z" stroke="#3FB1B5" stroke-width="6" stroke-miterlimit="10"/>
<path d="M2764.3 831.301V1074.7H2679.1L2764.3 831.301Z" fill="#9A3B82"/>
<path d="M2764.3 831.3L2763.7 833.1L2679.6 1074.7H2288.6L2372.7 833.1L2375.4 825.4C2388 807.3 2422.9 794.1 2464.5 793.4C2465.2 793.4 2465.8 793.4 2466.5 793.4C2467.2 793.4 2467.8 793.4 2468.5 793.4C2517.1 793.4 2560.4 810.3 2568.3 832.5C2576.1 810.3 2617.5 793.4 2666.1 793.4C2713.7 793.4 2755.4 809.7 2764.3 831.3Z" fill="white" stroke="#FFCF2D" stroke-width="6" stroke-miterlimit="10"/>
<path d="M2568.2 832.5L2483.3 1069.7" stroke="#FFCF2D" stroke-width="6" stroke-miterlimit="10" stroke-linecap="round"/>
<path d="M2483.1 1071.7H2288.6C2295.8 1049.2 2336.2 1031.9 2384.8 1031.9C2433.6 1031.9 2475.9 1049.2 2483.1 1071.7Z" fill="#FFCF2D"/>
<path d="M2679.1 1071.7H2484.6C2491.8 1049.2 2532.2 1031.9 2580.8 1031.9C2629.6 1031.9 2671.9 1049.2 2679.1 1071.7Z" fill="#FFCF2D"/>
<path d="M2651.4 2391.5C2651.4 2383.7 2657.7 2377.3 2665.6 2377.3H2771.7C2779.5 2377.3 2785.9 2383.6 2785.9 2391.5" stroke="#9A3B82" stroke-width="6" stroke-miterlimit="10" stroke-linecap="round"/>
<path d="M2189.3 1870.4H3245.7" stroke="#9A3B82" stroke-width="6" stroke-miterlimit="10" stroke-linecap="round"/>
<path d="M2189.3 1472.5H3245.7" stroke="#9A3B82" stroke-width="6" stroke-miterlimit="10" stroke-linecap="round"/>
<path d="M2189.3 2268.2H3245.7" stroke="#9A3B82" stroke-width="6" stroke-miterlimit="10" stroke-linecap="round"/>
<path d="M2319.3 703.1L2189.3 1074.7H3245.7L3375.7 703.1" stroke="#9A3B82" stroke-width="6" stroke-miterlimit="10" stroke-linecap="round" stroke-linejoin="round"/>
<path d="M3494.3 2751.6C3494.3 2771.7 3490.6 2791 3483.8 2808.9C3473.9 2834.9 3448.8 2851.9 3420.9 2851.9H3209.2C3181.4 2851.9 3156.2 2834.9 3146.4 2808.9C3139.6 2791 3135.9 2771.7 3135.9 2751.6C3135.9 2693.6 3166.6 2642.4 3213.5 2611.8V2578C3213.5 2592.8 3259 2604.8 3315 2604.8C3371.1 2604.8 3416.5 2592.8 3416.5 2578V2611.9C3463.6 2642.4 3494.3 2693.6 3494.3 2751.6Z" fill="#FE5244"/>
<path d="M3416.7 2602.6V2611.6C3400.6 2624.4 3356.8 2631.2 3315.2 2631.2C3273.6 2631.2 3229.8 2624.4 3213.7 2611.6V2602.6C3215.6 2606.9 3223.7 2612.5 3241.7 2617.2C3261.3 2622.4 3287.4 2625.2 3315.2 2625.2C3343 2625.2 3369.1 2622.4 3388.7 2617.2C3406.7 2612.4 3414.7 2606.8 3416.7 2602.6Z" fill="white"/>
<path d="M3416.7 2578C3416.7 2592.8 3371.2 2604.8 3315.2 2604.8C3259.2 2604.8 3213.7 2592.8 3213.7 2578C3213.7 2576.1 3214.4 2574.3 3215.8 2572.5C3225.4 2560.4 3266.2 2551.2 3315.2 2551.2C3364.2 2551.2 3405 2560.3 3414.6 2572.5C3415.9 2574.3 3416.7 2576.1 3416.7 2578Z" fill="#66B0F0"/>
<path d="M3179.3 2709.1C3186.37 2709.1 3192.1 2703.37 3192.1 2696.3C3192.1 2689.23 3186.37 2683.5 3179.3 2683.5C3172.23 2683.5 3166.5 2689.23 3166.5 2696.3C3166.5 2703.37 3172.23 2709.1 3179.3 2709.1Z" stroke="#FFCF2D" stroke-width="6" stroke-miterlimit="10"/>
<path d="M3222.7 2740.6C3229.77 2740.6 3235.5 2734.87 3235.5 2727.8C3235.5 2720.73 3229.77 2715 3222.7 2715C3215.63 2715 3209.9 2720.73 3209.9 2727.8C3209.9 2734.87 3215.63 2740.6 3222.7 2740.6Z" stroke="#FFCF2D" stroke-width="6" stroke-miterlimit="10"/>
<path d="M3276.7 2703.2C3283.77 2703.2 3289.5 2697.47 3289.5 2690.4C3289.5 2683.33 3283.77 2677.6 3276.7 2677.6C3269.63 2677.6 3263.9 2683.33 3263.9 2690.4C3263.9 2697.47 3269.63 2703.2 3276.7 2703.2Z" stroke="#FFCF2D" stroke-width="6" stroke-miterlimit="10"/>
<path d="M3269.1 2788.2C3276.17 2788.2 3281.9 2782.47 3281.9 2775.4C3281.9 2768.33 3276.17 2762.6 3269.1 2762.6C3262.03 2762.6 3256.3 2768.33 3256.3 2775.4C3256.3 2782.47 3262.03 2788.2 3269.1 2788.2Z" stroke="#FFCF2D" stroke-width="6" stroke-miterlimit="10"/>
<path d="M3221.1 2825.5C3228.17 2825.5 3233.9 2819.77 3233.9 2812.7C3233.9 2805.63 3228.17 2799.9 3221.1 2799.9C3214.03 2799.9 3208.3 2805.63 3208.3 2812.7C3208.3 2819.77 3214.03 2825.5 3221.1 2825.5Z" stroke="#FFCF2D" stroke-width="6" stroke-miterlimit="10"/>
<path d="M3172.7 2788.2C3179.77 2788.2 3185.5 2782.47 3185.5 2775.4C3185.5 2768.33 3179.77 2762.6 3172.7 2762.6C3165.63 2762.6 3159.9 2768.33 3159.9 2775.4C3159.9 2782.47 3165.63 2788.2 3172.7 2788.2Z" stroke="#FFCF2D" stroke-width="6" stroke-miterlimit="10"/>
<path d="M3229.7 2661.6C3236.77 2661.6 3242.5 2655.87 3242.5 2648.8C3242.5 2641.73 3236.77 2636 3229.7 2636C3222.63 2636 3216.9 2641.73 3216.9 2648.8C3216.9 2655.87 3222.63 2661.6 3229.7 2661.6Z" stroke="#FFCF2D" stroke-width="6" stroke-miterlimit="10"/>
<path d="M3331.6 2671.3C3338.67 2671.3 3344.4 2665.57 3344.4 2658.5C3344.4 2651.43 3338.67 2645.7 3331.6 2645.7C3324.53 2645.7 3318.8 2651.43 3318.8 2658.5C3318.8 2665.57 3324.53 2671.3 3331.6 2671.3Z" stroke="#FFCF2D" stroke-width="6" stroke-miterlimit="10"/>
<path d="M3320.9 2748.9C3327.97 2748.9 3333.7 2743.17 3333.7 2736.1C3333.7 2729.03 3327.97 2723.3 3320.9 2723.3C3313.83 2723.3 3308.1 2729.03 3308.1 2736.1C3308.1 2743.17 3313.83 2748.9 3320.9 2748.9Z" stroke="#FFCF2D" stroke-width="6" stroke-miterlimit="10"/>
<path d="M3357.9 2799.9C3364.97 2799.9 3370.7 2794.17 3370.7 2787.1C3370.7 2780.03 3364.97 2774.3 3357.9 2774.3C3350.83 2774.3 3345.1 2780.03 3345.1 2787.1C3345.1 2794.17 3350.83 2799.9 3357.9 2799.9Z" stroke="#FFCF2D" stroke-width="6" stroke-miterlimit="10"/>
<path d="M3309.9 2838.3C3316.97 2838.3 3322.7 2832.57 3322.7 2825.5C3322.7 2818.43 3316.97 2812.7 3309.9 2812.7C3302.83 2812.7 3297.1 2818.43 3297.1 2825.5C3297.1 2832.57 3302.83 2838.3 3309.9 2838.3Z" stroke="#FFCF2D" stroke-width="6" stroke-miterlimit="10"/>
<path d="M3371.6 2718.3C3378.67 2718.3 3384.4 2712.57 3384.4 2705.5C3384.4 2698.43 3378.67 2692.7 3371.6 2692.7C3364.53 2692.7 3358.8 2698.43 3358.8 2705.5C3358.8 2712.57 3364.53 2718.3 3371.6 2718.3Z" stroke="#FFCF2D" stroke-width="6" stroke-miterlimit="10"/>
<path d="M3408.7 2665.8C3415.77 2665.8 3421.5 2660.07 3421.5 2653C3421.5 2645.93 3415.77 2640.2 3408.7 2640.2C3401.63 2640.2 3395.9 2645.93 3395.9 2653C3395.9 2660.07 3401.63 2665.8 3408.7 2665.8Z" stroke="#FFCF2D" stroke-width="6" stroke-miterlimit="10"/>
<path d="M3450.9 2708.3C3457.97 2708.3 3463.7 2702.57 3463.7 2695.5C3463.7 2688.43 3457.97 2682.7 3450.9 2682.7C3443.83 2682.7 3438.1 2688.43 3438.1 2695.5C3438.1 2702.57 3443.83 2708.3 3450.9 2708.3Z" stroke="#FFCF2D" stroke-width="6" stroke-miterlimit="10"/>
<path d="M3402.6 2750.2C3409.67 2750.2 3415.4 2744.47 3415.4 2737.4C3415.4 2730.33 3409.67 2724.6 3402.6 2724.6C3395.53 2724.6 3389.8 2730.33 3389.8 2737.4C3389.8 2744.47 3395.53 2750.2 3402.6 2750.2Z" stroke="#FFCF2D" stroke-width="6" stroke-miterlimit="10"/>
<path d="M3460.4 2777C3467.47 2777 3473.2 2771.27 3473.2 2764.2C3473.2 2757.13 3467.47 2751.4 3460.4 2751.4C3453.33 2751.4 3447.6 2757.13 3447.6 2764.2C3447.6 2771.27 3453.33 2777 3460.4 2777Z" stroke="#FFCF2D" stroke-width="6" stroke-miterlimit="10"/>
<path d="M3421.5 2826.2C3428.57 2826.2 3434.3 2820.47 3434.3 2813.4C3434.3 2806.33 3428.57 2800.6 3421.5 2800.6C3414.43 2800.6 3408.7 2806.33 3408.7 2813.4C3408.7 2820.47 3414.43 2826.2 3421.5 2826.2Z" stroke="#FFCF2D" stroke-width="6" stroke-miterlimit="10"/>
<path d="M3539.4 2422.2C3539.4 2422.2 3634.4 2370.9 3650.1 2460.5C3668.3 2564 3544.7 2655.1 3544.7 2655.1C3544.7 2655.1 3518.1 2589.2 3446.8 2532.4C3385.1 2483.3 3436.3 2353.1 3539.4 2422.2Z" fill="white" stroke="#FFCF2D" stroke-width="6" stroke-miterlimit="10"/>
<path d="M3352.9 2308.1C3398 2308.5 3462.8 2216.9 3401.6 2116.4C3327.7 1995 3315 1924.7 3315 1924.7C3315 1924.7 3206.3 2068.5 3224.8 2178.8C3245.1 2299.6 3352.9 2308.1 3352.9 2308.1Z" fill="#FFCF2D"/>
<path d="M3360.7 2247.1C3426.6 2264.5 3489.2 2224.4 3490.5 2133C3492.8 1971.4 3523.4 1918.8 3523.4 1918.8C3523.4 1918.8 3318.1 1992.7 3287 2107.5C3257.4 2216.9 3360.7 2247.1 3360.7 2247.1Z" fill="white" stroke="#FFCF2D" stroke-width="6" stroke-miterlimit="10"/>
<path d="M3085.3 2353.5C3082.9 2353.7 3080.4 2353.9 3077.7 2354.1C2935.9 2364.7 2895.1 2494.5 2895.1 2494.5C2895.1 2494.5 2886.4 2485.1 2888.2 2452.6C2891.6 2368.8 2968.7 2282.2 3056.7 2337.2C3066.5 2343.4 3076.1 2348.7 3085.3 2353.5Z" fill="#FFCF2D"/>
<path d="M3246.1 2385.4C3221.1 2387 3164 2393.9 3085.3 2353.5C3076.1 2348.8 3066.5 2343.4 3056.7 2337.2C2968.7 2282.2 2893.6 2368.8 2890.2 2452.6C2890 2456.7 2891 2460.8 2891.2 2464.8C2882.9 2392 2883.1 2210.8 3103.4 2216.9C3254.8 2221.3 3246.1 2385.4 3246.1 2385.4Z" fill="white" stroke="#FFCF2D" stroke-width="6" stroke-miterlimit="10"/>
<path d="M3282.1 2572.7C3282.1 2572.7 3308.2 2209 2955.5 2256.5" stroke="#FFCF2D" stroke-width="6" stroke-miterlimit="10"/>
<path d="M3523.4 1918.8C3301.2 2145.8 3342.6 2572.7 3342.6 2572.7C3319.2 2409.4 3462.8 2247.1 3539.3 2417.9C3562.1 2468.7 3544.6 2655 3544.6 2655" stroke="#FFCF2D" stroke-width="6" stroke-miterlimit="10"/>
<path d="M231 2286.8L201.2 2312.9C196.4 2307.2 192.1 2300.9 188.4 2294L2.60041 1947.8C-5.19959 1933.3 5.30044 1915.8 21.7004 1915.8H47.7004C68.5004 1915.8 87.5004 1927.2 97.3004 1945.5L243.4 2217.7C256 2240.9 250.8 2269.6 231 2286.8Z" fill="#FFCF2D"/>
<path d="M736.8 2294.4L304.5 2383.2V2374.2C304.5 2331.1 334.8 2294 377 2285.3L655.5 2228.1C697.5 2219.5 736.8 2251.6 736.8 2294.4Z" fill="#FFCF2D"/>
<path d="M687.8 2847V2413.9C687.8 2378 654.9 2351.2 619.7 2358.4L348.2 2414.1C315.9 2420.7 289.3 2443.3 277.5 2474.1L134.2 2847" stroke="#9A3B82" stroke-width="6" stroke-miterlimit="10" stroke-linecap="round"/>
<path d="M1.5 1945.9L212.6 2339.2C230.7 2372.9 268.7 2390.7 306.2 2383L737.8 2294.4" stroke="#9A3B82" stroke-width="6" stroke-miterlimit="10" stroke-linecap="round"/>
<path d="M890.101 1973.2H524.801V2022H890.101V1973.2Z" fill="#66B0F0"/>
<path d="M823.5 1920.2C827.9 1924.3 830.6 1931.7 830.6 1937.9C830.6 1950.3 819.8 1963 806.4 1963H473.2C473.2 1968.8 477.9 1973.5 483.7 1973.5H885.8C896.6 1973.5 906.3 1969.5 913.4 1962.9C920.5 1956.4 924.8 1947.3 924.8 1937.3C924.8 1917.3 907.3 1901.2 885.8 1901.2H483.7C477.9 1901.2 473.2 1905.9 473.2 1911.7V1913.6H806.4C813.1 1913.7 819.1 1916.2 823.5 1920.2Z" fill="#FE5244"/>
<path d="M497.301 1913.7V1962.1H473.301V1966.1H807.601C811.301 1966.1 814.901 1965.4 818.101 1964.1C821.701 1962.7 824.901 1960.5 827.501 1957.9C832.601 1952.8 835.801 1945.7 835.801 1937.9C835.801 1922.3 823.101 1909.7 807.601 1909.7H473.301V1913.7H497.301V1913.7Z" fill="#FE5244"/>
<path d="M488 1913.7V1962.1H806.4C819.8 1962.1 830.6 1951.3 830.6 1937.9C830.6 1931.2 827.9 1925.2 823.5 1920.8C819.1 1916.4 813.1 1913.7 806.4 1913.7H488V1913.7Z" fill="white"/>
<path d="M488 1913.7V1962.1" stroke="#FE5244" stroke-width="5" stroke-miterlimit="10"/>
<path d="M761.9 1948V1988.4H789.8V1953.2C789.8 1944.8 796.6 1938 805 1938H817.4V1932.8H777C768.8 1932.8 761.9 1939.6 761.9 1948Z" fill="#FFCF2D"/>
<path d="M319.7 2063.8C319.7 2042.5 337 2025.2 358.3 2025.2H1117.3C1138.6 2025.2 1155.9 2042.5 1155.9 2063.8" stroke="#9A3B82" stroke-width="6" stroke-miterlimit="10" stroke-linecap="round"/>
<path d="M1156.5 2847L942.201 2100.6C932.701 2067.6 900.001 2044.6 862.601 2044.6H612.901C575.501 2044.6 542.801 2067.6 533.301 2100.6L319.101 2847" stroke="#9A3B82" stroke-width="6" stroke-miterlimit="10" stroke-linecap="round"/>
<path d="M1336.4 2717.8V2826.6C1336.4 2837.9 1345.5 2847 1356.8 2847H1628.8C1628.8 2847 1630.4 2796.5 1589 2782.4C1518.7 2758.5 1485.9 2717.8 1485.9 2717.8H1336.4V2717.8Z" fill="white" stroke="#FE5244" stroke-width="6" stroke-miterlimit="10"/>
<path d="M1487.7 2773.5C1498.8 2770.4 1538.8 2748.3 1525.1 2734.6C1518.6 2728.1 1503 2734.6 1503 2734.6" stroke="#FE5244" stroke-width="6" stroke-miterlimit="10"/>
<path d="M1528.7 2788.5C1539.8 2785.4 1578.2 2760.7 1563.1 2748.6C1551.7 2739.4 1534.6 2757.2 1534.6 2757.2" stroke="#FE5244" stroke-width="6" stroke-miterlimit="10"/>
<path d="M1494.3 2726.6L1336.4 2775.7V2717.8H1486C1486 2717.8 1488.7 2721.2 1494.3 2726.6Z" fill="#FE5244"/>
<path d="M1677.4 2717.8V2826.6C1677.4 2837.9 1686.5 2847 1697.8 2847H1969.8C1969.8 2847 1971.4 2796.5 1930 2782.4C1859.7 2758.5 1826.9 2717.8 1826.9 2717.8H1677.4V2717.8Z" fill="white" stroke="#FE5244" stroke-width="6" stroke-miterlimit="10"/>
<path d="M1828.7 2773.5C1839.8 2770.4 1879.8 2748.3 1866.1 2734.6C1859.6 2728.1 1844 2734.6 1844 2734.6" stroke="#FE5244" stroke-width="6" stroke-miterlimit="10"/>
<path d="M1869.7 2788.5C1880.8 2785.4 1919.2 2760.7 1904.1 2748.6C1892.7 2739.4 1875.6 2757.2 1875.6 2757.2" stroke="#FE5244" stroke-width="6" stroke-miterlimit="10"/>
<path d="M1835.3 2726.6L1677.4 2775.7V2717.8H1827C1827 2717.8 1829.7 2721.2 1835.3 2726.6Z" fill="#FE5244"/>
<path d="M1409.9 1634.8L1311.4 2666H1517.4L1620.9 2166.3L1663.2 2272.8V2666H1877.7V2225.1L1763.3 1634.8H1409.9Z" fill="#3FB1B5"/>
<path d="M1517.2 1882.5L1421.4 2666" stroke="#9A3B82" stroke-width="6" stroke-miterlimit="10"/>
<path d="M1766.7 2666V2225.1L1632.3 1684.8" stroke="#9A3B82" stroke-width="6" stroke-miterlimit="10"/>
<path d="M1660.2 2272.8L1531.8 1899.9C1527.4 1887.1 1515.3 1878.5 1501.7 1878.5" stroke="white" stroke-width="6" stroke-miterlimit="10"/>
<path d="M1393.6 1805.3L1409.9 1634.8H1763.3L1773.4 1687.2L1393.6 1805.3Z" fill="#9A3B82"/>
<path d="M1878.1 2717.8H1662.4C1654.3 2717.8 1647.7 2711.2 1647.7 2703.1V2680.7C1647.7 2672.6 1654.3 2666 1662.4 2666H1878.1C1886.2 2666 1892.8 2672.6 1892.8 2680.7V2703.1C1892.7 2711.2 1886.2 2717.8 1878.1 2717.8Z" fill="#9A3B82"/>
<path d="M1521.1 2717.8H1305.4C1297.3 2717.8 1290.7 2711.2 1290.7 2703.1V2680.7C1290.7 2672.6 1297.3 2666 1305.4 2666H1521.1C1529.2 2666 1535.8 2672.6 1535.8 2680.7V2703.1C1535.7 2711.2 1529.2 2717.8 1521.1 2717.8Z" fill="#9A3B82"/>
<path d="M2096.8 1665L2164.4 1917.9L1827.4 2008L1759.7 1754.9C1757.6 1747 1752.5 1740.8 1746 1737C1739.5 1733.2 1731.5 1731.9 1723.6 1734C1707.9 1738.2 1698.5 1754.4 1702.7 1770.1L1770.4 2023.2L1763 2025.2L1695.4 1772.3C1690 1752.2 1701.6 1731.6 1721.4 1725.6C1721.8 1725.5 1722.2 1725.4 1722.6 1725.3L2049.8 1637.8C2070.3 1632.4 2091.3 1644.6 2096.8 1665Z" fill="#66B0F0"/>
<path d="M1767.2 1753.2L1834.8 2006.1L1827.4 2008.1L1759.7 1755C1757.6 1747.1 1752.5 1740.9 1746 1737.1C1739.5 1733.3 1731.5 1732 1723.6 1734.1C1707.9 1738.3 1698.5 1754.5 1702.7 1770.2L1770.4 2023.3L1763 2025.3L1695.4 1772.4C1690 1752.3 1701.6 1731.7 1721.4 1725.7C1741.5 1721 1761.8 1733.1 1767.2 1753.2Z" fill="#9A3B82"/>
<path d="M1759.7 1754.9L1823.2 1992.5L1766.2 2007.7L1702.7 1770.1C1698.5 1754.4 1707.8 1738.2 1723.6 1734C1731.5 1731.9 1739.5 1733.2 1746 1737C1752.5 1740.8 1757.6 1747 1759.7 1754.9Z" fill="white"/>
<path d="M2097.8 1799L1944.5 1851.8L1823.5 1634.8H1354.5C1274.8 1634.8 1215.2 1561.5 1231.5 1483.5L1280.3 1249.1C1295.6 1175.7 1360.3 1123.1 1435.2 1123.1H1755.9C1833.6 1123.1 1899.8 1179.5 1912.1 1256.2L1960.4 1484.4L2097.8 1799Z" fill="#FFCF2D" stroke="white" stroke-width="6" stroke-miterlimit="10"/>
<path d="M1329.5 1632.3C1274.3 1621.2 1233.3 1574.2 1229.1 1518.8C1233.3 1515.9 1238 1513.4 1243 1511.6C1279.3 1498.2 1320.8 1520.2 1335.9 1560.7C1345.2 1586.1 1342 1612.7 1329.5 1632.3Z" fill="white"/>
<path d="M1678.7 982.5V1123.2H1523.4L1559.2 1029.6L1678.7 982.5Z" fill="#E57281"/>
<path d="M1714.4 923.3C1714.3 923.3 1714.1 923.4 1714 923.4L1667.9 935.6C1651.4 940 1638.7 952.2 1633.3 967.6H1615.6C1604.4 967.6 1595.3 976.7 1595.3 987.9V988.2C1595.3 998.8 1603.4 1007.5 1613.8 1008.4C1613.7 1008.5 1613.7 1008.5 1613.7 1008.5C1613.7 1008.5 1605.5 1047.5 1557.6 1034.4C1557.6 1034.4 1559.5 931.8 1561.5 899.9C1563.2 873.6 1702.7 823.8 1715.6 845C1727 863.8 1713.8 872.6 1702.6 876.5C1722.4 872.3 1759.8 866.7 1763.6 883.4C1768 902.8 1728.5 919.6 1714.4 923.3Z" fill="#9A3B82"/>
<path d="M1723.4 995.2H1718.5L1719.9 1019.2C1720.9 1036.4 1707.1 1051 1689.9 1051H1668.3C1647.5 1051 1630.6 1034.1 1630.6 1013.3V1008.6H1615.7C1604.5 1008.6 1595.4 999.5 1595.4 988.3V988C1595.4 976.8 1604.5 967.7 1615.7 967.7H1633.4C1638.8 952.3 1651.5 940 1668 935.7L1714.1 923.5L1729.9 986.8C1731.5 990.8 1727.7 995.2 1723.4 995.2Z" fill="#E57281"/>
<path d="M1635.3 1015.2C1633.2 1037.2 1655.2 1052.9 1676 1052.9" stroke="#9A3B82" stroke-width="5" stroke-miterlimit="10" stroke-linecap="round"/>
<path d="M1627.2 991.7C1627.2 983.9 1620.9 977.6 1613.1 977.6" stroke="#9A3B82" stroke-width="5" stroke-miterlimit="10" stroke-linecap="round"/>
<path d="M1706.4 977.4C1708.44 977.4 1710.1 973.953 1710.1 969.7C1710.1 965.447 1708.44 962 1706.4 962C1704.36 962 1702.7 965.447 1702.7 969.7C1702.7 973.953 1704.36 977.4 1706.4 977.4Z" fill="#9A3B82"/>
<path d="M1690.4 953.5C1690.4 953.5 1702.7 944.1 1720.3 944.1" stroke="#9A3B82" stroke-width="5" stroke-miterlimit="10" stroke-linecap="round"/>
<path d="M1642.8 1698.9C1642.8 1698.9 1765.3 1704.2 1808.4 1605.9L1785.6 1564.2L1717.5 1590.4L1642.8 1698.9Z" fill="white" stroke="#FE5244" stroke-width="6" stroke-miterlimit="10"/>
<path d="M1740.9 1097.4C1735 1097.9 1729.6 1100.5 1725.6 1104.5C1721.2 1108.9 1718.4 1115 1718.4 1121.8V1614.5C1718.4 1661.5 1680.3 1699.6 1633.3 1699.6H1444.4C1393.6 1699.6 1354.4 1655.5 1359.8 1605.4V1605.3L1427.8 1137.6C1431.2 1114.5 1450.9 1097.4 1474.3 1097.4H1740.9V1097.4Z" fill="#FE5244" stroke="#FE5244" stroke-width="6" stroke-miterlimit="10"/>
<path d="M1721.9 1097.4C1716 1097.9 1710.6 1100.5 1706.6 1104.5C1702.9 1108.2 1700.4 1113 1699.7 1118.4C1699.6 1119.5 1699.5 1120.6 1699.5 1121.7L1695.5 1159.4L1647.5 1614.4C1647.5 1661.4 1609.4 1699.5 1562.4 1699.5H1444.5C1393.7 1699.5 1354.5 1655.4 1359.9 1605.3V1605.2L1390.6 1393.8L1427.9 1137.5C1428.2 1135.3 1428.7 1133.1 1429.3 1130.9C1435.1 1111.2 1453.3 1097.3 1474.3 1097.3H1721.9V1097.4Z" fill="white" stroke="#FE5244" stroke-width="6" stroke-miterlimit="10"/>
<path d="M1679.8 1195.5L1661.9 1329.8C1656 1357.3 1634.6 1372 1603.6 1377L1391.6 1407.8L1422.5 1195.4H1679.8V1195.5Z" fill="#FFCF2D"/>
<path d="M1714.3 1097.4H1709C1699.4 1097.3 1691 1104.1 1689.1 1113.6L1657.9 1314.9C1652 1342.4 1627.7 1362.1 1599.6 1362.1H1404.5C1380.9 1362.1 1363.3 1340.3 1368.4 1317.2L1406 1146.4C1412.3 1117.8 1437.7 1097.4 1467 1097.4H1714.3Z" fill="#FE5244" stroke="#FE5244" stroke-width="6" stroke-miterlimit="10"/>
<path d="M1553.5 1418.1L1603.2 1114.2C1604.2 1108.1 1609.5 1103.5 1615.7 1103.5C1623.5 1103.5 1629.5 1110.5 1628.2 1118.3L1578.5 1422.2C1577.5 1428.3 1572.2 1432.9 1566 1432.9C1558.2 1432.9 1552.2 1425.9 1553.5 1418.1Z" fill="white" stroke="#FE5244" stroke-width="6" stroke-miterlimit="10"/>
<path d="M1442.4 1418.1L1492.1 1114.2C1493.1 1108.1 1498.4 1103.5 1504.6 1103.5C1512.4 1103.5 1518.4 1110.5 1517.1 1118.3L1467.4 1422.2C1466.4 1428.3 1461.1 1432.9 1454.9 1432.9C1447.1 1432.9 1441.1 1425.9 1442.4 1418.1Z" fill="white" stroke="#FE5244" stroke-width="6" stroke-miterlimit="10"/>
<path d="M1767.4 1123.3L1718.5 1123.5V1121.8C1718.5 1115 1721.2 1108.9 1725.7 1104.5C1729.7 1100.5 1735 1097.9 1741 1097.4H1745C1757.3 1098.4 1767 1108.8 1767.4 1123.3Z" fill="white" stroke="#FE5244" stroke-width="6" stroke-miterlimit="10"/>
<path d="M2079.5 1805.3L2120.7 1911.6C2127.3 1928.7 2117.7 1947.7 2100.1 1952.6L2009.6 1977.4C2004.1 1978.9 1998.3 1977.6 1994 1973.9L1984.8 1965.9L2003.6 1960.9C2011.9 1958.7 2017.5 1951 2017.1 1942.4L2015 1921.2C2014.6 1911.7 2006.9 1904.1 1997.4 1903.8H1998.4C1986.9 1903.4 1975.7 1896.3 1971.2 1885.7L1956.8 1847.4L2079.5 1805.3Z" fill="#E57281"/>
<path d="M1986.7 1968L2001.5 1964C2009.8 1961.8 2015.4 1955.1 2015 1946.5L2013.9 1923.3C2013.5 1913.8 2005.8 1906.2 1996.3 1905.9C1984.8 1905.5 1974.6 1898.4 1970.1 1887.8L1954.7 1851.5" stroke="white" stroke-width="6" stroke-miterlimit="10" stroke-linecap="round"/>
<path d="M2035.1 1967.8C2045.7 1965 2052.9 1955.2 2052.4 1944.2L2051 1914.6" stroke="white" stroke-width="6" stroke-miterlimit="10" stroke-linecap="round"/>
<path d="M2073.4 1957.9C2084 1955.1 2091.2 1945.3 2090.7 1934.3L2089.3 1904.7" stroke="white" stroke-width="6" stroke-miterlimit="10" stroke-linecap="round"/>
<path d="M1730.8 1362.1L1755 1488.7C1759.1 1510.3 1766.7 1531.2 1777.4 1550.4L1944.4 1851.8L2097.7 1799" stroke="white" stroke-width="6" stroke-miterlimit="10"/>
<path d="M1832.1 1649.2L1777.4 1550.4C1768.2 1533.7 1761.3 1515.9 1756.9 1497.4C1762.1 1495.7 1767.5 1494.5 1773.2 1494C1816.4 1490.2 1854.7 1526.5 1858.8 1575C1861.2 1604.4 1850.5 1631.5 1832.1 1649.2Z" fill="white"/>
</g>
<defs>
<clipPath id="clip0_25_1436">
<rect width="3652" height="2852" fill="white"/>
</clipPath>
</defs>
</svg>
