<svg width="192" height="192" viewBox="0 0 192 192" fill="none" xmlns="http://www.w3.org/2000/svg">
<path fill-rule="evenodd" clip-rule="evenodd" d="M8.71283 0.319101C4.37083 1.4026 1.38384 4.5456 0.426335 9.0391C0.0583352 10.7646 -0.064165 36.3931 0.030835 91.7891L0.168336 172.039L1.23184 174.813C4.44384 183.193 9.07384 187.751 17.3688 190.7C20.2063 191.709 177.987 192.261 182.719 191.279C189.923 189.783 194.213 180.428 190.739 173.789C189.488 171.398 20.6748 2.4871 18.2993 1.2491C16.0743 0.089599 11.4363 -0.360399 8.71283 0.319101ZM41.3813 48.6051L43.0938 50.2316L39.8053 53.7176C31.5018 62.5196 39.1913 70.2021 47.9933 61.8991L51.4833 58.6066L62.2918 69.4156L73.1008 80.2241L69.8083 83.7141C61.5023 92.5186 69.1888 100.205 77.9933 91.8991L81.4833 88.6066L92.2918 99.4156L103.101 110.224L99.8083 113.714C91.5023 122.519 99.1888 130.205 107.993 121.899L111.483 118.607L122.292 129.416L133.101 140.224L129.808 143.714C121.502 152.519 129.189 160.205 137.993 151.899L141.483 148.607L154.075 161.198L166.666 173.789L94.4173 173.782C16.6518 173.774 20.7893 173.919 18.7163 171.128L17.6683 169.716L17.5368 97.4051L17.4048 25.0941L28.5368 36.0366C34.6593 42.0551 40.4393 47.7106 41.3813 48.6051ZM47.9183 120.039V143.789H71.7913H95.6643L71.9183 120.039C58.8578 106.977 48.1153 96.2891 48.0453 96.2891C47.9753 96.2891 47.9183 106.977 47.9183 120.039Z" fill="#525FE1"/>
</svg>
