<svg width="198" height="193" viewBox="0 0 198 193" fill="none" xmlns="http://www.w3.org/2000/svg">
<path fill-rule="evenodd" clip-rule="evenodd" d="M96.3862 0.60503C90.0852 2.27053 89.8977 2.55303 75.9427 31.378L63.8397 56.378L38.8632 60.208C6.51472 65.1685 7.58572 64.967 5.04772 66.578C0.537218 69.442 -1.29878 76.007 0.978717 81.128C1.74972 82.8615 6.62122 87.9315 22.2082 103.221L42.4372 123.064L37.8052 150.221C32.1862 183.167 32.1862 183.17 35.8927 187.5C38.6982 190.778 40.7842 191.82 44.6037 191.851C48.4402 191.883 46.3832 192.856 78.0187 176.037L98.6512 165.068L109.769 170.917C115.883 174.134 126.803 179.898 134.034 183.727C152.389 193.446 153.709 193.752 159.255 189.585C165.348 185.007 165.349 184.92 159.632 150.378L155.164 123.378L175.388 103.378C190.855 88.083 195.848 82.8485 196.613 81.128C199.084 75.575 196.771 68.7665 191.496 66.0615C189.438 65.006 187.369 64.644 155.172 59.7075L133.458 56.378L121.422 31.5515C106.471 0.71253 104.624 -1.57147 96.3862 0.60503Z" fill="#FFA41B"/>
</svg>
