<svg width="241" height="192" viewBox="0 0 241 192" fill="none" xmlns="http://www.w3.org/2000/svg">
<path fill-rule="evenodd" clip-rule="evenodd" d="M26.4133 0.832728C12.7673 4.50723 12.2073 6.71873 12.3968 56.1952L12.5378 93.0807L15.2073 91.0747C20.1803 87.3382 26.2658 85.0332 33.1628 84.2747L36.2878 83.9312V53.9957V24.0602H120.288H204.288V54.0112V83.9622L207.413 84.3027C214.395 85.0642 220.217 87.2637 225.288 91.0557L228.038 93.1122L228.179 56.2112C228.369 6.52523 227.829 4.42323 213.948 0.807728C209.752 -0.285272 30.4763 -0.261272 26.4133 0.832728ZM33.7878 96.3697C13.4863 99.8477 5.4388 122.87 19.6398 136.846C34.6343 151.603 59.9378 141.063 59.9378 120.06C59.9378 106.286 46.5738 94.1792 33.7878 96.3697ZM117.788 96.3697C97.4863 99.8477 89.4388 122.87 103.64 136.846C122.948 155.848 153.425 133.004 141.131 108.744C137.193 100.972 125.891 94.9812 117.788 96.3697ZM201.788 96.3697C181.486 99.8477 173.439 122.87 187.64 136.846C206.948 155.848 237.425 133.004 225.131 108.744C221.193 100.972 209.891 94.9812 201.788 96.3697ZM22.5378 156.762C5.94179 159.905 -7.17821 184.595 4.39079 190.911C7.10929 192.395 65.7273 192.286 68.2703 190.793C78.8678 184.567 67.8913 161.831 52.0378 157.17C48.5123 156.134 27.3988 155.842 22.5378 156.762ZM106.538 156.762C89.9418 159.905 76.8218 184.595 88.3908 190.911C91.1093 192.395 149.727 192.286 152.27 190.793C162.868 184.567 151.891 161.831 136.038 157.17C132.512 156.134 111.399 155.842 106.538 156.762ZM190.538 156.762C173.942 159.905 160.822 184.595 172.391 190.911C175.109 192.395 233.727 192.286 236.27 190.793C246.868 184.567 235.891 161.831 220.038 157.17C216.512 156.134 195.399 155.842 190.538 156.762Z" fill="#525FE1"/>
</svg>
